<?xml version="1.0" standalone="no"?>
<!DOCTYPE svg PUBLIC "-//W3C//DTD SVG 1.1//EN" "http://www.w3.org/Graphics/SVG/1.1/DTD/svg11.dtd" >
<svg xmlns="http://www.w3.org/2000/svg" xmlns:xlink="http://www.w3.org/1999/xlink" version="1.1">
<metadata>
Created by FontForge 20161013 at Mon Feb 23 18:19:08 2009
 By ,,,
Copyright (c) 2008 - 2009 Linotype GmbH, www.linotype.com. All rights reserved. This font software may not be reproduced, modified, disclosed or transferred without the express written approval of Linotype GmbH.
</metadata>
<defs>
<font id="DINNextLTPro-Condensed" horiz-adv-x="386" >
  <font-face 
    font-family="DIN Next LT Pro Condensed"
    font-weight="400"
    font-stretch="condensed"
    units-per-em="1000"
    panose-1="2 11 5 6 2 2 3 5 2 3"
    ascent="750"
    descent="-250"
    x-height="479"
    cap-height="680"
    bbox="-82.6923 -210 835 903"
    underline-thickness="50"
    underline-position="-150"
    unicode-range="U+0020-FB04"
  />
<missing-glyph horiz-adv-x="376" 
d="M0 10v660q0 10 10 10h356q10 0 10 -10v-660q0 -10 -10 -10h-356q-10 0 -10 10zM48 52q0 -6 6 -6h267q6 0 6 6v576q0 6 -6 6h-267q-6 0 -6 -6v-576zM171 222q-10 0 -10 10v47q0 21 12 45l35 67q19 37 19 67q0 21 -4 32q-7 24 -36 24t-36 -24q-4 -11 -4 -44q0 -11 -11 -9
l-32 4q-9 1 -9 11q0 35 6 53q8 27 31 42.5t56 15.5q32 0 55 -15.5t31 -42.5q6 -18 6 -45q0 -41 -21 -80l-35 -67q-10 -22 -10 -37v-44q0 -10 -10 -10h-33zM159 124v49q0 10 10 10h38q10 0 10 -10v-49q0 -10 -10 -10h-38q-10 0 -10 10z" />
    <glyph glyph-name="IJ" unicode="IJ" horiz-adv-x="542" 
d="M60 10v660q0 10 10 10h61q10 0 10 -10v-660q0 -10 -10 -10h-61q-10 0 -10 10zM225 32q-6 8 1 14l40 39q7 7 16 0q21 -18 47 -18q73 0 73 88v515q0 10 10 10h61q10 0 10 -10v-509q0 -85 -41.5 -127.5t-113.5 -42.5q-68 0 -103 41z" />
    <glyph glyph-name="ij" unicode="ij" 
d="M128 588h-63q-10 0 -10 10v72q0 10 10 10h63q10 0 10 -10v-72q0 -10 -10 -10zM125 0h-57q-10 0 -10 10v459q0 10 10 10h57q10 0 10 -10v-459q0 -10 -10 -10zM321 588h-63q-10 0 -10 10v72q0 10 10 10h63q10 0 10 -10v-72q0 -10 -10 -10zM213 -180h-12q-10 0 -10 10v52
q0 10 10 10h11q21 2 30 13t9 37v527q0 10 10 10h57q10 0 10 -10v-529q0 -120 -115 -120z" />
    <glyph glyph-name="napostrophe" unicode="&#x22;n" horiz-adv-x="393" 
d="M12 524q-9 0 -9 9v137q0 10 10 10h52q10 0 10 -10v-50q0 -13 -6 -23l-45 -66q-4 -7 -12 -7zM329 0h-57q-10 0 -10 10v319q0 87 -63 87q-64 0 -64 -87v-319q0 -10 -10 -10h-57q-10 0 -10 10v459q0 10 10 10h57q10 0 10 -10v-38h1q27 57 91 57q112 0 112 -147v-331
q0 -10 -10 -10z" />
    <glyph glyph-name="f_f" unicode="ff" horiz-adv-x="488" 
d="M141 0h-57q-10 0 -10 10v402q0 6 -6 6h-29q-10 0 -10 10v41q0 10 10 10h29q6 0 6 6v63q0 132 125 132h18q10 0 10 -10v-53q0 -10 -10 -10h-23q-23 0 -33 -10t-10 -35v-77q0 -6 6 -6h60q10 0 10 -10v-41q0 -10 -10 -10h-60q-6 0 -6 -6v-402q0 -10 -10 -10zM384 0h-57
q-10 0 -10 10v402q0 6 -6 6h-29q-10 0 -10 10v41q0 10 10 10h29q6 0 6 6v63q0 132 125 132h18q10 0 10 -10v-53q0 -10 -10 -10h-23q-23 0 -33 -10t-10 -35v-77q0 -6 6 -6h60q10 0 10 -10v-41q0 -10 -10 -10h-60q-6 0 -6 -6v-402q0 -10 -10 -10z" />
    <glyph glyph-name="fi" unicode="fi" horiz-adv-x="437" 
d="M371 588h-63q-10 0 -10 10v72q0 10 10 10h63q10 0 10 -10v-72q0 -10 -10 -10zM368 0h-57q-10 0 -10 10v459q0 10 10 10h57q10 0 10 -10v-459q0 -10 -10 -10zM141 0h-57q-10 0 -10 10v402q0 6 -6 6h-29q-10 0 -10 10v41q0 10 10 10h29q6 0 6 6v63q0 132 125 132h18
q10 0 10 -10v-53q0 -10 -10 -10h-23q-23 0 -33 -10t-10 -35v-77q0 -6 6 -6h60q10 0 10 -10v-41q0 -10 -10 -10h-60q-6 0 -6 -6v-402q0 -10 -10 -10z" />
    <glyph glyph-name="fl" unicode="fl" horiz-adv-x="465" 
d="M425 -5l-5 1q-66 2 -92.5 32t-26.5 99v543q0 10 10 10h57q10 0 10 -10v-546q0 -48 42 -55l5 -1q10 -2 10 -11v-52q0 -10 -10 -10zM141 0h-57q-10 0 -10 10v402q0 6 -6 6h-29q-10 0 -10 10v41q0 10 10 10h29q6 0 6 6v63q0 132 125 132h18q10 0 10 -10v-53q0 -10 -10 -10
h-23q-23 0 -33 -10t-10 -35v-77q0 -6 6 -6h60q10 0 10 -10v-41q0 -10 -10 -10h-60q-6 0 -6 -6v-402q0 -10 -10 -10z" />
    <glyph glyph-name="f_f_i" unicode="ffi" horiz-adv-x="681" 
d="M615 588h-63q-10 0 -10 10v72q0 10 10 10h63q10 0 10 -10v-72q0 -10 -10 -10zM612 0h-57q-10 0 -10 10v459q0 10 10 10h57q10 0 10 -10v-459q0 -10 -10 -10zM141 0h-57q-10 0 -10 10v402q0 6 -6 6h-29q-10 0 -10 10v41q0 10 10 10h29q6 0 6 6v63q0 132 125 132h18
q10 0 10 -10v-53q0 -10 -10 -10h-23q-23 0 -33 -10t-10 -35v-77q0 -6 6 -6h60q10 0 10 -10v-41q0 -10 -10 -10h-60q-6 0 -6 -6v-402q0 -10 -10 -10zM384 0h-57q-10 0 -10 10v402q0 6 -6 6h-29q-10 0 -10 10v41q0 10 10 10h29q6 0 6 6v63q0 132 125 132h18q10 0 10 -10v-53
q0 -10 -10 -10h-23q-23 0 -33 -10t-10 -35v-77q0 -6 6 -6h60q10 0 10 -10v-41q0 -10 -10 -10h-60q-6 0 -6 -6v-402q0 -10 -10 -10z" />
    <glyph glyph-name="f_f_l" unicode="ffl" horiz-adv-x="709" 
d="M669 -5l-5 1q-66 2 -92.5 32t-26.5 99v543q0 10 10 10h57q10 0 10 -10v-546q0 -48 42 -55l5 -1q10 -2 10 -11v-52q0 -10 -10 -10zM141 0h-57q-10 0 -10 10v402q0 6 -6 6h-29q-10 0 -10 10v41q0 10 10 10h29q6 0 6 6v63q0 132 125 132h18q10 0 10 -10v-53q0 -10 -10 -10
h-23q-23 0 -33 -10t-10 -35v-77q0 -6 6 -6h60q10 0 10 -10v-41q0 -10 -10 -10h-60q-6 0 -6 -6v-402q0 -10 -10 -10zM384 0h-57q-10 0 -10 10v402q0 6 -6 6h-29q-10 0 -10 10v41q0 10 10 10h29q6 0 6 6v63q0 132 125 132h18q10 0 10 -10v-53q0 -10 -10 -10h-23q-23 0 -33 -10
t-10 -35v-77q0 -6 6 -6h60q10 0 10 -10v-41q0 -10 -10 -10h-60q-6 0 -6 -6v-402q0 -10 -10 -10z" />
    <glyph glyph-name=".notdef" horiz-adv-x="376" 
d="M0 10v660q0 10 10 10h356q10 0 10 -10v-660q0 -10 -10 -10h-356q-10 0 -10 10zM48 52q0 -6 6 -6h267q6 0 6 6v576q0 6 -6 6h-267q-6 0 -6 -6v-576zM171 222q-10 0 -10 10v47q0 21 12 45l35 67q19 37 19 67q0 21 -4 32q-7 24 -36 24t-36 -24q-4 -11 -4 -44q0 -11 -11 -9
l-32 4q-9 1 -9 11q0 35 6 53q8 27 31 42.5t56 15.5q32 0 55 -15.5t31 -42.5q6 -18 6 -45q0 -41 -21 -80l-35 -67q-10 -22 -10 -37v-44q0 -10 -10 -10h-33zM159 124v49q0 10 10 10h38q10 0 10 -10v-49q0 -10 -10 -10h-38q-10 0 -10 10z" />
    <glyph glyph-name=".null" horiz-adv-x="500" 
 />
    <glyph glyph-name="nonmarkingreturn" horiz-adv-x="333" 
 />
    <glyph glyph-name="space" unicode=" " horiz-adv-x="190" 
 />
    <glyph glyph-name="exclam" unicode="!" horiz-adv-x="227" 
d="M97 170q-10 0 -10 10l-16 490q0 10 10 10h65q10 0 10 -10l-16 -490q0 -10 -10 -10h-33zM71 10v84q0 10 10 10h65q10 0 10 -10v-84q0 -10 -10 -10h-65q-10 0 -10 10z" />
    <glyph glyph-name="quotedbl" unicode="&#x22;" horiz-adv-x="254" 
d="M163 506q-10 0 -10 10v154q0 10 10 10h40q10 0 10 -10v-154q0 -10 -10 -10h-40zM51 506q-10 0 -10 10v154q0 10 10 10h39q10 0 10 -10v-154q0 -10 -10 -10h-39z" />
    <glyph glyph-name="numbersign" unicode="#" horiz-adv-x="512" 
d="M101 10l22 213h-53q-10 0 -10 10v38q0 10 10 10h59l15 141h-56q-10 0 -10 10v37q0 10 10 10h62l20 191q2 10 11 10h39q11 0 9 -10l-20 -191h115l20 191q2 10 11 10h39q11 0 9 -10l-20 -191h59q10 0 10 -10v-37q0 -10 -10 -10h-65l-15 -141h61q10 0 10 -10v-38
q0 -10 -10 -10h-67l-22 -213q-2 -10 -11 -10h-39q-11 0 -9 10l22 213h-115l-22 -213q-2 -10 -11 -10h-39q-11 0 -9 10zM188 281h115l15 141h-115z" />
    <glyph glyph-name="dollar" unicode="$" 
d="M42 162q0 10 8 11l52 9q11 1 11 -9q1 -54 16 -78.5t47 -29.5v254l-19 8q-62 24 -85 64t-23 120q0 168 127 177v41q0 10 10 10h15q10 0 10 -10v-41q61 -6 90 -45t34 -112q1 -9 -8 -11l-51 -8q-9 -2 -11 8q-3 45 -15 67t-39 27v-223l19 -7q62 -24 86 -65.5t24 -127.5
q0 -100 -31 -147t-98 -52v-59q0 -10 -10 -10h-15q-10 0 -10 10v59q-67 4 -99 46t-35 124zM176 405v209q-28 -4 -40.5 -27.5t-12.5 -71.5t11 -71.5t42 -38.5zM211 65q29 4 42 30t13 87q0 54 -12 81t-43 42v-240z" />
    <glyph glyph-name="percent" unicode="%" horiz-adv-x="649" 
d="M172 1l246 678q4 10 13 10h38q10 0 7 -10l-245 -678q-4 -10 -13 -10h-39q-10 0 -7 10zM154 329q-68 0 -87 58q-7 22 -7 121q0 98 7 120q19 58 87 58t86 -58q7 -22 7 -120q0 -99 -7 -121q-18 -58 -86 -58zM154 381q26 0 32 22q4 9 4 105q0 95 -4 104q-6 22 -32 22
q-25 0 -33 -22q-4 -14 -4 -104q0 -91 4 -105q8 -22 33 -22zM408 52q-7 22 -7 120q0 99 7 121q19 58 87 58t86 -58q8 -22 8 -121q0 -98 -8 -120q-18 -58 -86 -58t-87 58zM462 68q8 -22 33 -22q26 0 32 22q4 9 4 104q0 96 -4 105q-6 22 -32 22q-25 0 -33 -22q-4 -14 -4 -105
q0 -90 4 -104z" />
    <glyph glyph-name="ampersand" unicode="&#x26;" horiz-adv-x="533" 
d="M66 139q0 48 28.5 98.5t95.5 129.5l-14 24q-62 107 -62 164q0 61 37 97.5t95 36.5q59 0 96 -36.5t37 -97.5q0 -41 -22.5 -84t-80.5 -111l87 -151l46 80q5 9 13 4l39 -22q8 -5 3 -14l-63 -113l28 -48q14 -26 31 -26h4q10 0 10 -10v-50q0 -10 -10 -10h-22q-24 0 -36.5 8
t-25.5 31l-21 36q-60 -84 -149 -84q-67 0 -105.5 40t-38.5 108zM239 424q41 48 55 75.5t14 57.5q0 33 -16.5 51t-44.5 18t-44.5 -18t-16.5 -51q0 -39 53 -133zM138 141q0 -38 20.5 -59.5t55.5 -21.5q30 0 55 17.5t53 60.5l-95 165q-49 -57 -69 -92.5t-20 -69.5z" />
    <glyph glyph-name="quotesingle" unicode="'" horiz-adv-x="141" 
d="M51 506q-10 0 -10 10v154q0 10 10 10h39q10 0 10 -10v-154q0 -10 -10 -10h-39z" />
    <glyph glyph-name="parenleft" unicode="(" horiz-adv-x="255" 
d="M157 -74q-89 187 -89 402t89 402q3 10 13 10h34q10 0 7 -10q-65 -192 -65 -402t65 -402q3 -10 -7 -10h-34q-10 0 -13 10z" />
    <glyph glyph-name="parenright" unicode=")" horiz-adv-x="255" 
d="M44 -74q66 195 66 402t-66 402q-3 10 7 10h35q8 0 13 -10q88 -185 88 -402t-88 -402q-5 -10 -13 -10h-35q-10 0 -7 10z" />
    <glyph glyph-name="asterisk" unicode="*" horiz-adv-x="326" 
d="M149 396q-10 0 -10 10v91l-65 -39q-8 -5 -13 3l-14 26q-5 9 3 14l65 37l-65 37q-8 5 -3 14l14 26q5 8 13 3l65 -39v91q0 10 10 10h28q10 0 10 -10l-1 -91l66 39q8 5 13 -3l15 -26q5 -9 -3 -14l-67 -37l67 -37q8 -5 3 -14l-15 -26q-5 -8 -13 -3l-66 39l1 -91
q0 -10 -10 -10h-28z" />
    <glyph glyph-name="plus" unicode="+" 
d="M157 130v105q0 6 -6 6h-103q-10 0 -10 10v50q0 10 10 10h103q6 0 6 6v105q0 10 10 10h52q10 0 10 -10v-105q0 -6 6 -6h103q10 0 10 -10v-50q0 -10 -10 -10h-103q-6 0 -6 -6v-105q0 -10 -10 -10h-52q-10 0 -10 10z" />
    <glyph glyph-name="comma" unicode="," horiz-adv-x="179" 
d="M50 -93v187q0 10 10 10h59q10 0 10 -10v-75q0 -16 -6 -26l-54 -88q-4 -7 -11 -7q-8 0 -8 9z" />
    <glyph glyph-name="hyphen" unicode="-" horiz-adv-x="335" 
d="M51 230q-10 0 -10 10v52q0 10 10 10h232q10 0 10 -10v-52q0 -10 -10 -10h-232z" />
    <glyph glyph-name="period" unicode="." horiz-adv-x="185" 
d="M50 10v84q0 10 10 10h65q10 0 10 -10v-84q0 -10 -10 -10h-65q-10 0 -10 10z" />
    <glyph glyph-name="slash" unicode="/" horiz-adv-x="234" 
d="M25 1l124 678q2 10 11 10h41q11 0 9 -10l-125 -678q-1 -10 -11 -10h-40q-11 0 -9 10z" />
    <glyph glyph-name="zero" unicode="0" 
d="M61 80q-11 35 -11 260t11 260q29 89 132 89t132 -89q10 -31 10 -260t-10 -260q-29 -89 -132 -89t-132 89zM134 104q14 -40 59 -40q46 0 58 40q7 20 7 236t-7 236q-12 40 -58 40q-45 0 -59 -40q-6 -21 -6 -236t6 -236z" />
    <glyph glyph-name="one" unicode="1" 
d="M178 10v577h-1l-86 -65q-3 -2 -5.5 -2t-4 2.5t-1.5 6.5v62q0 8 9 16l87 67q9 6 17 6h53q10 0 10 -10v-660q0 -10 -10 -10h-58q-10 0 -10 10z" />
    <glyph glyph-name="two" unicode="2" 
d="M52 10v51q0 9 5 18l170 320q29 54 29 122q0 41 -5 55q-14 40 -60 40q-45 0 -59 -40q-5 -14 -5 -70q0 -12 -12 -10l-54 6q-9 2 -9 12q0 60 8 85q30 90 132 90t132 -89q9 -28 9 -79q0 -84 -41 -161l-156 -287v-1h187q10 0 10 -10v-52q0 -10 -10 -10h-261q-10 0 -10 10z" />
    <glyph glyph-name="three" unicode="3" 
d="M59 81q-9 29 -9 80q0 11 10 12l54 5q12 2 12 -9q0 -51 5 -65q14 -40 59 -40q46 0 59 40q5 14 5 87q0 75 -5 88q-13 39 -63 39h-16q-10 0 -10 10v51q0 10 10 10h16q50 0 63 38q5 14 5 77q0 58 -5 72q-13 40 -59 40q-45 0 -59 -40q-5 -14 -5 -65q0 -11 -12 -9l-54 5
q-10 1 -10 12q0 51 9 80q30 90 132 90t132 -89q8 -25 8 -96q0 -64 -7 -88q-12 -37 -51 -59v-2q38 -22 51 -60q7 -22 7 -104q0 -86 -8 -111q-30 -89 -132 -89t-132 90z" />
    <glyph glyph-name="four" unicode="4" 
d="M37 112q-10 0 -10 10v51q0 6 2 12l140 487q3 8 12 8h58q10 0 7 -11l-139 -483v-2h110q6 0 6 6v190q0 10 10 10h57q10 0 10 -10v-190q0 -6 5 -6h46q10 0 10 -10v-52q0 -10 -10 -10h-45q-6 0 -6 -6v-96q0 -10 -10 -10h-57q-10 0 -10 10v96q0 6 -6 6h-180z" />
    <glyph glyph-name="five" unicode="5" 
d="M62 81q-8 25 -8 72q0 11 9 12l54 5q12 2 12 -9q0 -43 5 -57q14 -40 59 -40q46 0 58 39q6 16 6 113q0 96 -6 112q-12 40 -58 40q-38 0 -57 -34q-5 -9 -15 -9h-49q-10 0 -10 10v335q0 10 10 10h253q10 0 10 -10v-52q0 -10 -10 -10h-186q-6 0 -6 -6v-193h1q28 31 77 31
q87 0 113 -78q10 -30 10 -146q0 -104 -10 -136q-28 -89 -130 -89t-132 90z" />
    <glyph glyph-name="six" unicode="6" 
d="M60 82q-8 25 -8 113q0 72 6.5 108t25.5 86l109 282q3 9 12 9h60q11 0 6 -11l-107 -279l1 -2q12 10 43 10q89 0 117 -87q9 -29 9 -116q0 -88 -8 -113q-30 -91 -133 -91t-133 91zM134 104q14 -40 59 -40t59 40q5 14 5 91q0 76 -5 90q-14 41 -59 41t-59 -41q-5 -14 -5 -90
q0 -77 5 -91z" />
    <glyph glyph-name="seven" unicode="7" 
d="M86 12l176 594v2h-134q-6 0 -6 -6v-75q0 -10 -10 -10h-52q-10 0 -10 10v143q0 10 10 10h270q10 0 10 -10v-53q0 -5 -2 -13l-174 -594q-3 -10 -13 -10h-59q-9 0 -6 12z" />
    <glyph glyph-name="eight" unicode="8" 
d="M61 82q-9 29 -9 110q0 75 9 101q13 41 47 62v2q-33 21 -47 62q-9 26 -9 85q0 66 9 94q30 91 132 91q103 0 133 -91q8 -25 8 -94q0 -58 -8 -85q-14 -41 -47 -62v-2q34 -21 47 -62q8 -23 8 -101q0 -85 -8 -110q-30 -91 -133 -91q-102 0 -132 91zM193 392q45 0 59 41
q5 14 5 71q0 58 -5 72q-14 40 -59 40t-59 -40q-5 -14 -5 -72q0 -57 5 -71q14 -41 59 -41zM134 104q14 -40 59 -40t59 40q5 14 5 88q0 73 -5 87q-14 41 -59 41t-59 -41q-5 -14 -5 -87q0 -74 5 -88z" />
    <glyph glyph-name="nine" unicode="9" 
d="M115 11l107 279l-1 2q-12 -10 -43 -10q-89 0 -117 87q-9 29 -9 116q0 88 8 113q30 91 133 91t133 -91q8 -25 8 -113q0 -72 -6.5 -108t-25.5 -86l-109 -282q-3 -9 -12 -9h-60q-11 0 -6 11zM193 354q45 0 59 41q5 14 5 90q0 77 -5 91q-14 40 -59 40t-59 -40q-5 -14 -5 -91
q0 -76 5 -90q14 -41 59 -41z" />
    <glyph glyph-name="colon" unicode=":" horiz-adv-x="198" 
d="M66 376q-10 0 -10 10v83q0 10 10 10h66q10 0 10 -10v-83q0 -10 -10 -10h-66zM56 10v84q0 10 10 10h66q10 0 10 -10v-84q0 -10 -10 -10h-66q-10 0 -10 10z" />
    <glyph glyph-name="semicolon" unicode=";" horiz-adv-x="198" 
d="M66 376q-10 0 -10 10v83q0 10 10 10h66q10 0 10 -10v-83q0 -10 -10 -10h-66zM59 -92v186q0 10 10 10h60q10 0 10 -10v-73q0 -14 -7 -27l-54 -88q-4 -7 -11 -7q-8 0 -8 9z" />
    <glyph glyph-name="less" unicode="&#x3c;" 
d="M48 240q-10 5 -10 15v42q0 10 10 15l290 118q10 3 10 -6v-55q0 -9 -10 -13l-202 -79v-2l202 -79q10 -4 10 -13v-55q0 -9 -10 -6z" />
    <glyph glyph-name="equal" unicode="=" 
d="M48 329q-10 0 -10 10v49q0 10 10 10h290q10 0 10 -10v-49q0 -10 -10 -10h-290zM48 154q-10 0 -10 10v49q0 10 10 10h290q10 0 10 -10v-49q0 -10 -10 -10h-290z" />
    <glyph glyph-name="greater" unicode="&#x3e;" 
d="M48 122q-10 -4 -10 6v55q0 9 10 13l203 79v2l-203 79q-10 4 -10 13v55q0 10 10 6l290 -118q10 -4 10 -15v-42q0 -11 -10 -15z" />
    <glyph glyph-name="question" unicode="?" horiz-adv-x="360" 
d="M142 170q-10 0 -10 10v73q0 36 18 69l55 103q26 51 26 106q0 31 -5 45q-13 40 -57 40t-57 -40q-6 -16 -6 -70q0 -12 -11 -10l-55 6q-9 2 -9 12q0 59 9 86q14 42 48 65.5t82 23.5q100 0 130 -89q9 -31 9 -69q0 -65 -30 -121l-55 -105q-15 -29 -15 -55v-70q0 -10 -10 -10
h-57zM128 10v84q0 10 10 10h65q10 0 10 -10v-84q0 -10 -10 -10h-65q-10 0 -10 10z" />
    <glyph glyph-name="at" unicode="@" horiz-adv-x="673" 
d="M59 70q-18 55 -18 198q0 144 18 199q30 91 103.5 142t173.5 51q101 0 174.5 -51t103.5 -142q18 -55 18 -199q0 -101 -9 -131q-26 -78 -109 -78q-76 0 -102 63h-1q-13 -33 -34.5 -48t-58.5 -15q-73 0 -94 66q-9 29 -9 138t9 138q21 66 92 66q52 0 74 -42h2v25q0 10 10 10
h46q10 0 10 -10v-265q0 -68 56 -68q39 0 52 36q5 15 5 115q0 139 -15 184q-22 72 -80 111t-140 39q-81 0 -139 -39t-80 -111q-15 -45 -15 -184q0 -135 15 -183q24 -71 81.5 -111t137.5 -40q91 0 155 44q8 6 14 -2l20 -29q5 -9 -3 -14q-81 -56 -186 -56q-100 0 -173.5 51
t-103.5 142zM285 156q12 -35 51 -35q40 0 52 35q5 15 5 107t-5 107q-12 35 -52 35q-39 0 -51 -35q-5 -15 -5 -107t5 -107z" />
    <glyph glyph-name="A" unicode="A" horiz-adv-x="406" 
d="M18 10l145 660q3 10 11 10h60q9 0 11 -10l143 -660q2 -10 -9 -10h-60q-9 0 -11 10l-30 149h-151l-30 -149q-2 -10 -10 -10h-60q-11 0 -9 10zM141 229h123l-58 296h-3z" />
    <glyph glyph-name="B" unicode="B" horiz-adv-x="410" 
d="M60 10v660q0 10 10 10h129q89 0 129 -41t40 -134q0 -114 -79 -149v-2q86 -27 86 -159q0 -107 -44 -151t-142 -44h-119q-10 0 -10 10zM147 386h48q49 0 70 23.5t21 85.5q0 64 -20 87t-73 23h-46q-6 0 -6 -6v-207q0 -6 6 -6zM141 81q0 -6 6 -6h45q56 0 78.5 26t22.5 95
q0 67 -22.5 93t-75.5 26h-48q-6 0 -6 -6v-228z" />
    <glyph glyph-name="C" unicode="C" horiz-adv-x="381" 
d="M61 91q-12 37 -12 249t12 249q33 100 146 100q139 0 152 -152q1 -10 -8 -12l-57 -11q-11 -2 -11 8q-7 91 -75 91q-53 0 -68 -47q-9 -28 -9 -226t9 -226q15 -47 68 -47q68 0 75 91q0 10 11 8l57 -11q9 -2 8 -12q-13 -152 -152 -152q-113 0 -146 100z" />
    <glyph glyph-name="D" unicode="D" horiz-adv-x="433" 
d="M60 10v660q0 10 10 10h141q124 0 157 -106q16 -49 16 -234t-16 -234q-33 -106 -157 -106h-141q-10 0 -10 10zM141 81q0 -6 6 -6h56q66 0 86 58q13 40 13 207t-13 207q-20 58 -86 58h-56q-6 0 -6 -6v-518z" />
    <glyph glyph-name="E" unicode="E" horiz-adv-x="367" 
d="M60 10v660q0 10 10 10h257q10 0 10 -10v-55q0 -10 -10 -10h-180q-6 0 -6 -6v-212q0 -6 6 -6h156q10 0 10 -10v-55q0 -10 -10 -10h-156q-6 0 -6 -6v-219q0 -6 6 -6h180q10 0 10 -10v-55q0 -10 -10 -10h-257q-10 0 -10 10z" />
    <glyph glyph-name="F" unicode="F" horiz-adv-x="364" 
d="M60 10v660q0 10 10 10h257q10 0 10 -10v-55q0 -10 -10 -10h-180q-6 0 -6 -6v-216q0 -6 6 -6h156q10 0 10 -10v-55q0 -10 -10 -10h-156q-6 0 -6 -6v-286q0 -10 -10 -10h-61q-10 0 -10 10z" />
    <glyph glyph-name="G" unicode="G" horiz-adv-x="417" 
d="M62 92q-8 24 -10.5 67t-2.5 181t2.5 181t10.5 67q33 101 149 101q141 0 158 -148q2 -11 -7 -12l-56 -11q-10 -1 -12 8q-11 87 -82 87q-57 0 -72 -48q-9 -26 -9 -225t9 -225q15 -48 73 -48t73 48q9 29 9 174q0 6 -6 6h-67q-10 0 -10 10v53q0 10 10 10h141q10 0 10 -10v-29
q0 -130 -2.5 -171.5t-10.5 -65.5q-31 -101 -149 -101q-116 0 -149 101z" />
    <glyph glyph-name="H" unicode="H" horiz-adv-x="440" 
d="M60 10v660q0 10 10 10h61q10 0 10 -10v-278q0 -6 6 -6h146q6 0 6 6v278q0 10 10 10h61q10 0 10 -10v-660q0 -10 -10 -10h-61q-10 0 -10 10v295q0 6 -6 6h-146q-6 0 -6 -6v-295q0 -10 -10 -10h-61q-10 0 -10 10z" />
    <glyph glyph-name="I" unicode="I" horiz-adv-x="201" 
d="M60 10v660q0 10 10 10h61q10 0 10 -10v-660q0 -10 -10 -10h-61q-10 0 -10 10z" />
    <glyph glyph-name="J" unicode="J" horiz-adv-x="342" 
d="M25 32q-6 8 1 14l40 39q7 7 16 0q21 -18 47 -18q73 0 73 88v515q0 10 10 10h61q10 0 10 -10v-509q0 -85 -41.5 -127.5t-113.5 -42.5q-68 0 -103 41z" />
    <glyph glyph-name="K" unicode="K" horiz-adv-x="424" 
d="M60 10v660q0 10 10 10h61q10 0 10 -10v-312l155 314q4 8 13 8h65q10 0 6 -9l-135 -263l156 -398q3 -10 -6 -10h-66q-8 0 -11 7l-122 316l-55 -112v-201q0 -10 -10 -10h-61q-10 0 -10 10z" />
    <glyph glyph-name="L" unicode="L" horiz-adv-x="358" 
d="M60 10v660q0 10 10 10h61q10 0 10 -10v-589q0 -6 6 -6h178q10 0 10 -10v-55q0 -10 -10 -10h-255q-10 0 -10 10z" />
    <glyph glyph-name="M" unicode="M" horiz-adv-x="541" 
d="M60 10v660q0 10 10 10h62q11 0 14 -10l124 -416h4l121 416q3 10 15 10h61q10 0 10 -10v-660q0 -10 -10 -10h-54q-10 0 -10 10v471h-5l-103 -350q-3 -10 -12 -10h-33q-9 0 -12 10l-103 350h-5v-471q0 -10 -10 -10h-54q-10 0 -10 10z" />
    <glyph glyph-name="N" unicode="N" horiz-adv-x="449" 
d="M60 10v660q0 10 10 10h75q12 0 15 -10l152 -510h4v510q0 10 10 10h53q10 0 10 -10v-660q0 -10 -10 -10h-71q-12 0 -15 10l-155 510h-5v-510q0 -10 -10 -10h-53q-10 0 -10 10z" />
    <glyph glyph-name="O" unicode="O" horiz-adv-x="422" 
d="M211 -9q-116 0 -149 101q-8 24 -10.5 67t-2.5 181t2.5 181t10.5 67q33 101 149 101q118 0 149 -101q8 -24 10.5 -67t2.5 -181t-2.5 -181t-10.5 -67q-31 -101 -149 -101zM211 67q57 0 72 48q8 27 8 225t-8 225q-15 48 -72 48q-56 0 -71 -48q-9 -26 -9 -225t9 -225
q15 -48 71 -48z" />
    <glyph glyph-name="P" unicode="P" horiz-adv-x="407" 
d="M131 0h-61q-10 0 -10 10v660q0 10 10 10h119q93 0 138.5 -47.5t45.5 -156.5q0 -107 -46 -155.5t-138 -48.5h-42q-6 0 -6 -6v-256q0 -10 -10 -10zM189 347q56 0 79.5 28.5t23.5 100.5q0 71 -23.5 100t-79.5 29h-42q-6 0 -6 -6v-246q0 -6 6 -6h42z" />
    <glyph glyph-name="Q" unicode="Q" horiz-adv-x="422" 
d="M407 24l-32 -38q-7 -8 -14 -1l-46 41q-41 -35 -104 -35q-116 0 -149 101q-8 24 -10.5 67t-2.5 181t2.5 181t10.5 67q33 101 149 101q118 0 149 -101q8 -24 10.5 -67t2.5 -181q0 -100 -2.5 -151.5t-6 -68.5t-11.5 -39l52 -43q8 -6 2 -14zM211 66q31 0 50 11l-53 46
q-7 7 -1 15l27 32q6 7 14 1l40 -37q4 33 4 206q0 199 -9 225q-15 48 -72 48t-72 -48q-9 -26 -9 -225t9 -226q15 -48 72 -48z" />
    <glyph glyph-name="R" unicode="R" horiz-adv-x="421" 
d="M380 0h-68q-8 0 -11 7l-85 284q-9 -1 -28 -1h-41q-6 0 -6 -6v-274q0 -10 -10 -10h-61q-10 0 -10 10v660q0 10 10 10h119q93 0 138.5 -45.5t45.5 -150.5q0 -131 -83 -173l95 -301q4 -10 -5 -10zM190 363q54 0 78 26.5t24 94.5t-23.5 94.5t-78.5 26.5h-43q-6 0 -6 -6v-230
q0 -6 6 -6h43z" />
    <glyph glyph-name="S" unicode="S" horiz-adv-x="392" 
d="M354 192q0 -105 -36.5 -153t-121.5 -48q-153 0 -160 175q0 10 8 11l59 11q11 2 11 -9q3 -62 23 -88t60 -26q41 0 58.5 25t17.5 92q0 59 -14.5 85.5t-54.5 42.5l-41 16q-69 27 -94 67t-25 120q0 176 152 176q146 0 154 -162q0 -9 -9 -11l-56 -9q-4 -1 -7.5 1t-3.5 7
q-2 51 -20 75.5t-56 24.5q-74 0 -74 -99q0 -52 14.5 -75.5t56.5 -39.5l41 -16q66 -27 92 -68t26 -125z" />
    <glyph glyph-name="T" unicode="T" horiz-adv-x="369" 
d="M215 0h-61q-10 0 -10 10v589q0 6 -6 6h-112q-10 0 -10 10v55q0 10 10 10h317q10 0 10 -10v-55q0 -10 -10 -10h-112q-6 0 -6 -6v-589q0 -10 -10 -10z" />
    <glyph glyph-name="U" unicode="U" horiz-adv-x="436" 
d="M218 -9q-74 0 -116.5 45t-42.5 131v503q0 10 10 10h61q10 0 10 -10v-513q0 -44 20.5 -67t57.5 -23t57.5 23t20.5 67v513q0 10 10 10h61q10 0 10 -10v-503q0 -86 -42.5 -131t-116.5 -45z" />
    <glyph glyph-name="V" unicode="V" horiz-adv-x="389" 
d="M222 0h-55q-8 0 -10 10l-135 660q-2 10 8 10h62q9 0 10 -10l93 -500h3l90 500q1 10 11 10h60q10 0 8 -10l-135 -660q-2 -10 -10 -10z" />
    <glyph glyph-name="W" unicode="W" horiz-adv-x="576" 
d="M433 0h-54q-8 0 -10 10l-79 484h-2l-82 -484q-2 -10 -10 -10h-53q-8 0 -10 10l-108 660q-2 10 8 10h61q10 0 11 -10l66 -488h2l83 488q1 10 10 10h44q9 0 10 -10l83 -488h2l68 488q1 10 11 10h59q10 0 8 -10l-108 -660q-2 -10 -10 -10z" />
    <glyph glyph-name="X" unicode="X" horiz-adv-x="392" 
d="M363 0h-63q-9 0 -12 10l-91 243h-1l-92 -243q-3 -10 -11 -10h-64q-10 0 -7 10l133 344l-121 316q-3 10 7 10h62q9 0 12 -10l81 -219h1l80 219q3 10 12 10h63q10 0 7 -10l-122 -316l133 -344q3 -10 -7 -10z" />
    <glyph glyph-name="Y" unicode="Y" horiz-adv-x="375" 
d="M218 0h-61q-10 0 -10 10v271l-131 389q-3 10 7 10h63q9 0 12 -10l89 -285h3l89 285q3 10 11 10h62q10 0 7 -10l-131 -389v-271q0 -10 -10 -10z" />
    <glyph glyph-name="Z" unicode="Z" horiz-adv-x="362" 
d="M318 0h-273q-10 0 -10 10v52q0 6 2 12l206 529v2h-188q-10 0 -10 10v55q0 10 10 10h263q10 0 10 -10v-53q0 -6 -2 -12l-206 -528v-2h198q10 0 10 -10v-55q0 -10 -10 -10z" />
    <glyph glyph-name="bracketleft" unicode="[" horiz-adv-x="243" 
d="M193 -84h-115q-10 0 -10 10v804q0 10 10 10h115q10 0 10 -10v-45q0 -10 -10 -10h-47q-6 0 -6 -6v-682q0 -6 6 -6h47q10 0 10 -10v-45q0 -10 -10 -10z" />
    <glyph glyph-name="backslash" unicode="\" horiz-adv-x="234" 
d="M201 -9h-41q-10 0 -11 10l-124 678q-2 10 9 10h40q9 0 11 -10l125 -678q2 -10 -9 -10z" />
    <glyph glyph-name="bracketright" unicode="]" horiz-adv-x="243" 
d="M165 -84h-115q-10 0 -10 10v45q0 10 10 10h48q6 0 6 6v682q0 6 -6 6h-48q-10 0 -10 10v45q0 10 10 10h115q10 0 10 -10v-804q0 -10 -10 -10z" />
    <glyph glyph-name="asciicircum" unicode="^" 
d="M344 272h-52q-9 0 -13 10l-84 287h-2l-85 -287q-3 -10 -13 -10h-52q-10 0 -7 10l122 388q3 10 14 10h43q11 0 14 -10l122 -388q3 -10 -7 -10z" />
    <glyph glyph-name="underscore" unicode="_" horiz-adv-x="389" 
d="M389 -124h-389v48h389v-48z" />
    <glyph glyph-name="grave" unicode="`" horiz-adv-x="390" 
d="M264 557h-40q-10 0 -17 10l-87 123q-6 10 5 10h59q10 0 16 -10l69 -123q5 -10 -5 -10z" />
    <glyph glyph-name="a" unicode="a" horiz-adv-x="371" 
d="M308 0h-54q-10 0 -10 10v41h-1q-10 -28 -34 -44t-56 -16q-48 0 -80.5 34t-32.5 108q0 77 38 112.5t103 35.5h57q6 0 6 6v39q0 49 -16 70t-55 21q-40 0 -81 -32q-11 -7 -16 4l-19 39q-5 9 2 16q47 44 123 44q72 0 104 -36.5t32 -121.5v-320q0 -10 -10 -10zM174 57
q31 0 50.5 24t19.5 63v66q0 6 -6 6h-45q-79 0 -79 -81q0 -78 60 -78z" />
    <glyph glyph-name="b" unicode="b" horiz-adv-x="389" 
d="M227 -9q-67 0 -91 58h-1v-39q0 -10 -10 -10h-57q-10 0 -10 10v660q0 10 10 10h57q10 0 10 -10v-240h1q23 58 91 58q79 0 104 -78q12 -36 12 -170t-12 -171q-25 -78 -104 -78zM201 63q44 0 58 42q7 24 7 135q0 110 -7 134q-14 42 -58 42t-59 -42q-7 -24 -7 -134
q0 -111 7 -135q15 -42 59 -42z" />
    <glyph glyph-name="c" unicode="c" horiz-adv-x="347" 
d="M184 -9q-99 0 -128 89q-11 34 -11 160q0 125 11 159q29 89 128 89q57 0 93 -33t41 -90q0 -9 -7 -11l-54 -10q-10 -3 -12 8q-10 64 -61 64q-43 0 -56 -39q-6 -18 -6 -137q0 -120 6 -138q13 -39 56 -39q51 0 61 64q2 11 12 8l54 -10q7 -2 7 -11q-5 -57 -41 -90t-93 -33z
" />
    <glyph glyph-name="d" unicode="d" horiz-adv-x="389" 
d="M321 0h-57q-10 0 -10 10v39h-1q-24 -58 -91 -58q-79 0 -104 78q-12 37 -12 171t12 170q25 78 104 78q68 0 91 -58h1v240q0 10 10 10h57q10 0 10 -10v-660q0 -10 -10 -10zM189 63q43 0 58 42q7 24 7 135q0 110 -7 134q-15 42 -58 42q-45 0 -59 -42q-7 -24 -7 -134
q0 -111 7 -135q14 -42 59 -42z" />
    <glyph glyph-name="e" unicode="e" horiz-adv-x="368" 
d="M184 -9q-99 0 -128 90q-11 35 -11 159q0 123 11 159q30 89 130 89q99 0 129 -89q11 -35 11 -173q0 -10 -10 -10h-188q-6 0 -6 -6q0 -83 7 -106q15 -41 56 -41q49 0 64 54q3 10 12 8l53 -11q9 -1 7 -12q-10 -52 -46 -81.5t-91 -29.5zM243 281q6 0 6 6q0 68 -7 91
q-13 40 -56 40q-44 0 -57 -40q-7 -23 -7 -91q0 -6 6 -6h115z" />
    <glyph glyph-name="f" unicode="f" horiz-adv-x="244" 
d="M141 0h-57q-10 0 -10 10v402q0 6 -6 6h-29q-10 0 -10 10v41q0 10 10 10h29q6 0 6 6v63q0 132 125 132h18q10 0 10 -10v-53q0 -10 -10 -10h-23q-23 0 -33 -10t-10 -35v-77q0 -6 6 -6h60q10 0 10 -10v-41q0 -10 -10 -10h-60q-6 0 -6 -6v-402q0 -10 -10 -10z" />
    <glyph glyph-name="g" unicode="g" horiz-adv-x="387" 
d="M186 -189q-49 0 -84.5 25t-46.5 65q-2 9 5 12l53 19q9 3 13 -5q17 -43 62 -43q64 0 64 73v103h-1q-21 -58 -89 -58q-80 0 -104 78q-12 39 -12 164q0 126 12 164q25 80 104 80q68 0 89 -59h1v40q0 10 10 10h57q10 0 10 -10v-504q0 -74 -38 -114t-105 -40zM188 73
q43 0 57 42q7 21 7 129q0 109 -7 130q-15 42 -57 42q-44 0 -58 -42q-7 -26 -7 -130q0 -103 7 -129q14 -42 58 -42z" />
    <glyph glyph-name="h" unicode="h" horiz-adv-x="393" 
d="M329 0h-57q-10 0 -10 10v319q0 87 -63 87q-64 0 -64 -87v-319q0 -10 -10 -10h-57q-10 0 -10 10v660q0 10 10 10h57q10 0 10 -10v-239h1q27 57 91 57q112 0 112 -147v-331q0 -10 -10 -10z" />
    <glyph glyph-name="i" unicode="i" horiz-adv-x="193" 
d="M128 588h-63q-10 0 -10 10v72q0 10 10 10h63q10 0 10 -10v-72q0 -10 -10 -10zM125 0h-57q-10 0 -10 10v459q0 10 10 10h57q10 0 10 -10v-459q0 -10 -10 -10z" />
    <glyph glyph-name="j" unicode="j" horiz-adv-x="193" 
d="M128 588h-63q-10 0 -10 10v72q0 10 10 10h63q10 0 10 -10v-72q0 -10 -10 -10zM20 -180h-12q-10 0 -10 10v52q0 10 10 10h11q21 2 30 13t9 37v527q0 10 10 10h57q10 0 10 -10v-529q0 -120 -115 -120z" />
    <glyph glyph-name="k" unicode="k" horiz-adv-x="375" 
d="M348 0h-60q-10 0 -14 10l-90 214l-49 -87v-127q0 -10 -10 -10h-57q-10 0 -10 10v660q0 10 10 10h57q10 0 10 -10v-415l119 214q6 10 14 10h60q11 0 6 -10l-105 -175l126 -284q3 -10 -7 -10z" />
    <glyph glyph-name="l" unicode="l" horiz-adv-x="221" 
d="M182 -5l-5 1q-66 2 -92.5 32t-26.5 99v543q0 10 10 10h57q10 0 10 -10v-546q0 -48 42 -55l5 -1q10 -2 10 -11v-52q0 -10 -10 -10z" />
    <glyph glyph-name="m" unicode="m" horiz-adv-x="597" 
d="M533 0h-57q-10 0 -10 10v319q0 87 -64 87q-63 0 -63 -85v-321q0 -10 -10 -10h-57q-10 0 -10 10v319q0 87 -63 87q-64 0 -64 -87v-319q0 -10 -10 -10h-57q-10 0 -10 10v459q0 10 10 10h57q10 0 10 -10v-38h1q27 57 91 57q73 0 96 -57h1q29 57 100 57q119 0 119 -147v-331
q0 -10 -10 -10z" />
    <glyph glyph-name="n" unicode="n" horiz-adv-x="393" 
d="M329 0h-57q-10 0 -10 10v319q0 87 -63 87q-64 0 -64 -87v-319q0 -10 -10 -10h-57q-10 0 -10 10v459q0 10 10 10h57q10 0 10 -10v-38h1q27 57 91 57q112 0 112 -147v-331q0 -10 -10 -10z" />
    <glyph glyph-name="o" unicode="o" horiz-adv-x="374" 
d="M187 -9q-102 0 -132 92q-10 32 -10 157q0 124 10 157q30 91 132 91t132 -91q10 -32 10 -157t-10 -157q-30 -92 -132 -92zM187 63q45 0 59 42q6 20 6 135q0 114 -6 134q-14 42 -59 42t-59 -42q-6 -20 -6 -134q0 -115 6 -135q14 -42 59 -42z" />
    <glyph glyph-name="p" unicode="p" horiz-adv-x="389" 
d="M125 -180h-57q-10 0 -10 10v639q0 10 10 10h57q10 0 10 -10v-39h1q23 58 91 58q79 0 104 -78q12 -36 12 -170t-12 -171q-25 -78 -104 -78q-67 0 -91 58h-1v-219q0 -10 -10 -10zM201 63q44 0 58 42q7 24 7 135q0 110 -7 134q-14 42 -58 42t-59 -42q-7 -24 -7 -134
q0 -111 7 -135q15 -42 59 -42z" />
    <glyph glyph-name="q" unicode="q" horiz-adv-x="389" 
d="M321 -180h-57q-10 0 -10 10v219h-1q-24 -58 -91 -58q-79 0 -104 78q-12 37 -12 171t12 170q25 78 104 78q68 0 91 -58h1v39q0 10 10 10h57q10 0 10 -10v-639q0 -10 -10 -10zM189 63q43 0 58 42q7 24 7 135q0 110 -7 134q-15 42 -58 42q-45 0 -59 -42q-7 -24 -7 -134
q0 -111 7 -135q14 -42 59 -42z" />
    <glyph glyph-name="r" unicode="r" horiz-adv-x="273" 
d="M125 0h-57q-10 0 -10 10v459q0 10 10 10h57q10 0 10 -10v-45h1q28 64 96 64q11 0 19 -2q9 -2 6 -11l-14 -57q-3 -9 -12 -9h-15q-37 0 -59 -26t-22 -77v-296q0 -10 -10 -10z" />
    <glyph glyph-name="s" unicode="s" horiz-adv-x="343" 
d="M172 -9q-60 0 -96 32t-42 90q-2 10 8 12l51 10q10 2 12 -8q8 -69 68 -69q63 0 63 69q0 29 -12 46t-43 30l-40 15q-99 38 -99 135q0 59 35.5 97t95.5 38q56 0 89 -30.5t39 -76.5q2 -11 -7 -13l-48 -10q-9 -1 -12 8q-14 56 -61 56q-57 0 -57 -64q0 -47 55 -69l40 -15
q54 -20 76 -54t22 -88q0 -64 -36 -102.5t-101 -38.5z" />
    <glyph glyph-name="t" unicode="t" horiz-adv-x="243" 
d="M203 -5h-25q-55 0 -80 27t-25 87v303q0 6 -6 6h-29q-10 0 -10 10v41q0 10 10 10h29q6 0 6 6v135q0 10 10 10h57q10 0 10 -10v-135q0 -6 6 -6h47q10 0 10 -10v-41q0 -10 -10 -10h-47q-6 0 -6 -6v-302q0 -42 40 -42h13q10 0 10 -10v-53q0 -10 -10 -10z" />
    <glyph glyph-name="u" unicode="u" horiz-adv-x="390" 
d="M322 0h-57q-10 0 -10 10v38h-1q-25 -57 -90 -57q-110 0 -110 148v330q0 10 10 10h57q10 0 10 -10v-319q0 -87 62 -87t62 87v319q0 10 10 10h57q10 0 10 -10v-459q0 -10 -10 -10z" />
    <glyph glyph-name="v" unicode="v" horiz-adv-x="350" 
d="M199 0h-49q-8 0 -11 10l-116 459q-3 10 7 10h60q8 0 10 -10l75 -328h2l74 328q2 10 11 10h57q10 0 8 -10l-116 -459q-3 -10 -12 -10z" />
    <glyph glyph-name="w" unicode="w" horiz-adv-x="526" 
d="M384 0h-49q-10 0 -11 10l-61 314h-2l-59 -314q-1 -10 -11 -10h-49q-10 0 -11 10l-104 459q-3 10 7 10h60q8 0 10 -10l63 -326h1l64 326q2 10 11 10h42q8 0 10 -10l63 -326h1l63 326q2 10 11 10h59q10 0 7 -10l-104 -459q-1 -10 -11 -10z" />
    <glyph glyph-name="x" unicode="x" horiz-adv-x="354" 
d="M325 0h-60q-9 0 -13 9l-75 163h-1l-74 -163q-4 -9 -13 -9h-60q-11 0 -5 11l114 237l-106 221q-5 10 5 10h60q9 0 13 -8l69 -148h1l66 148q4 8 13 8h59q10 0 5 -10l-107 -221l114 -237q6 -11 -5 -11z" />
    <glyph glyph-name="y" unicode="y" horiz-adv-x="355" 
d="M73 -180h-11q-10 0 -10 10v53q0 10 10 10l12 1q22 1 33.5 12.5t18.5 42.5l17 66l-117 454q-2 10 8 10h60q8 0 10 -10l74 -327h2l74 327q2 10 11 10h58q10 0 7 -10l-131 -517q-20 -79 -46.5 -105.5t-79.5 -26.5z" />
    <glyph glyph-name="z" unicode="z" horiz-adv-x="327" 
d="M284 0h-238q-10 0 -10 10v49q0 6 3 12l167 337v2h-150q-10 0 -10 10v49q0 10 10 10h228q10 0 10 -10v-41q0 -6 -3 -12l-170 -343v-2h163q10 0 10 -10v-51q0 -10 -10 -10z" />
    <glyph glyph-name="braceleft" unicode="{" horiz-adv-x="292" 
d="M242 -84h-21q-105 0 -105 112v198q0 36 -12.5 53.5t-42.5 18.5q-10 2 -10 10v45q0 10 10 10q30 2 42.5 19.5t12.5 53.5v193q0 111 105 111h21q10 0 10 -10v-45q0 -10 -10 -10h-10q-44 0 -44 -51v-170q0 -58 -10 -83.5t-41 -38.5v-3q31 -13 41 -38.5t10 -83.5v-175
q0 -51 44 -51h10q10 0 10 -10v-45q0 -10 -10 -10z" />
    <glyph glyph-name="bar" unicode="|" horiz-adv-x="236" 
d="M139 -84h-43q-10 0 -10 10v804q0 10 10 10h43q10 0 10 -10v-804q0 -10 -10 -10z" />
    <glyph glyph-name="braceright" unicode="}" horiz-adv-x="292" 
d="M72 -84h-22q-10 0 -10 10v45q0 10 10 10h10q45 0 45 51v175q0 58 10 83.5t41 38.5v3q-31 13 -41 38.5t-10 83.5v170q0 51 -45 51h-10q-10 0 -10 10v45q0 10 10 10h22q105 0 105 -111v-193q0 -37 12 -54t42 -19q10 0 10 -10v-45q0 -8 -10 -10q-30 -1 -42 -18t-12 -54v-198
q0 -112 -105 -112z" />
    <glyph glyph-name="asciitilde" unicode="~" 
d="M254 221q-30 0 -68 25q-33 22 -50 22q-16 0 -27 -9t-26 -33q-4 -7 -13 -3l-33 18q-8 5 -4 15q38 75 99 75q31 0 68 -25q32 -22 50 -22q16 0 27 9t26 33q4 7 13 3l32 -18q10 -5 4 -15q-37 -75 -98 -75z" />
    <glyph glyph-name="uni00A0" unicode="&#xa0;" horiz-adv-x="190" 
 />
    <glyph glyph-name="exclamdown" unicode="&#xa1;" horiz-adv-x="227" 
d="M130 309q10 0 10 -10l16 -490q0 -10 -10 -10h-65q-10 0 -10 10l16 490q0 10 10 10h33zM156 469v-84q0 -10 -10 -10h-65q-10 0 -10 10v84q0 10 10 10h65q10 0 10 -10z" />
    <glyph glyph-name="cent" unicode="&#xa2;" 
d="M205 -100h-13q-10 0 -10 10v82q-91 6 -115 88q-12 37 -12 160q0 122 12 159q25 82 115 88v83q0 10 10 10h13q10 0 10 -10v-83q105 -8 121 -114q2 -9 -6 -11l-55 -11q-11 -2 -12 7q-10 49 -48 56v-349q39 8 48 56q2 10 12 7l55 -11q8 -2 6 -11q-7 -51 -38.5 -80t-82.5 -34
v-82q0 -10 -10 -10zM139 103q12 -34 43 -38v349q-32 -6 -43 -37q-7 -25 -7 -137q0 -113 7 -137z" />
    <glyph glyph-name="sterling" unicode="&#xa3;" 
d="M339 0h-281q-10 0 -10 10v52q0 5 4 11q30 34 30 93v119q0 6 -6 6h-29q-10 0 -10 10v38q0 10 10 10h29q6 0 6 6v185q0 70 34 109.5t98 39.5q120 0 132 -139q0 -11 -8 -12l-54 -9q-10 -1 -12 8q-2 42 -15.5 60.5t-42.5 18.5q-54 0 -54 -74v-187q0 -6 6 -6h94q10 0 10 -10
v-38q0 -10 -10 -10h-94q-6 0 -6 -6v-119q0 -64 -29 -92v-2h208q10 0 10 -10v-52q0 -10 -10 -10z" />
    <glyph glyph-name="currency" unicode="&#xa4;" 
d="M341 200l-25 -26q-7 -7 -14 0l-37 37q-32 -20 -72 -20q-41 0 -73 21l-37 -38q-8 -6 -14 0l-25 26q-7 7 0 14l37 37q-20 32 -20 72q0 41 21 72l-37 37q-6 6 0 14l25 25q7 7 14 0l37 -38q32 21 72 21q38 0 72 -21l37 38q7 7 14 0l25 -25q8 -8 0 -14l-38 -38q21 -32 21 -71
q0 -41 -20 -72l37 -37q7 -7 0 -14zM193 246q33 0 54 21.5t21 55.5q0 33 -21 54.5t-54 21.5t-54 -21.5t-21 -54.5q0 -34 21 -55.5t54 -21.5z" />
    <glyph glyph-name="yen" unicode="&#xa5;" 
d="M222 0h-57q-10 0 -10 10v129q0 6 -6 6h-88q-10 0 -10 10v39q0 10 10 10h88q6 0 6 6v51q0 6 -6 6h-88q-10 0 -10 10v39q0 10 10 10h80v3l-110 341q-3 10 7 10h61q9 0 12 -10l83 -283h2l81 283q3 10 12 10h60q10 0 7 -10l-111 -341v-3h80q10 0 10 -10v-39q0 -10 -10 -10
h-87q-6 0 -6 -6v-51q0 -6 6 -6h87q10 0 10 -10v-39q0 -10 -10 -10h-87q-6 0 -6 -6v-129q0 -10 -10 -10z" />
    <glyph glyph-name="brokenbar" unicode="&#xa6;" horiz-adv-x="264" 
d="M153 388h-43q-10 0 -10 10v332q0 10 10 10h43q10 0 10 -10v-332q0 -10 -10 -10zM153 -84h-43q-10 0 -10 10v336q0 10 10 10h43q10 0 10 -10v-336q0 -10 -10 -10z" />
    <glyph glyph-name="section" unicode="&#xa7;" horiz-adv-x="447" 
d="M222 -189q-97 0 -123 80q-8 24 -8 69q0 10 8 10l52 5q9 0 9 -9q0 -36 5 -53q12 -37 58 -37t57 37q6 15 6 47q0 36 -6 52q-13 42 -91 64q-74 21 -96 86q-12 34 -12 91q0 47 10 77q19 57 69 74v1q-42 16 -58 63q-9 27 -9 72q0 44 8 68q27 81 123 81q95 0 121 -80
q8 -24 8 -69q0 -10 -8 -10l-52 -5q-9 0 -9 9q0 40 -5 53q-12 37 -54 37q-43 0 -55 -37q-5 -17 -5 -47q0 -31 6 -47q7 -22 27.5 -36.5t61.5 -26.5q74 -21 96 -86q11 -36 11 -91q0 -47 -9 -77q-18 -56 -69 -74v-1q45 -17 60 -63q9 -28 9 -76q0 -46 -8 -70q-27 -81 -128 -81z
M224 139q50 0 64 45q7 20 7 69q0 48 -7 68q-13 45 -64 45q-49 0 -64 -45q-7 -25 -7 -68q0 -45 7 -69q15 -45 64 -45z" />
    <glyph glyph-name="dieresis" unicode="&#xa8;" horiz-adv-x="390" 
d="M293 588h-51q-10 0 -10 10v72q0 10 10 10h51q10 0 10 -10v-72q0 -10 -10 -10zM148 588h-51q-10 0 -10 10v72q0 10 10 10h51q10 0 10 -10v-72q0 -10 -10 -10z" />
    <glyph glyph-name="copyright" unicode="&#xa9;" horiz-adv-x="719" 
d="M360 -9q-109 0 -185.5 53.5t-108.5 149.5q-18 56 -18 146t18 146q32 96 108.5 149.5t185.5 53.5q108 0 184.5 -53.5t108.5 -149.5q18 -56 18 -146t-18 -146q-32 -96 -108.5 -149.5t-184.5 -53.5zM360 46q89 0 150 41.5t86 119.5q17 51 17 133t-17 133q-25 78 -86 119.5
t-150 41.5t-150.5 -41.5t-86.5 -119.5q-17 -51 -17 -133t17 -133q25 -78 86.5 -119.5t150.5 -41.5zM363 143q-81 0 -104 72q-9 25 -9 125q0 99 9 125q23 72 104 72q45 0 74 -23.5t34 -60.5q2 -8 -6 -10l-42 -8q-8 -2 -10 6q-12 38 -50 38q-35 0 -45 -32q-6 -15 -6 -107
t6 -107q10 -32 45 -32q38 0 50 38q2 8 10 6l42 -8q8 -2 6 -10q-5 -37 -34 -60.5t-74 -23.5z" />
    <glyph glyph-name="ordfeminine" unicode="&#xaa;" horiz-adv-x="271" 
d="M216 392h-33q-10 0 -10 10v19h-1q-5 -14 -21 -23.5t-36 -9.5q-34 0 -54 22t-20 62q0 49 25 72.5t69 23.5h32q6 0 6 6v13q0 27 -11 38.5t-34 11.5q-25 0 -51 -19q-9 -5 -14 3l-11 27q-4 7 4 13q33 26 80 26q45 0 67.5 -22.5t22.5 -73.5v-189q0 -10 -10 -10zM130 434
q19 0 31 13t12 35v36q0 6 -6 6h-26q-48 0 -48 -47q0 -43 37 -43z" />
    <glyph glyph-name="guillemotleft" unicode="&#xab;" horiz-adv-x="445" 
d="M374 91l-161 166q-7 7 0 14l161 166q3 3 6.5 1.5t3.5 -5.5v-60q0 -9 -9 -18l-84 -87q-4 -4 0 -8l84 -87q9 -9 9 -18v-60q0 -4 -3.5 -5.5t-6.5 1.5zM200 91l-161 166q-7 7 0 14l161 166q3 3 6.5 1.5t3.5 -5.5v-60q0 -9 -9 -18l-84 -87q-4 -4 0 -8l84 -87q9 -9 9 -18v-60
q0 -4 -3.5 -5.5t-6.5 1.5z" />
    <glyph glyph-name="logicalnot" unicode="&#xac;" 
d="M338 148h-51q-10 0 -10 10v77q0 6 -6 6h-223q-10 0 -10 10v50q0 10 10 10h290q10 0 10 -10v-143q0 -10 -10 -10z" />
    <glyph glyph-name="uni00AD" unicode="&#xad;" horiz-adv-x="335" 
d="M283 230h-232q-10 0 -10 10v52q0 10 10 10h232q10 0 10 -10v-52q0 -10 -10 -10z" />
    <glyph glyph-name="registered" unicode="&#xae;" horiz-adv-x="432" 
d="M216 303q-60 0 -102 29t-59 84q-10 36 -10 77q0 39 10 77q17 54 59 83t102 29t102 -29t59 -83q9 -34 9 -77q0 -45 -9 -77q-17 -54 -59 -83.5t-102 -29.5zM216 332q48 0 82 24t48 67q10 32 10 70q0 37 -10 69q-14 43 -48 67t-82 24t-82.5 -24t-48.5 -67q-9 -29 -9 -69
q0 -41 9 -70q14 -43 48.5 -67t82.5 -24zM191 388h-18q-7 0 -7 7v198q0 7 7 7h43q60 0 60 -61q0 -39 -27 -53l30 -91q1 -7 -6 -7h-20q-7 0 -8 7l-25 82q-6 -1 -18 -1q-4 0 -4 -4v-77q0 -7 -7 -7zM213 507q16 0 23 7t7 25t-7 24.5t-23 6.5h-11q-4 0 -4 -4v-55q0 -4 4 -4h11z
" />
    <glyph glyph-name="macron" unicode="&#xaf;" horiz-adv-x="390" 
d="M292 603h-194q-10 0 -10 10v43q0 10 10 10h194q10 0 10 -10v-43q0 -10 -10 -10z" />
    <glyph glyph-name="degree" unicode="&#xb0;" horiz-adv-x="331" 
d="M166 452q-50 0 -83 32.5t-33 82.5t33 83t83 33t82.5 -33t32.5 -83q0 -49 -32.5 -82t-82.5 -33zM166 500q29 0 47 19t18 48q0 30 -18 49t-47 19t-47.5 -19.5t-18.5 -48.5t18.5 -48t47.5 -19z" />
    <glyph glyph-name="plusminus" unicode="&#xb1;" 
d="M219 137h-52q-10 0 -10 10v105q0 6 -6 6h-103q-10 0 -10 10v49q0 10 10 10h103q6 0 6 6v105q0 10 10 10h52q10 0 10 -10v-105q0 -6 6 -6h103q10 0 10 -10v-49q0 -10 -10 -10h-103q-6 0 -6 -6v-105q0 -10 -10 -10zM338 0h-290q-10 0 -10 10v50q0 10 10 10h290q10 0 10 -10
v-50q0 -10 -10 -10z" />
    <glyph glyph-name="twosuperior" unicode="&#xb2;" horiz-adv-x="270" 
d="M225 430h-178q-10 0 -10 10v36q0 8 4 16l113 178q18 27 18 61q0 23 -3 34q-8 22 -35 22q-28 0 -35 -22q-4 -9 -4 -41q0 -11 -11 -9l-39 4q-9 1 -9 12q0 31 6 51q19 61 93 61q75 0 94 -61q6 -20 6 -51q0 -49 -29 -93l-96 -151v-1h115q10 0 10 -10v-36q0 -10 -10 -10z" />
    <glyph glyph-name="threesuperior" unicode="&#xb3;" horiz-adv-x="270" 
d="M134 423q-74 0 -93 60q-6 19 -6 42q0 11 10 12l38 4q11 2 11 -10q0 -16 4 -30q7 -22 35 -22t35 22q4 14 4 44q0 35 -3 45q-7 22 -36 22h-8q-10 0 -10 10v37q0 10 10 10h7q30 0 37 21q3 10 3 39q0 22 -4 36q-7 22 -35 22t-35 -22q-4 -14 -4 -30q0 -12 -11 -10l-38 4
q-10 1 -10 12q0 23 6 42q19 60 93 60q75 0 94 -60q6 -19 6 -54q0 -37 -4 -49q-9 -27 -35 -38v-1q27 -13 34 -38q5 -14 5 -58q0 -43 -6 -62q-19 -60 -94 -60z" />
    <glyph glyph-name="acute" unicode="&#xb4;" horiz-adv-x="390" 
d="M166 557h-40q-10 0 -5 10l69 123q6 10 16 10h59q11 0 5 -10l-87 -123q-7 -10 -17 -10z" />
    <glyph glyph-name="mu" unicode="&#xb5;" horiz-adv-x="394" 
d="M326 0h-57q-10 0 -10 10v38h-1q-20 -57 -80 -57q-30 0 -43 19v-180q0 -10 -10 -10h-57q-10 0 -10 10v639q0 10 10 10h57q10 0 10 -10v-319q0 -87 62 -87t62 87v319q0 10 10 10h57q10 0 10 -10v-459q0 -10 -10 -10z" />
    <glyph glyph-name="mu" unicode="&#x3bc;" horiz-adv-x="394" 
d="M326 0h-57q-10 0 -10 10v38h-1q-20 -57 -80 -57q-30 0 -43 19v-180q0 -10 -10 -10h-57q-10 0 -10 10v639q0 10 10 10h57q10 0 10 -10v-319q0 -87 62 -87t62 87v319q0 10 10 10h57q10 0 10 -10v-459q0 -10 -10 -10z" />
    <glyph glyph-name="paragraph" unicode="&#xb6;" horiz-adv-x="468" 
d="M391 -180h-44q-10 0 -10 10v778q0 6 -6 6h-50q-6 0 -6 -6v-778q0 -10 -10 -10h-43q-10 0 -10 10v428q-69 9 -110.5 67t-41.5 144q0 90 51 150.5t137 60.5h143q10 0 10 -10v-840q0 -10 -10 -10z" />
    <glyph glyph-name="periodcentered" unicode="&#xb7;" horiz-adv-x="185" 
d="M125 213h-65q-10 0 -10 10v84q0 10 10 10h65q10 0 10 -10v-84q0 -10 -10 -10z" />
    <glyph glyph-name="cedilla" unicode="&#xb8;" horiz-adv-x="390" 
d="M137 -142l57 142q4 10 13 10h42q10 0 7 -10l-48 -142q-4 -10 -16 -10h-48q-10 0 -7 10z" />
    <glyph glyph-name="onesuperior" unicode="&#xb9;" horiz-adv-x="270" 
d="M178 430h-42q-10 0 -10 10v325h-1l-56 -35q-11 -7 -11 5v45q0 9 7 13l57 38q8 5 16 5h40q10 0 10 -10v-386q0 -10 -10 -10z" />
    <glyph glyph-name="ordmasculine" unicode="&#xba;" horiz-adv-x="281" 
d="M140 387q-70 0 -89 60q-7 21 -7 90t7 90q20 60 89 60q70 0 90 -60q7 -21 7 -90t-7 -90q-20 -60 -90 -60zM140 437q30 0 40 27q4 12 4 73t-4 73q-10 27 -40 27q-29 0 -39 -27q-4 -12 -4 -73t4 -73q10 -27 39 -27z" />
    <glyph glyph-name="guillemotright" unicode="&#xbb;" horiz-adv-x="445" 
d="M245 91q-3 -3 -6.5 -1.5t-3.5 5.5v60q0 9 9 18l84 87q4 4 0 8l-84 87q-9 9 -9 18v60q0 4 3.5 5.5t6.5 -1.5l161 -166q7 -7 0 -14zM71 91q-3 -3 -6.5 -1.5t-3.5 5.5v60q0 9 9 18l84 87q4 4 0 8l-84 87q-9 9 -9 18v60q0 4 3.5 5.5t6.5 -1.5l161 -166q7 -7 0 -14z" />
    <glyph glyph-name="onequarter" unicode="&#xbc;" horiz-adv-x="705" 
d="M200 274h-42q-10 0 -10 10v325h-1l-56 -35q-11 -7 -11 5v45q0 9 7 13l57 38q8 5 16 5h40q10 0 10 -10v-386q0 -10 -10 -10zM576 0h-39q-10 0 -10 10v46q0 6 -6 6h-119q-10 0 -10 10v36q0 7 3 16l88 272q3 10 12 10h44q10 0 7 -10l-90 -276v-2h65q6 0 6 6v99q0 10 10 10
h39q10 0 10 -10v-99q0 -6 5 -6h23q10 0 10 -10v-36q0 -10 -10 -10h-22q-6 0 -6 -6v-46q0 -10 -10 -10zM233 -9h-39q-10 0 -7 10l245 678q4 10 13 10h39q10 0 7 -10l-245 -678q-4 -10 -13 -10z" />
    <glyph glyph-name="onehalf" unicode="&#xbd;" horiz-adv-x="723" 
d="M200 274h-42q-10 0 -10 10v325h-1l-56 -35q-11 -7 -11 5v45q0 9 7 13l57 38q8 5 16 5h40q10 0 10 -10v-386q0 -10 -10 -10zM633 0h-178q-10 0 -10 10v36q0 8 4 16l113 178q18 27 18 61q0 23 -3 34q-8 22 -35 22q-28 0 -35 -22q-4 -9 -4 -41q0 -11 -11 -9l-39 4
q-9 1 -9 12q0 31 6 51q19 61 93 61q75 0 94 -61q6 -20 6 -51q0 -49 -29 -93l-96 -151v-1h115q10 0 10 -10v-36q0 -10 -10 -10zM233 -9h-39q-10 0 -7 10l245 678q4 10 13 10h39q10 0 7 -10l-245 -678q-4 -10 -13 -10z" />
    <glyph glyph-name="threequarters" unicode="&#xbe;" horiz-adv-x="750" 
d="M621 0h-39q-10 0 -10 10v46q0 6 -6 6h-119q-10 0 -10 10v36q0 7 3 16l88 272q3 10 12 10h44q10 0 7 -10l-90 -276v-2h65q6 0 6 6v99q0 10 10 10h39q10 0 10 -10v-99q0 -6 5 -6h23q10 0 10 -10v-36q0 -10 -10 -10h-22q-6 0 -6 -6v-46q0 -10 -10 -10zM278 -9h-39
q-10 0 -7 10l245 678q4 10 13 10h39q10 0 7 -10l-245 -678q-4 -10 -13 -10zM179 267q-74 0 -93 60q-6 19 -6 42q0 11 10 12l38 4q11 2 11 -10q0 -16 4 -30q7 -22 35 -22t35 22q4 14 4 44q0 35 -3 45q-7 22 -36 22h-8q-10 0 -10 10v37q0 10 10 10h7q30 0 37 21q3 10 3 39
q0 22 -4 36q-7 22 -35 22t-35 -22q-4 -14 -4 -30q0 -12 -11 -10l-38 4q-10 1 -10 12q0 23 6 42q19 60 93 60q75 0 94 -60q6 -19 6 -54q0 -37 -4 -49q-9 -27 -35 -38v-1q27 -13 34 -38q5 -14 5 -58q0 -43 -6 -62q-19 -60 -94 -60z" />
    <glyph glyph-name="questiondown" unicode="&#xbf;" horiz-adv-x="360" 
d="M218 309q10 0 10 -10v-73q0 -36 -18 -69l-55 -103q-26 -51 -26 -106q0 -31 5 -45q13 -40 57 -40t57 40q6 16 6 70q0 12 11 10l55 -6q9 -1 9 -12q0 -59 -9 -86q-14 -42 -48 -65.5t-82 -23.5q-100 0 -130 89q-9 31 -9 69q0 65 30 121l55 105q15 28 15 55v70q0 10 10 10h57z
M232 469v-84q0 -10 -10 -10h-65q-10 0 -10 10v84q0 10 10 10h65q10 0 10 -10z" />
    <glyph glyph-name="Agrave" unicode="&#xc0;" horiz-adv-x="406" 
d="M18 10l145 660q3 10 11 10h60q9 0 11 -10l143 -660q2 -10 -9 -10h-60q-9 0 -11 10l-30 149h-151l-30 -149q-2 -10 -10 -10h-60q-11 0 -9 10zM141 229h123l-58 296h-3zM225 763h-39q-10 0 -19 10l-93 105q-3 4 -1.5 7t6.5 3h58q10 0 17 -10l76 -105q3 -4 1.5 -7t-6.5 -3z
" />
    <glyph glyph-name="Aacute" unicode="&#xc1;" horiz-adv-x="406" 
d="M18 10l145 660q3 10 11 10h60q9 0 11 -10l143 -660q2 -10 -9 -10h-60q-9 0 -11 10l-30 149h-151l-30 -149q-2 -10 -10 -10h-60q-11 0 -9 10zM141 229h123l-58 296h-3zM223 763h-38q-5 0 -7 3t1 7l77 105q7 10 16 10h58q5 0 6.5 -3t-1.5 -7l-93 -105q-9 -10 -19 -10z" />
    <glyph glyph-name="Acircumflex" unicode="&#xc2;" horiz-adv-x="406" 
d="M18 10l145 660q3 10 11 10h60q9 0 11 -10l143 -660q2 -10 -9 -10h-60q-9 0 -11 10l-30 149h-151l-30 -149q-2 -10 -10 -10h-60q-11 0 -9 10zM141 229h123l-58 296h-3zM314 752h-42q-10 0 -17 10l-52 71h-2l-52 -71q-7 -10 -17 -10h-42q-12 0 -5 10l82 123q6 10 17 10h36
q11 0 17 -10l82 -123q7 -10 -5 -10z" />
    <glyph glyph-name="Atilde" unicode="&#xc3;" horiz-adv-x="406" 
d="M18 10l145 660q3 10 11 10h60q9 0 11 -10l143 -660q2 -10 -9 -10h-60q-9 0 -11 10l-30 149h-151l-30 -149q-2 -10 -10 -10h-60q-11 0 -9 10zM141 229h123l-58 296h-3zM244 773q-23 0 -49 19q-22 16 -35 16q-22 0 -44 -27q-4 -4 -8 -3t-4 6v47q0 9 9 18q22 24 48 24
q20 0 48 -19q23 -17 36 -17q21 0 44 28q3 4 7 2.5t4 -6.5v-47q0 -9 -8 -17q-21 -24 -48 -24z" />
    <glyph glyph-name="Adieresis" unicode="&#xc4;" horiz-adv-x="406" 
d="M18 10l145 660q3 10 11 10h60q9 0 11 -10l143 -660q2 -10 -9 -10h-60q-9 0 -11 10l-30 149h-151l-30 -149q-2 -10 -10 -10h-60q-11 0 -9 10zM141 229h123l-58 296h-3zM300 777h-51q-10 0 -10 10v72q0 10 10 10h51q10 0 10 -10v-72q0 -10 -10 -10zM155 777h-51
q-10 0 -10 10v72q0 10 10 10h51q10 0 10 -10v-72q0 -10 -10 -10z" />
    <glyph glyph-name="Aring" unicode="&#xc5;" horiz-adv-x="406" 
d="M18 10l145 660q3 10 11 10h60q9 0 11 -10l143 -660q2 -10 -9 -10h-60q-9 0 -11 10l-30 149h-151l-30 -149q-2 -10 -10 -10h-60q-11 0 -9 10zM141 229h123l-58 296h-3zM202 731q-37 0 -61.5 24.5t-24.5 61.5t24 61.5t62 24.5q37 0 61.5 -24.5t24.5 -61.5t-24.5 -61.5
t-61.5 -24.5zM202 768q20 0 33.5 14t13.5 35t-13.5 35t-33.5 14t-33.5 -14t-13.5 -35t13.5 -35t33.5 -14z" />
    <glyph glyph-name="AE" unicode="&#xc6;" horiz-adv-x="629" 
d="M589 0h-257q-10 0 -10 10v143q0 6 -6 6h-163l-56 -149q-3 -10 -13 -10h-59q-10 0 -7 10l251 660q3 10 12 10h308q10 0 10 -10v-55q0 -10 -10 -10h-180q-6 0 -6 -6v-212q0 -6 6 -6h156q10 0 10 -10v-55q0 -10 -10 -10h-156q-6 0 -6 -6v-219q0 -6 6 -6h180q10 0 10 -10v-55
q0 -10 -10 -10zM319 597l-139 -368h136q6 0 6 6v362h-3z" />
    <glyph glyph-name="Ccedilla" unicode="&#xc7;" horiz-adv-x="381" 
d="M127 -152q-10 0 -7 10l54 136q-85 12 -113 97q-12 37 -12 249t12 249q33 100 146 100q139 0 152 -152q1 -10 -8 -12l-57 -11q-11 -2 -11 8q-7 91 -75 91q-53 0 -68 -47q-9 -28 -9 -226t9 -226q15 -47 68 -47q68 0 75 91q0 10 11 8l57 -11q9 -2 8 -12q-12 -134 -123 -150
l-45 -135q-4 -10 -16 -10h-48z" />
    <glyph glyph-name="Egrave" unicode="&#xc8;" horiz-adv-x="367" 
d="M220 763h-39q-10 0 -19 10l-93 105q-3 4 -1.5 7t6.5 3h58q10 0 17 -10l76 -105q3 -4 1.5 -7t-6.5 -3zM60 10v660q0 10 10 10h257q10 0 10 -10v-55q0 -10 -10 -10h-180q-6 0 -6 -6v-212q0 -6 6 -6h156q10 0 10 -10v-55q0 -10 -10 -10h-156q-6 0 -6 -6v-219q0 -6 6 -6h180
q10 0 10 -10v-55q0 -10 -10 -10h-257q-10 0 -10 10z" />
    <glyph glyph-name="Eacute" unicode="&#xc9;" horiz-adv-x="367" 
d="M209 763h-38q-5 0 -7 3t1 7l77 105q7 10 16 10h58q5 0 6.5 -3t-1.5 -7l-93 -105q-9 -10 -19 -10zM60 10v660q0 10 10 10h257q10 0 10 -10v-55q0 -10 -10 -10h-180q-6 0 -6 -6v-212q0 -6 6 -6h156q10 0 10 -10v-55q0 -10 -10 -10h-156q-6 0 -6 -6v-219q0 -6 6 -6h180
q10 0 10 -10v-55q0 -10 -10 -10h-257q-10 0 -10 10z" />
    <glyph glyph-name="Ecircumflex" unicode="&#xca;" horiz-adv-x="367" 
d="M60 10v660q0 10 10 10h257q10 0 10 -10v-55q0 -10 -10 -10h-180q-6 0 -6 -6v-212q0 -6 6 -6h156q10 0 10 -10v-55q0 -10 -10 -10h-156q-6 0 -6 -6v-219q0 -6 6 -6h180q10 0 10 -10v-55q0 -10 -10 -10h-257q-10 0 -10 10zM309 752h-42q-10 0 -17 10l-52 71h-2l-52 -71
q-7 -10 -17 -10h-42q-12 0 -5 10l82 123q6 10 17 10h36q11 0 17 -10l82 -123q7 -10 -5 -10z" />
    <glyph glyph-name="Edieresis" unicode="&#xcb;" horiz-adv-x="367" 
d="M294 777h-51q-10 0 -10 10v72q0 10 10 10h51q10 0 10 -10v-72q0 -10 -10 -10zM149 777h-51q-10 0 -10 10v72q0 10 10 10h51q10 0 10 -10v-72q0 -10 -10 -10zM60 10v660q0 10 10 10h257q10 0 10 -10v-55q0 -10 -10 -10h-180q-6 0 -6 -6v-212q0 -6 6 -6h156q10 0 10 -10
v-55q0 -10 -10 -10h-156q-6 0 -6 -6v-219q0 -6 6 -6h180q10 0 10 -10v-55q0 -10 -10 -10h-257q-10 0 -10 10z" />
    <glyph glyph-name="Igrave" unicode="&#xcc;" horiz-adv-x="201" 
d="M60 10v660q0 10 10 10h61q10 0 10 -10v-660q0 -10 -10 -10h-61q-10 0 -10 10zM122 763h-39q-10 0 -19 10l-93 105q-3 4 -1.5 7t6.5 3h58q10 0 17 -10l76 -105q3 -4 1.5 -7t-6.5 -3z" />
    <glyph glyph-name="Iacute" unicode="&#xcd;" horiz-adv-x="201" 
d="M60 10v660q0 10 10 10h61q10 0 10 -10v-660q0 -10 -10 -10h-61q-10 0 -10 10zM119 763h-38q-5 0 -7 3t1 7l77 105q7 10 16 10h58q5 0 6.5 -3t-1.5 -7l-93 -105q-9 -10 -19 -10z" />
    <glyph glyph-name="Icircumflex" unicode="&#xce;" horiz-adv-x="201" 
d="M60 10v660q0 10 10 10h61q10 0 10 -10v-660q0 -10 -10 -10h-61q-10 0 -10 10zM213 752h-42q-10 0 -17 10l-52 71h-2l-52 -71q-7 -10 -17 -10h-42q-12 0 -5 10l82 123q6 10 17 10h36q11 0 17 -10l82 -123q7 -10 -5 -10z" />
    <glyph glyph-name="Idieresis" unicode="&#xcf;" horiz-adv-x="201" 
d="M60 10v660q0 10 10 10h61q10 0 10 -10v-660q0 -10 -10 -10h-61q-10 0 -10 10zM199 777h-51q-10 0 -10 10v72q0 10 10 10h51q10 0 10 -10v-72q0 -10 -10 -10zM54 777h-51q-10 0 -10 10v72q0 10 10 10h51q10 0 10 -10v-72q0 -10 -10 -10z" />
    <glyph glyph-name="Eth" unicode="&#xd0;" horiz-adv-x="433" 
d="M211 0h-141q-10 0 -10 10v296q0 6 -6 6h-29q-10 0 -10 10v44q0 10 10 10h29q6 0 6 6v288q0 10 10 10h141q124 0 157 -106q16 -49 16 -234t-16 -234q-33 -106 -157 -106zM203 75q66 0 86 58q13 40 13 207t-13 207q-20 58 -86 58h-56q-6 0 -6 -6v-217q0 -6 6 -6h65
q10 0 10 -10v-44q0 -10 -10 -10h-65q-6 0 -6 -6v-225q0 -6 6 -6h56z" />
    <glyph glyph-name="Ntilde" unicode="&#xd1;" horiz-adv-x="449" 
d="M266 773q-23 0 -49 19q-22 16 -35 16q-22 0 -44 -27q-4 -4 -8 -3t-4 6v47q0 9 9 18q22 24 48 24q19 0 48 -19q23 -17 36 -17q21 0 44 28q3 4 7 2.5t4 -6.5v-47q0 -9 -8 -17q-21 -24 -48 -24zM60 10v660q0 10 10 10h75q12 0 15 -10l152 -510h4v510q0 10 10 10h53
q10 0 10 -10v-660q0 -10 -10 -10h-71q-12 0 -15 10l-155 510h-5v-510q0 -10 -10 -10h-53q-10 0 -10 10z" />
    <glyph glyph-name="Ograve" unicode="&#xd2;" horiz-adv-x="422" 
d="M238 763h-39q-10 0 -19 10l-93 105q-3 4 -1.5 7t6.5 3h58q10 0 17 -10l76 -105q3 -4 1.5 -7t-6.5 -3zM211 -9q-116 0 -149 101q-8 24 -10.5 67t-2.5 181t2.5 181t10.5 67q33 101 149 101q118 0 149 -101q8 -24 10.5 -67t2.5 -181t-2.5 -181t-10.5 -67q-31 -101 -149 -101
zM211 67q57 0 72 48q8 27 8 225t-8 225q-15 48 -72 48q-56 0 -71 -48q-9 -26 -9 -225t9 -225q15 -48 71 -48z" />
    <glyph glyph-name="Oacute" unicode="&#xd3;" horiz-adv-x="422" 
d="M224 763h-38q-5 0 -7 3t1 7l77 105q7 10 16 10h58q5 0 6.5 -3t-1.5 -7l-93 -105q-9 -10 -19 -10zM211 -9q-116 0 -149 101q-8 24 -10.5 67t-2.5 181t2.5 181t10.5 67q33 101 149 101q118 0 149 -101q8 -24 10.5 -67t2.5 -181t-2.5 -181t-10.5 -67q-31 -101 -149 -101z
M211 67q57 0 72 48q8 27 8 225t-8 225q-15 48 -72 48q-56 0 -71 -48q-9 -26 -9 -225t9 -225q15 -48 71 -48z" />
    <glyph glyph-name="Ocircumflex" unicode="&#xd4;" horiz-adv-x="422" 
d="M211 -9q-116 0 -149 101q-8 24 -10.5 67t-2.5 181t2.5 181t10.5 67q33 101 149 101q118 0 149 -101q8 -24 10.5 -67t2.5 -181t-2.5 -181t-10.5 -67q-31 -101 -149 -101zM211 67q57 0 72 48q8 27 8 225t-8 225q-15 48 -72 48q-56 0 -71 -48q-9 -26 -9 -225t9 -225
q15 -48 71 -48zM323 752h-42q-10 0 -17 10l-52 71h-2l-52 -71q-7 -10 -17 -10h-42q-12 0 -5 10l82 123q6 10 17 10h36q11 0 17 -10l82 -123q7 -10 -5 -10z" />
    <glyph glyph-name="Otilde" unicode="&#xd5;" horiz-adv-x="422" 
d="M252 773q-23 0 -49 19q-22 16 -35 16q-22 0 -44 -27q-4 -4 -8 -3t-4 6v47q0 9 9 18q22 24 48 24q19 0 48 -19q23 -17 36 -17q21 0 44 28q3 4 7 2.5t4 -6.5v-47q0 -9 -8 -17q-21 -24 -48 -24zM211 -9q-116 0 -149 101q-8 24 -10.5 67t-2.5 181t2.5 181t10.5 67
q33 101 149 101q118 0 149 -101q8 -24 10.5 -67t2.5 -181t-2.5 -181t-10.5 -67q-31 -101 -149 -101zM211 67q57 0 72 48q8 27 8 225t-8 225q-15 48 -72 48q-56 0 -71 -48q-9 -26 -9 -225t9 -225q15 -48 71 -48z" />
    <glyph glyph-name="Odieresis" unicode="&#xd6;" horiz-adv-x="422" 
d="M309 777h-51q-10 0 -10 10v72q0 10 10 10h51q10 0 10 -10v-72q0 -10 -10 -10zM164 777h-51q-10 0 -10 10v72q0 10 10 10h51q10 0 10 -10v-72q0 -10 -10 -10zM211 -9q-116 0 -149 101q-8 24 -10.5 67t-2.5 181t2.5 181t10.5 67q33 101 149 101q118 0 149 -101
q8 -24 10.5 -67t2.5 -181t-2.5 -181t-10.5 -67q-31 -101 -149 -101zM211 67q57 0 72 48q8 27 8 225t-8 225q-15 48 -72 48q-56 0 -71 -48q-9 -26 -9 -225t9 -225q15 -48 71 -48z" />
    <glyph glyph-name="multiply" unicode="&#xd7;" 
d="M325 176l-32 -33q-7 -7 -14 0l-82 82q-4 3 -8 0l-83 -82q-7 -7 -14 0l-32 33q-7 7 0 14l82 82q4 4 0 8l-82 82q-7 7 0 14l32 33q7 7 14 0l83 -82q4 -3 8 0l82 82q7 7 14 0l32 -33q9 -7 0 -14l-82 -82q-3 -4 0 -8l82 -82q9 -7 0 -14z" />
    <glyph glyph-name="Oslash" unicode="&#xd8;" horiz-adv-x="422" 
d="M73 -30h-21q-10 0 -7 10l32 78q-9 16 -15 34q-8 24 -10.5 67t-2.5 181t2.5 181t10.5 67q33 101 149 101q64 0 106 -34l19 46q4 9 13 9h21q10 0 7 -10l-32 -78q8 -14 15 -34q8 -24 10.5 -67t2.5 -181t-2.5 -181t-10.5 -67q-31 -101 -149 -101q-66 0 -106 34l-19 -46
q-4 -9 -13 -9zM131 340q0 -123 1 -154l148 386q-19 41 -69 41q-56 0 -71 -48q-9 -26 -9 -225zM211 67q55 0 72 48q8 27 8 225q0 122 -1 154l-148 -386q18 -41 69 -41z" />
    <glyph glyph-name="Ugrave" unicode="&#xd9;" horiz-adv-x="436" 
d="M246 763h-39q-10 0 -19 10l-93 105q-3 4 -1.5 7t6.5 3h58q10 0 17 -10l76 -105q3 -4 1.5 -7t-6.5 -3zM218 -9q-74 0 -116.5 45t-42.5 131v503q0 10 10 10h61q10 0 10 -10v-513q0 -44 20.5 -67t57.5 -23t57.5 23t20.5 67v513q0 10 10 10h61q10 0 10 -10v-503
q0 -86 -42.5 -131t-116.5 -45z" />
    <glyph glyph-name="Uacute" unicode="&#xda;" horiz-adv-x="436" 
d="M232 763h-38q-5 0 -7 3t1 7l77 105q7 10 16 10h58q5 0 6.5 -3t-1.5 -7l-93 -105q-9 -10 -19 -10zM218 -9q-74 0 -116.5 45t-42.5 131v503q0 10 10 10h61q10 0 10 -10v-513q0 -44 20.5 -67t57.5 -23t57.5 23t20.5 67v513q0 10 10 10h61q10 0 10 -10v-503q0 -86 -42.5 -131
t-116.5 -45z" />
    <glyph glyph-name="Ucircumflex" unicode="&#xdb;" horiz-adv-x="436" 
d="M218 -9q-74 0 -116.5 45t-42.5 131v503q0 10 10 10h61q10 0 10 -10v-513q0 -44 20.5 -67t57.5 -23t57.5 23t20.5 67v513q0 10 10 10h61q10 0 10 -10v-503q0 -86 -42.5 -131t-116.5 -45zM330 752h-42q-10 0 -17 10l-52 71h-2l-52 -71q-7 -10 -17 -10h-42q-12 0 -5 10
l82 123q6 10 17 10h36q11 0 17 -10l82 -123q7 -10 -5 -10z" />
    <glyph glyph-name="Udieresis" unicode="&#xdc;" horiz-adv-x="436" 
d="M316 777h-51q-10 0 -10 10v72q0 10 10 10h51q10 0 10 -10v-72q0 -10 -10 -10zM171 777h-51q-10 0 -10 10v72q0 10 10 10h51q10 0 10 -10v-72q0 -10 -10 -10zM218 -9q-74 0 -116.5 45t-42.5 131v503q0 10 10 10h61q10 0 10 -10v-513q0 -44 20.5 -67t57.5 -23t57.5 23
t20.5 67v513q0 10 10 10h61q10 0 10 -10v-503q0 -86 -42.5 -131t-116.5 -45z" />
    <glyph glyph-name="Yacute" unicode="&#xdd;" horiz-adv-x="375" 
d="M218 0h-61q-10 0 -10 10v271l-131 389q-3 10 7 10h63q9 0 12 -10l89 -285h3l89 285q3 10 11 10h62q10 0 7 -10l-131 -389v-271q0 -10 -10 -10zM199 763h-38q-5 0 -7 3t1 7l77 105q7 10 16 10h58q5 0 6.5 -3t-1.5 -7l-93 -105q-9 -10 -19 -10z" />
    <glyph glyph-name="Thorn" unicode="&#xde;" horiz-adv-x="407" 
d="M189 146h-42q-6 0 -6 -6v-130q0 -10 -10 -10h-61q-10 0 -10 10v660q0 10 10 10h61q10 0 10 -10v-110q0 -6 6 -6h42q93 0 138.5 -47.5t45.5 -156.5q0 -107 -46 -155.5t-138 -48.5zM189 221q56 0 79.5 28.5t23.5 100.5q0 71 -23.5 100t-79.5 29h-42q-6 0 -6 -6v-246
q0 -6 6 -6h42z" />
    <glyph glyph-name="germandbls" unicode="&#xdf;" horiz-adv-x="403" 
d="M227 -3h-14q-10 0 -10 10v52q0 10 10 10h7q39 0 50 33q7 19 7 116q0 94 -7 115q-11 33 -50 33h-7q-10 0 -10 10v53q0 10 10 10h5q39 0 49 29q5 18 5 64q0 84 -68 84q-69 0 -69 -84v-522q0 -10 -10 -10h-57q-10 0 -10 10v514q0 79 36 122t109 43q70 0 108.5 -39.5
t38.5 -112.5q0 -56 -11.5 -82t-44.5 -45v-2q38 -20 51 -59q9 -27 9 -131q0 -117 -11 -149q-22 -72 -116 -72z" />
    <glyph glyph-name="agrave" unicode="&#xe0;" horiz-adv-x="371" 
d="M308 0h-54q-10 0 -10 10v41h-1q-10 -28 -34 -44t-56 -16q-48 0 -80.5 34t-32.5 108q0 77 38 112.5t103 35.5h57q6 0 6 6v39q0 49 -16 70t-55 21q-40 0 -81 -32q-11 -7 -16 4l-19 39q-5 9 2 16q47 44 123 44q72 0 104 -36.5t32 -121.5v-320q0 -10 -10 -10zM174 57
q31 0 50.5 24t19.5 63v66q0 6 -6 6h-45q-79 0 -79 -81q0 -78 60 -78zM213 557h-40q-9 0 -17 10l-87 123q-6 10 5 10h59q10 0 16 -10l69 -123q5 -10 -5 -10z" />
    <glyph glyph-name="aacute" unicode="&#xe1;" horiz-adv-x="371" 
d="M308 0h-54q-10 0 -10 10v41h-1q-10 -28 -34 -44t-56 -16q-48 0 -80.5 34t-32.5 108q0 77 38 112.5t103 35.5h57q6 0 6 6v39q0 49 -16 70t-55 21q-40 0 -81 -32q-11 -7 -16 4l-19 39q-5 9 2 16q47 44 123 44q72 0 104 -36.5t32 -121.5v-320q0 -10 -10 -10zM174 57
q31 0 50.5 24t19.5 63v66q0 6 -6 6h-45q-79 0 -79 -81q0 -78 60 -78zM190 557h-40q-10 0 -5 10l69 123q6 10 16 10h59q11 0 5 -10l-87 -123q-7 -10 -17 -10z" />
    <glyph glyph-name="acircumflex" unicode="&#xe2;" horiz-adv-x="371" 
d="M308 0h-54q-10 0 -10 10v41h-1q-10 -28 -34 -44t-56 -16q-48 0 -80.5 34t-32.5 108q0 77 38 112.5t103 35.5h57q6 0 6 6v39q0 49 -16 70t-55 21q-40 0 -81 -32q-11 -7 -16 4l-19 39q-5 9 2 16q47 44 123 44q72 0 104 -36.5t32 -121.5v-320q0 -10 -10 -10zM174 57
q31 0 50.5 24t19.5 63v66q0 6 -6 6h-45q-79 0 -79 -81q0 -78 60 -78zM298 557h-42q-10 0 -17 10l-52 71h-2l-52 -71q-7 -10 -17 -10h-42q-12 0 -5 10l82 123q6 10 17 10h36q11 0 17 -10l82 -123q7 -10 -5 -10z" />
    <glyph glyph-name="atilde" unicode="&#xe3;" horiz-adv-x="371" 
d="M308 0h-54q-10 0 -10 10v41h-1q-10 -28 -34 -44t-56 -16q-48 0 -80.5 34t-32.5 108q0 77 38 112.5t103 35.5h57q6 0 6 6v39q0 49 -16 70t-55 21q-40 0 -81 -32q-11 -7 -16 4l-19 39q-5 9 2 16q47 44 123 44q72 0 104 -36.5t32 -121.5v-320q0 -10 -10 -10zM174 57
q31 0 50.5 24t19.5 63v66q0 6 -6 6h-45q-79 0 -79 -81q0 -78 60 -78zM228 581q-23 0 -49 19q-22 16 -35 16q-22 0 -44 -27q-4 -4 -8 -3t-4 6v47q0 9 9 18q22 24 48 24q19 0 48 -19q23 -17 36 -17q21 0 44 28q3 4 7 2.5t4 -6.5v-47q0 -9 -8 -17q-21 -24 -48 -24z" />
    <glyph glyph-name="adieresis" unicode="&#xe4;" horiz-adv-x="371" 
d="M308 0h-54q-10 0 -10 10v41h-1q-10 -28 -34 -44t-56 -16q-48 0 -80.5 34t-32.5 108q0 77 38 112.5t103 35.5h57q6 0 6 6v39q0 49 -16 70t-55 21q-40 0 -81 -32q-11 -7 -16 4l-19 39q-5 9 2 16q47 44 123 44q72 0 104 -36.5t32 -121.5v-320q0 -10 -10 -10zM174 57
q31 0 50.5 24t19.5 63v66q0 6 -6 6h-45q-79 0 -79 -81q0 -78 60 -78zM284 588h-51q-10 0 -10 10v72q0 10 10 10h51q10 0 10 -10v-72q0 -10 -10 -10zM139 588h-51q-10 0 -10 10v72q0 10 10 10h51q10 0 10 -10v-72q0 -10 -10 -10z" />
    <glyph glyph-name="aring" unicode="&#xe5;" horiz-adv-x="371" 
d="M308 0h-54q-10 0 -10 10v41h-1q-10 -28 -34 -44t-56 -16q-48 0 -80.5 34t-32.5 108q0 77 38 112.5t103 35.5h57q6 0 6 6v39q0 49 -16 70t-55 21q-40 0 -81 -32q-11 -7 -16 4l-19 39q-5 9 2 16q47 44 123 44q72 0 104 -36.5t32 -121.5v-320q0 -10 -10 -10zM174 57
q31 0 50.5 24t19.5 63v66q0 6 -6 6h-45q-79 0 -79 -81q0 -78 60 -78zM186 546q-37 0 -61.5 24.5t-24.5 61.5q0 38 24.5 62.5t61.5 24.5t61.5 -25t24.5 -62t-24.5 -61.5t-61.5 -24.5zM186 583q20 0 33.5 14t13.5 35t-13.5 35t-33.5 14t-33.5 -14t-13.5 -35t13.5 -35t33.5 -14
z" />
    <glyph glyph-name="ae" unicode="&#xe6;" horiz-adv-x="565" 
d="M173 417q-40 0 -81 -32q-11 -7 -16 4l-19 39q-5 9 2 16q47 44 123 44q73 0 103 -42h1q32 42 96 42q99 0 129 -89q11 -35 11 -173q0 -10 -10 -10h-188q-6 0 -6 -6q0 -83 7 -106q15 -41 56 -41q49 0 64 54q3 10 12 8l53 -11q9 -1 7 -12q-10 -52 -46 -81.5t-91 -29.5
q-81 0 -115 63h-1q-40 -63 -111 -63q-48 0 -80.5 34t-32.5 108q0 77 38 112.5t103 35.5h57q6 0 6 6v39q0 49 -16 70t-55 21zM439 281q6 0 6 6q0 68 -7 91q-13 40 -56 40q-44 0 -57 -40q-7 -23 -7 -91q0 -6 6 -6h115zM174 57q31 0 50.5 24t19.5 63v66q0 6 -6 6h-45
q-79 0 -79 -81q0 -78 60 -78z" />
    <glyph glyph-name="ccedilla" unicode="&#xe7;" horiz-adv-x="347" 
d="M94 -142l54 136q-69 13 -92 86q-11 34 -11 160q0 125 11 159q29 89 128 89q57 0 93 -33t41 -90q0 -9 -7 -11l-54 -10q-10 -3 -12 8q-10 64 -61 64q-43 0 -56 -39q-6 -18 -6 -137q0 -120 6 -138q13 -39 56 -39q51 0 61 64q2 11 12 8l54 -10q7 -2 7 -11q-5 -50 -33.5 -82
t-74.5 -39l-45 -135q-4 -10 -16 -10h-48q-10 0 -7 10z" />
    <glyph glyph-name="egrave" unicode="&#xe8;" horiz-adv-x="368" 
d="M184 -9q-99 0 -128 90q-11 35 -11 159q0 123 11 159q30 89 130 89q99 0 129 -89q11 -35 11 -173q0 -10 -10 -10h-188q-6 0 -6 -6q0 -83 7 -106q15 -41 56 -41q49 0 64 54q3 10 12 8l53 -11q9 -1 7 -12q-10 -52 -46 -81.5t-91 -29.5zM243 281q6 0 6 6q0 68 -7 91
q-13 40 -56 40q-44 0 -57 -40q-7 -23 -7 -91q0 -6 6 -6h115zM207 557h-40q-9 0 -17 10l-87 123q-6 10 5 10h59q10 0 16 -10l69 -123q5 -10 -5 -10z" />
    <glyph glyph-name="eacute" unicode="&#xe9;" horiz-adv-x="368" 
d="M201 557h-40q-10 0 -5 10l69 123q6 10 16 10h59q11 0 5 -10l-87 -123q-7 -10 -17 -10zM184 -9q-99 0 -128 90q-11 35 -11 159q0 123 11 159q30 89 130 89q99 0 129 -89q11 -35 11 -173q0 -10 -10 -10h-188q-6 0 -6 -6q0 -83 7 -106q15 -41 56 -41q49 0 64 54q3 10 12 8
l53 -11q9 -1 7 -12q-10 -52 -46 -81.5t-91 -29.5zM243 281q6 0 6 6q0 68 -7 91q-13 40 -56 40q-44 0 -57 -40q-7 -23 -7 -91q0 -6 6 -6h115z" />
    <glyph glyph-name="ecircumflex" unicode="&#xea;" horiz-adv-x="368" 
d="M297 557h-42q-10 0 -17 10l-52 71h-2l-52 -71q-7 -10 -17 -10h-42q-12 0 -5 10l82 123q6 10 17 10h36q11 0 17 -10l82 -123q7 -10 -5 -10zM184 -9q-99 0 -128 90q-11 35 -11 159q0 123 11 159q30 89 130 89q99 0 129 -89q11 -35 11 -173q0 -10 -10 -10h-188q-6 0 -6 -6
q0 -83 7 -106q15 -41 56 -41q49 0 64 54q3 10 12 8l53 -11q9 -1 7 -12q-10 -52 -46 -81.5t-91 -29.5zM243 281q6 0 6 6q0 68 -7 91q-13 40 -56 40q-44 0 -57 -40q-7 -23 -7 -91q0 -6 6 -6h115z" />
    <glyph glyph-name="edieresis" unicode="&#xeb;" horiz-adv-x="368" 
d="M283 588h-51q-10 0 -10 10v72q0 10 10 10h51q10 0 10 -10v-72q0 -10 -10 -10zM138 588h-51q-10 0 -10 10v72q0 10 10 10h51q10 0 10 -10v-72q0 -10 -10 -10zM184 -9q-99 0 -128 90q-11 35 -11 159q0 123 11 159q30 89 130 89q99 0 129 -89q11 -35 11 -173q0 -10 -10 -10
h-188q-6 0 -6 -6q0 -83 7 -106q15 -41 56 -41q49 0 64 54q3 10 12 8l53 -11q9 -1 7 -12q-10 -52 -46 -81.5t-91 -29.5zM243 281q6 0 6 6q0 68 -7 91q-13 40 -56 40q-44 0 -57 -40q-7 -23 -7 -91q0 -6 6 -6h115z" />
    <glyph glyph-name="igrave" unicode="&#xec;" horiz-adv-x="193" 
d="M125 0h-57q-10 0 -10 10v459q0 10 10 10h57q10 0 10 -10v-459q0 -10 -10 -10zM119 557h-40q-9 0 -17 10l-87 123q-6 10 5 10h59q10 0 16 -10l69 -123q5 -10 -5 -10z" />
    <glyph glyph-name="iacute" unicode="&#xed;" horiz-adv-x="193" 
d="M118 557h-40q-10 0 -5 10l69 123q6 10 16 10h59q11 0 5 -10l-87 -123q-7 -10 -17 -10zM125 0h-57q-10 0 -10 10v459q0 10 10 10h57q10 0 10 -10v-459q0 -10 -10 -10z" />
    <glyph glyph-name="icircumflex" unicode="&#xee;" horiz-adv-x="193" 
d="M209 557h-42q-10 0 -17 10l-52 71h-2l-52 -71q-7 -10 -17 -10h-42q-12 0 -5 10l82 123q6 10 17 10h36q11 0 17 -10l82 -123q7 -10 -5 -10zM125 0h-57q-10 0 -10 10v459q0 10 10 10h57q10 0 10 -10v-459q0 -10 -10 -10z" />
    <glyph glyph-name="idieresis" unicode="&#xef;" horiz-adv-x="193" 
d="M195 588h-51q-10 0 -10 10v72q0 10 10 10h51q10 0 10 -10v-72q0 -10 -10 -10zM50 588h-51q-10 0 -10 10v72q0 10 10 10h51q10 0 10 -10v-72q0 -10 -10 -10zM125 0h-57q-10 0 -10 10v459q0 10 10 10h57q10 0 10 -10v-459q0 -10 -10 -10z" />
    <glyph glyph-name="eth" unicode="&#xf0;" horiz-adv-x="374" 
d="M294 580l-52 -17l28 -53q37 -72 48 -122.5t11 -154.5q0 -118 -10 -150q-30 -92 -132 -92q-50 0 -84.5 24t-47.5 68q-11 36 -11 146q0 113 12 152q28 86 115 86q31 0 48 -11h1l-45 86l-68 -22q-8 -3 -11 6l-12 35q-3 9 7 12l58 19l-41 78q-5 10 5 10h59q8 0 14 -10l29 -57
l63 21q8 3 11 -6l12 -36q3 -9 -7 -12zM187 63q45 0 59 42q6 20 6 124q0 101 -7 125q-14 42 -58 42q-45 0 -59 -42q-6 -20 -6 -125q0 -104 6 -124q14 -42 59 -42z" />
    <glyph glyph-name="ntilde" unicode="&#xf1;" horiz-adv-x="393" 
d="M329 0h-57q-10 0 -10 10v319q0 87 -63 87q-64 0 -64 -87v-319q0 -10 -10 -10h-57q-10 0 -10 10v459q0 10 10 10h57q10 0 10 -10v-38h1q27 57 91 57q112 0 112 -147v-331q0 -10 -10 -10zM238 581q-23 0 -49 19q-22 16 -35 16q-22 0 -44 -27q-4 -4 -8 -3t-4 6v47q0 9 9 18
q22 24 48 24q20 0 48 -19q23 -17 36 -17q21 0 44 28q3 4 7 2.5t4 -6.5v-47q0 -9 -8 -17q-21 -24 -48 -24z" />
    <glyph glyph-name="ograve" unicode="&#xf2;" horiz-adv-x="374" 
d="M187 -9q-102 0 -132 92q-10 32 -10 157q0 124 10 157q30 91 132 91t132 -91q10 -32 10 -157t-10 -157q-30 -92 -132 -92zM187 63q45 0 59 42q6 20 6 135q0 114 -6 134q-14 42 -59 42t-59 -42q-6 -20 -6 -134q0 -115 6 -135q14 -42 59 -42zM214 557h-40q-10 0 -17 10
l-87 123q-6 10 5 10h59q10 0 16 -10l69 -123q5 -10 -5 -10z" />
    <glyph glyph-name="oacute" unicode="&#xf3;" horiz-adv-x="374" 
d="M200 557h-40q-10 0 -5 10l69 123q6 10 16 10h59q11 0 5 -10l-87 -123q-7 -10 -17 -10zM187 -9q-102 0 -132 92q-10 32 -10 157q0 124 10 157q30 91 132 91t132 -91q10 -32 10 -157t-10 -157q-30 -92 -132 -92zM187 63q45 0 59 42q6 20 6 135q0 114 -6 134q-14 42 -59 42
t-59 -42q-6 -20 -6 -134q0 -115 6 -135q14 -42 59 -42z" />
    <glyph glyph-name="ocircumflex" unicode="&#xf4;" horiz-adv-x="374" 
d="M299 557h-42q-10 0 -17 10l-52 71h-2l-52 -71q-7 -10 -17 -10h-42q-12 0 -5 10l82 123q6 10 17 10h36q11 0 17 -10l82 -123q7 -10 -5 -10zM187 -9q-102 0 -132 92q-10 32 -10 157q0 124 10 157q30 91 132 91t132 -91q10 -32 10 -157t-10 -157q-30 -92 -132 -92zM187 63
q45 0 59 42q6 20 6 135q0 114 -6 134q-14 42 -59 42t-59 -42q-6 -20 -6 -134q0 -115 6 -135q14 -42 59 -42z" />
    <glyph glyph-name="otilde" unicode="&#xf5;" horiz-adv-x="374" 
d="M187 -9q-102 0 -132 92q-10 32 -10 157q0 124 10 157q30 91 132 91t132 -91q10 -32 10 -157t-10 -157q-30 -92 -132 -92zM187 63q45 0 59 42q6 20 6 135q0 114 -6 134q-14 42 -59 42t-59 -42q-6 -20 -6 -134q0 -115 6 -135q14 -42 59 -42zM229 581q-23 0 -49 19
q-22 16 -35 16q-22 0 -44 -27q-4 -4 -8 -3t-4 6v47q0 9 9 18q22 24 48 24q20 0 48 -19q23 -17 36 -17q21 0 44 28q3 4 7 2.5t4 -6.5v-47q0 -9 -8 -17q-21 -24 -48 -24z" />
    <glyph glyph-name="odieresis" unicode="&#xf6;" horiz-adv-x="374" 
d="M285 588h-51q-10 0 -10 10v72q0 10 10 10h51q10 0 10 -10v-72q0 -10 -10 -10zM140 588h-51q-10 0 -10 10v72q0 10 10 10h51q10 0 10 -10v-72q0 -10 -10 -10zM187 -9q-102 0 -132 92q-10 32 -10 157q0 124 10 157q30 91 132 91t132 -91q10 -32 10 -157t-10 -157
q-30 -92 -132 -92zM187 63q45 0 59 42q6 20 6 135q0 114 -6 134q-14 42 -59 42t-59 -42q-6 -20 -6 -134q0 -115 6 -135q14 -42 59 -42z" />
    <glyph glyph-name="divide" unicode="&#xf7;" 
d="M193 373q-23 0 -37.5 14.5t-14.5 37.5t14.5 38t37.5 15t37.5 -15t14.5 -38t-14.5 -37.5t-37.5 -14.5zM338 241h-290q-10 0 -10 10v50q0 10 10 10h290q10 0 10 -10v-50q0 -10 -10 -10zM193 74q-23 0 -37.5 15t-14.5 38t14.5 37.5t37.5 14.5t37.5 -14.5t14.5 -37.5
t-14.5 -38t-37.5 -15z" />
    <glyph glyph-name="oslash" unicode="&#xf8;" horiz-adv-x="374" 
d="M187 -9q-50 0 -86 25l-17 -36q-5 -10 -13 -10h-18q-11 0 -8 10l30 63q-11 14 -20 40q-10 32 -10 157q0 124 10 157q30 91 132 91q50 0 86 -25l17 36q4 10 13 10h18q12 0 7 -10l-29 -63q13 -18 20 -39q10 -32 10 -157t-10 -157q-30 -92 -132 -92zM121 240q0 -85 1 -103
l115 255q-17 25 -50 25q-44 0 -60 -42q-6 -20 -6 -135zM187 62q45 0 59 43q7 20 7 135q0 82 -1 100l-115 -254q18 -24 50 -24z" />
    <glyph glyph-name="ugrave" unicode="&#xf9;" horiz-adv-x="390" 
d="M322 0h-57q-10 0 -10 10v38h-1q-25 -57 -90 -57q-110 0 -110 148v330q0 10 10 10h57q10 0 10 -10v-319q0 -87 62 -87t62 87v319q0 10 10 10h57q10 0 10 -10v-459q0 -10 -10 -10zM220 557h-40q-10 0 -17 10l-87 123q-6 10 5 10h59q10 0 16 -10l69 -123q5 -10 -5 -10z" />
    <glyph glyph-name="uacute" unicode="&#xfa;" horiz-adv-x="390" 
d="M207 557h-40q-10 0 -5 10l69 123q6 10 16 10h59q11 0 5 -10l-87 -123q-7 -10 -17 -10zM322 0h-57q-10 0 -10 10v38h-1q-25 -57 -90 -57q-110 0 -110 148v330q0 10 10 10h57q10 0 10 -10v-319q0 -87 62 -87t62 87v319q0 10 10 10h57q10 0 10 -10v-459q0 -10 -10 -10z" />
    <glyph glyph-name="ucircumflex" unicode="&#xfb;" horiz-adv-x="390" 
d="M307 557h-42q-10 0 -17 10l-52 71h-2l-52 -71q-7 -10 -17 -10h-42q-12 0 -5 10l82 123q6 10 17 10h36q11 0 17 -10l82 -123q7 -10 -5 -10zM322 0h-57q-10 0 -10 10v38h-1q-25 -57 -90 -57q-110 0 -110 148v330q0 10 10 10h57q10 0 10 -10v-319q0 -87 62 -87t62 87v319
q0 10 10 10h57q10 0 10 -10v-459q0 -10 -10 -10z" />
    <glyph glyph-name="udieresis" unicode="&#xfc;" horiz-adv-x="390" 
d="M293 588h-51q-10 0 -10 10v72q0 10 10 10h51q10 0 10 -10v-72q0 -10 -10 -10zM148 588h-51q-10 0 -10 10v72q0 10 10 10h51q10 0 10 -10v-72q0 -10 -10 -10zM322 0h-57q-10 0 -10 10v38h-1q-25 -57 -90 -57q-110 0 -110 148v330q0 10 10 10h57q10 0 10 -10v-319
q0 -87 62 -87t62 87v319q0 10 10 10h57q10 0 10 -10v-459q0 -10 -10 -10z" />
    <glyph glyph-name="yacute" unicode="&#xfd;" horiz-adv-x="355" 
d="M73 -180h-11q-10 0 -10 10v53q0 10 10 10l12 1q22 1 33.5 12.5t18.5 42.5l17 66l-117 454q-2 10 8 10h60q8 0 10 -10l74 -327h2l74 327q2 10 11 10h58q10 0 7 -10l-131 -517q-20 -79 -46.5 -105.5t-79.5 -26.5zM195 557h-40q-10 0 -5 10l69 123q6 10 16 10h59q11 0 5 -10
l-87 -123q-7 -10 -17 -10z" />
    <glyph glyph-name="thorn" unicode="&#xfe;" horiz-adv-x="389" 
d="M125 -180h-57q-10 0 -10 10v840q0 10 10 10h57q10 0 10 -10v-240h1q23 58 91 58q79 0 104 -78q12 -36 12 -170t-12 -171q-25 -78 -104 -78q-67 0 -91 58h-1v-219q0 -10 -10 -10zM201 63q44 0 58 42q7 24 7 135q0 110 -7 134q-14 42 -58 42t-59 -42q-7 -24 -7 -134
q0 -111 7 -135q15 -42 59 -42z" />
    <glyph glyph-name="ydieresis" unicode="&#xff;" horiz-adv-x="355" 
d="M73 -180h-11q-10 0 -10 10v53q0 10 10 10l12 1q22 1 33.5 12.5t18.5 42.5l17 66l-117 454q-2 10 8 10h60q8 0 10 -10l74 -327h2l74 327q2 10 11 10h58q10 0 7 -10l-131 -517q-20 -79 -46.5 -105.5t-79.5 -26.5zM276 588h-51q-10 0 -10 10v72q0 10 10 10h51q10 0 10 -10
v-72q0 -10 -10 -10zM131 588h-51q-10 0 -10 10v72q0 10 10 10h51q10 0 10 -10v-72q0 -10 -10 -10z" />
    <glyph glyph-name="Amacron" unicode="&#x100;" horiz-adv-x="406" 
d="M18 10l145 660q3 10 11 10h60q9 0 11 -10l143 -660q2 -10 -9 -10h-60q-9 0 -11 10l-30 149h-151l-30 -149q-2 -10 -10 -10h-60q-11 0 -9 10zM141 229h123l-58 296h-3zM299 790h-194q-10 0 -10 10v43q0 10 10 10h194q10 0 10 -10v-43q0 -10 -10 -10z" />
    <glyph glyph-name="amacron" unicode="&#x101;" horiz-adv-x="371" 
d="M308 0h-54q-10 0 -10 10v41h-1q-10 -28 -34 -44t-56 -16q-48 0 -80.5 34t-32.5 108q0 77 38 112.5t103 35.5h57q6 0 6 6v39q0 49 -16 70t-55 21q-40 0 -81 -32q-11 -7 -16 4l-19 39q-5 9 2 16q47 44 123 44q72 0 104 -36.5t32 -121.5v-320q0 -10 -10 -10zM174 57
q31 0 50.5 24t19.5 63v66q0 6 -6 6h-45q-79 0 -79 -81q0 -78 60 -78zM283 603h-194q-10 0 -10 10v43q0 10 10 10h194q10 0 10 -10v-43q0 -10 -10 -10z" />
    <glyph glyph-name="Abreve" unicode="&#x102;" horiz-adv-x="406" 
d="M18 10l145 660q3 10 11 10h60q9 0 11 -10l143 -660q2 -10 -9 -10h-60q-9 0 -11 10l-30 149h-151l-30 -149q-2 -10 -10 -10h-60q-11 0 -9 10zM141 229h123l-58 296h-3zM202 753q-51 0 -80 30.5t-34 80.5q0 10 10 10h32q8 0 10 -10q16 -55 62 -55t61 55q3 10 11 10h32
q10 0 10 -10q-5 -50 -34 -80.5t-80 -30.5z" />
    <glyph glyph-name="abreve" unicode="&#x103;" horiz-adv-x="371" 
d="M308 0h-54q-10 0 -10 10v41h-1q-10 -28 -34 -44t-56 -16q-48 0 -80.5 34t-32.5 108q0 77 38 112.5t103 35.5h57q6 0 6 6v39q0 49 -16 70t-55 21q-40 0 -81 -32q-11 -7 -16 4l-19 39q-5 9 2 16q47 44 123 44q72 0 104 -36.5t32 -121.5v-320q0 -10 -10 -10zM174 57
q31 0 50.5 24t19.5 63v66q0 6 -6 6h-45q-79 0 -79 -81q0 -78 60 -78zM186 563q-51 0 -80 30.5t-34 80.5q0 10 10 10h32q8 0 10 -10q16 -54 62 -54t61 54q3 10 11 10h32q10 0 10 -10q-5 -50 -34 -80.5t-80 -30.5z" />
    <glyph glyph-name="Aogonek" unicode="&#x104;" horiz-adv-x="406" 
d="M245 670l143 -660q2 -6 -5 -10q-68 -57 -68 -96q0 -26 22 -26q11 0 20 6q8 5 13 -3l14 -34q5 -8 -4 -13q-22 -15 -53 -15q-34 0 -55 19t-21 54q0 51 62 110q-4 1 -5 8l-30 149h-151l-30 -149q-2 -10 -10 -10h-60q-11 0 -9 10l145 660q3 10 11 10h60q9 0 11 -10zM202 525
l-61 -296h123l-59 296h-3z" />
    <glyph glyph-name="aogonek" unicode="&#x105;" horiz-adv-x="371" 
d="M173 417q-40 0 -81 -32q-11 -7 -16 4l-19 39q-5 9 2 16q47 44 123 44q72 0 104 -36.5t32 -121.5v-320q0 -7 -5 -11q-68 -60 -68 -95q0 -26 22 -26q11 0 20 6q10 6 13 -3l14 -34q5 -8 -4 -13q-22 -15 -53 -15q-34 0 -55 19t-21 54q0 52 63 113v46h-1q-10 -28 -34 -44
t-56 -16q-48 0 -80.5 34t-32.5 108q0 77 38 112.5t103 35.5h57q6 0 6 6v39q0 49 -16 70t-55 21zM174 57q31 0 50.5 24t19.5 63v66q0 6 -6 6h-45q-79 0 -79 -81q0 -78 60 -78z" />
    <glyph glyph-name="Cacute" unicode="&#x106;" horiz-adv-x="381" 
d="M61 91q-12 37 -12 249t12 249q33 100 146 100q139 0 152 -152q1 -10 -8 -12l-57 -11q-11 -2 -11 8q-7 91 -75 91q-53 0 -68 -47q-9 -28 -9 -226t9 -226q15 -47 68 -47q68 0 75 91q0 10 11 8l57 -11q9 -2 8 -12q-13 -152 -152 -152q-113 0 -146 100zM209 763h-38
q-5 0 -7 3t1 7l77 105q7 10 16 10h58q5 0 6.5 -3t-1.5 -7l-93 -105q-9 -10 -19 -10z" />
    <glyph glyph-name="cacute" unicode="&#x107;" horiz-adv-x="347" 
d="M200 557h-40q-10 0 -5 10l69 123q6 10 16 10h59q11 0 5 -10l-87 -123q-7 -10 -17 -10zM184 -9q-99 0 -128 89q-11 34 -11 160q0 125 11 159q29 89 128 89q57 0 93 -33t41 -90q0 -9 -7 -11l-54 -10q-10 -3 -12 8q-10 64 -61 64q-43 0 -56 -39q-6 -18 -6 -137
q0 -120 6 -138q13 -39 56 -39q51 0 61 64q2 11 12 8l54 -10q7 -2 7 -11q-5 -57 -41 -90t-93 -33z" />
    <glyph glyph-name="Ccircumflex" unicode="&#x108;" horiz-adv-x="381" 
d="M61 91q-12 37 -12 249t12 249q33 100 146 100q139 0 152 -152q1 -10 -8 -12l-57 -11q-11 -2 -11 8q-7 91 -75 91q-53 0 -68 -47q-9 -28 -9 -226t9 -226q15 -47 68 -47q68 0 75 91q0 10 11 8l57 -11q9 -2 8 -12q-13 -152 -152 -152q-113 0 -146 100zM317 752h-42
q-10 0 -17 10l-52 71h-2l-52 -71q-7 -10 -17 -10h-42q-12 0 -5 10l82 123q6 10 17 10h36q11 0 17 -10l82 -123q7 -10 -5 -10z" />
    <glyph glyph-name="ccircumflex" unicode="&#x109;" horiz-adv-x="347" 
d="M296 557h-42q-10 0 -17 10l-52 71h-2l-52 -71q-7 -10 -17 -10h-42q-12 0 -5 10l82 123q6 10 17 10h36q11 0 17 -10l82 -123q7 -10 -5 -10zM184 -9q-99 0 -128 89q-11 34 -11 160q0 125 11 159q29 89 128 89q57 0 93 -33t41 -90q0 -9 -7 -11l-54 -10q-10 -3 -12 8
q-10 64 -61 64q-43 0 -56 -39q-6 -18 -6 -137q0 -120 6 -138q13 -39 56 -39q51 0 61 64q2 11 12 8l54 -10q7 -2 7 -11q-5 -57 -41 -90t-93 -33z" />
    <glyph glyph-name="Cdotaccent" unicode="&#x10a;" horiz-adv-x="381" 
d="M236 777h-63q-10 0 -10 10v72q0 10 10 10h63q10 0 10 -10v-72q0 -10 -10 -10zM61 91q-12 37 -12 249t12 249q33 100 146 100q139 0 152 -152q1 -10 -8 -12l-57 -11q-11 -2 -11 8q-7 91 -75 91q-53 0 -68 -47q-9 -28 -9 -226t9 -226q15 -47 68 -47q68 0 75 91q0 10 11 8
l57 -11q9 -2 8 -12q-13 -152 -152 -152q-113 0 -146 100z" />
    <glyph glyph-name="cdotaccent" unicode="&#x10b;" horiz-adv-x="347" 
d="M184 -9q-99 0 -128 89q-11 34 -11 160q0 125 11 159q29 89 128 89q57 0 93 -33t41 -90q0 -9 -7 -11l-54 -10q-10 -3 -12 8q-10 64 -61 64q-43 0 -56 -39q-6 -18 -6 -137q0 -120 6 -138q13 -39 56 -39q51 0 61 64q2 11 12 8l54 -10q7 -2 7 -11q-5 -57 -41 -90t-93 -33z
M206 588h-63q-10 0 -10 10v72q0 10 10 10h63q10 0 10 -10v-72q0 -10 -10 -10z" />
    <glyph glyph-name="Ccaron" unicode="&#x10c;" horiz-adv-x="381" 
d="M61 91q-12 37 -12 249t12 249q33 100 146 100q139 0 152 -152q1 -10 -8 -12l-57 -11q-11 -2 -11 8q-7 91 -75 91q-53 0 -68 -47q-9 -28 -9 -226t9 -226q15 -47 68 -47q68 0 75 91q0 10 11 8l57 -11q9 -2 8 -12q-13 -152 -152 -152q-113 0 -146 100zM223 750h-36
q-11 0 -17 9l-82 124q-3 4 -1.5 7t6.5 3h42q10 0 17 -10l52 -72h2l52 72q7 10 17 10h42q5 0 6.5 -3t-1.5 -7l-82 -124q-6 -9 -17 -9z" />
    <glyph glyph-name="ccaron" unicode="&#x10d;" horiz-adv-x="347" 
d="M202 556h-36q-11 0 -17 10l-82 123q-7 10 5 10h42q10 0 17 -10l52 -71h2l52 71q7 10 17 10h42q12 0 5 -10l-82 -123q-6 -10 -17 -10zM184 -9q-99 0 -128 89q-11 34 -11 160q0 125 11 159q29 89 128 89q57 0 93 -33t41 -90q0 -9 -7 -11l-54 -10q-10 -3 -12 8
q-10 64 -61 64q-43 0 -56 -39q-6 -18 -6 -137q0 -120 6 -138q13 -39 56 -39q51 0 61 64q2 11 12 8l54 -10q7 -2 7 -11q-5 -57 -41 -90t-93 -33z" />
    <glyph glyph-name="Dcaron" unicode="&#x10e;" horiz-adv-x="433" 
d="M216 750h-36q-11 0 -17 9l-82 124q-3 4 -1.5 7t6.5 3h42q10 0 17 -10l52 -72h2l52 72q7 10 17 10h42q5 0 6.5 -3t-1.5 -7l-82 -124q-6 -9 -17 -9zM60 10v660q0 10 10 10h141q124 0 157 -106q16 -49 16 -234t-16 -234q-33 -106 -157 -106h-141q-10 0 -10 10zM141 81
q0 -6 6 -6h56q66 0 86 58q13 40 13 207t-13 207q-20 58 -86 58h-56q-6 0 -6 -6v-518z" />
    <glyph glyph-name="dcaron" unicode="&#x10f;" horiz-adv-x="389" 
d="M369 524q-9 0 -9 9v137q0 10 10 10h52q10 0 10 -10v-50q0 -13 -6 -23l-45 -66q-4 -7 -12 -7zM321 0h-57q-10 0 -10 10v39h-1q-24 -58 -91 -58q-79 0 -104 78q-12 37 -12 171t12 170q25 78 104 78q68 0 91 -58h1v240q0 10 10 10h57q10 0 10 -10v-660q0 -10 -10 -10z
M189 63q43 0 58 42q7 24 7 135q0 110 -7 134q-15 42 -58 42q-45 0 -59 -42q-7 -24 -7 -134q0 -111 7 -135q14 -42 59 -42z" />
    <glyph glyph-name="Dcroat" unicode="&#x110;" horiz-adv-x="433" 
d="M211 0h-141q-10 0 -10 10v296q0 6 -6 6h-29q-10 0 -10 10v44q0 10 10 10h29q6 0 6 6v288q0 10 10 10h141q124 0 157 -106q16 -49 16 -234t-16 -234q-33 -106 -157 -106zM203 75q66 0 86 58q13 40 13 207t-13 207q-20 58 -86 58h-56q-6 0 -6 -6v-217q0 -6 6 -6h65
q10 0 10 -10v-44q0 -10 -10 -10h-65q-6 0 -6 -6v-225q0 -6 6 -6h56z" />
    <glyph glyph-name="dcroat" unicode="&#x111;" horiz-adv-x="389" 
d="M321 0h-57q-10 0 -10 10v39h-1q-24 -58 -91 -58q-79 0 -104 78q-12 37 -12 171t12 170q25 78 104 78q68 0 91 -58h1v114q0 6 -6 6h-79q-10 0 -10 10v41q0 10 10 10h79q6 0 6 6v53q0 10 10 10h57q10 0 10 -10v-53q0 -6 6 -6h24q10 0 10 -10v-41q0 -10 -10 -10h-24
q-6 0 -6 -6v-534q0 -10 -10 -10zM189 63q43 0 58 42q7 24 7 135q0 110 -7 134q-15 42 -58 42q-45 0 -59 -42q-7 -24 -7 -134q0 -111 7 -135q14 -42 59 -42z" />
    <glyph glyph-name="Emacron" unicode="&#x112;" horiz-adv-x="367" 
d="M291 790h-194q-10 0 -10 10v43q0 10 10 10h194q10 0 10 -10v-43q0 -10 -10 -10zM60 10v660q0 10 10 10h257q10 0 10 -10v-55q0 -10 -10 -10h-180q-6 0 -6 -6v-212q0 -6 6 -6h156q10 0 10 -10v-55q0 -10 -10 -10h-156q-6 0 -6 -6v-219q0 -6 6 -6h180q10 0 10 -10v-55
q0 -10 -10 -10h-257q-10 0 -10 10z" />
    <glyph glyph-name="emacron" unicode="&#x113;" horiz-adv-x="368" 
d="M184 -9q-99 0 -128 90q-11 35 -11 159q0 123 11 159q30 89 130 89q99 0 129 -89q11 -35 11 -173q0 -10 -10 -10h-188q-6 0 -6 -6q0 -83 7 -106q15 -41 56 -41q49 0 64 54q3 10 12 8l53 -11q9 -1 7 -12q-10 -52 -46 -81.5t-91 -29.5zM243 281q6 0 6 6q0 68 -7 91
q-13 40 -56 40q-44 0 -57 -40q-7 -23 -7 -91q0 -6 6 -6h115zM282 603h-194q-10 0 -10 10v43q0 10 10 10h194q10 0 10 -10v-43q0 -10 -10 -10z" />
    <glyph glyph-name="Ebreve" unicode="&#x114;" horiz-adv-x="367" 
d="M194 753q-51 0 -80 30.5t-34 80.5q0 10 10 10h32q8 0 10 -10q16 -55 62 -55t61 55q3 10 11 10h32q10 0 10 -10q-5 -50 -34 -80.5t-80 -30.5zM60 10v660q0 10 10 10h257q10 0 10 -10v-55q0 -10 -10 -10h-180q-6 0 -6 -6v-212q0 -6 6 -6h156q10 0 10 -10v-55q0 -10 -10 -10
h-156q-6 0 -6 -6v-219q0 -6 6 -6h180q10 0 10 -10v-55q0 -10 -10 -10h-257q-10 0 -10 10z" />
    <glyph glyph-name="ebreve" unicode="&#x115;" horiz-adv-x="368" 
d="M184 -9q-99 0 -128 90q-11 35 -11 159q0 123 11 159q30 89 130 89q99 0 129 -89q11 -35 11 -173q0 -10 -10 -10h-188q-6 0 -6 -6q0 -83 7 -106q15 -41 56 -41q49 0 64 54q3 10 12 8l53 -11q9 -1 7 -12q-10 -52 -46 -81.5t-91 -29.5zM243 281q6 0 6 6q0 68 -7 91
q-13 40 -56 40q-44 0 -57 -40q-7 -23 -7 -91q0 -6 6 -6h115zM185 563q-51 0 -80 30.5t-34 80.5q0 10 10 10h32q8 0 10 -10q16 -54 62 -54t61 54q3 10 11 10h32q10 0 10 -10q-5 -50 -34 -80.5t-80 -30.5z" />
    <glyph glyph-name="Edotaccent" unicode="&#x116;" horiz-adv-x="367" 
d="M222 777h-63q-10 0 -10 10v72q0 10 10 10h63q10 0 10 -10v-72q0 -10 -10 -10zM60 10v660q0 10 10 10h257q10 0 10 -10v-55q0 -10 -10 -10h-180q-6 0 -6 -6v-212q0 -6 6 -6h156q10 0 10 -10v-55q0 -10 -10 -10h-156q-6 0 -6 -6v-219q0 -6 6 -6h180q10 0 10 -10v-55
q0 -10 -10 -10h-257q-10 0 -10 10z" />
    <glyph glyph-name="edotaccent" unicode="&#x117;" horiz-adv-x="368" 
d="M184 -9q-99 0 -128 90q-11 35 -11 159q0 123 11 159q30 89 130 89q99 0 129 -89q11 -35 11 -173q0 -10 -10 -10h-188q-6 0 -6 -6q0 -83 7 -106q15 -41 56 -41q49 0 64 54q3 10 12 8l53 -11q9 -1 7 -12q-10 -52 -46 -81.5t-91 -29.5zM243 281q6 0 6 6q0 68 -7 91
q-13 40 -56 40q-44 0 -57 -40q-7 -23 -7 -91q0 -6 6 -6h115zM216 588h-63q-10 0 -10 10v72q0 10 10 10h63q10 0 10 -10v-72q0 -10 -10 -10z" />
    <glyph glyph-name="Eogonek" unicode="&#x118;" horiz-adv-x="367" 
d="M260 -181q-34 0 -55 19t-21 54q0 49 59 108h-173q-10 0 -10 10v660q0 10 10 10h257q10 0 10 -10v-55q0 -10 -10 -10h-180q-6 0 -6 -6v-212q0 -6 6 -6h156q10 0 10 -10v-55q0 -10 -10 -10h-156q-6 0 -6 -6v-219q0 -6 6 -6h180q10 0 10 -10v-55q0 -10 -10 -10h-11
q-68 -57 -68 -96q0 -26 22 -26q11 0 20 6q10 6 13 -3l15 -34q3 -8 -5 -13q-22 -15 -53 -15z" />
    <glyph glyph-name="eogonek" unicode="&#x119;" horiz-adv-x="368" 
d="M184 -9q-99 0 -128 90q-11 35 -11 159q0 123 11 159q30 89 130 89q99 0 129 -89q11 -35 11 -173q0 -10 -10 -10h-188q-6 0 -6 -6q0 -83 7 -106q15 -41 56 -41q49 0 64 54q3 10 12 8l53 -11q9 -1 7 -12q-9 -40 -34 -70q-60 -95 -60 -128q0 -26 21 -26q12 0 21 6q9 5 12 -3
l15 -34q3 -8 -5 -13q-23 -15 -53 -15q-35 0 -55.5 19t-20.5 54q0 46 42 101q-12 -2 -20 -2zM243 281q6 0 6 6q0 68 -7 91q-13 40 -56 40q-44 0 -57 -40q-7 -23 -7 -91q0 -6 6 -6h115z" />
    <glyph glyph-name="Ecaron" unicode="&#x11a;" horiz-adv-x="367" 
d="M214 750h-36q-11 0 -17 9l-82 124q-3 4 -1.5 7t6.5 3h42q10 0 17 -10l52 -72h2l52 72q7 10 17 10h42q5 0 6.5 -3t-1.5 -7l-82 -124q-6 -9 -17 -9zM60 10v660q0 10 10 10h257q10 0 10 -10v-55q0 -10 -10 -10h-180q-6 0 -6 -6v-212q0 -6 6 -6h156q10 0 10 -10v-55
q0 -10 -10 -10h-156q-6 0 -6 -6v-219q0 -6 6 -6h180q10 0 10 -10v-55q0 -10 -10 -10h-257q-10 0 -10 10z" />
    <glyph glyph-name="ecaron" unicode="&#x11b;" horiz-adv-x="368" 
d="M203 556h-36q-11 0 -17 10l-82 123q-7 10 5 10h42q10 0 17 -10l52 -71h2l52 71q7 10 17 10h42q12 0 5 -10l-82 -123q-6 -10 -17 -10zM184 -9q-99 0 -128 90q-11 35 -11 159q0 123 11 159q30 89 130 89q99 0 129 -89q11 -35 11 -173q0 -10 -10 -10h-188q-6 0 -6 -6
q0 -83 7 -106q15 -41 56 -41q49 0 64 54q3 10 12 8l53 -11q9 -1 7 -12q-10 -52 -46 -81.5t-91 -29.5zM243 281q6 0 6 6q0 68 -7 91q-13 40 -56 40q-44 0 -57 -40q-7 -23 -7 -91q0 -6 6 -6h115z" />
    <glyph glyph-name="Gcircumflex" unicode="&#x11c;" horiz-adv-x="417" 
d="M62 92q-8 24 -10.5 67t-2.5 181t2.5 181t10.5 67q33 101 149 101q141 0 158 -148q2 -11 -7 -12l-56 -11q-10 -1 -12 8q-11 87 -82 87q-57 0 -72 -48q-9 -26 -9 -225t9 -225q15 -48 73 -48t73 48q9 29 9 174q0 6 -6 6h-67q-10 0 -10 10v53q0 10 10 10h141q10 0 10 -10v-29
q0 -130 -2.5 -171.5t-10.5 -65.5q-31 -101 -149 -101q-116 0 -149 101zM319 752h-42q-10 0 -17 10l-52 71h-2l-52 -71q-7 -10 -17 -10h-42q-12 0 -5 10l82 123q6 10 17 10h36q11 0 17 -10l82 -123q7 -10 -5 -10z" />
    <glyph glyph-name="gcircumflex" unicode="&#x11d;" horiz-adv-x="387" 
d="M306 557h-42q-10 0 -17 10l-52 71h-2l-52 -71q-7 -10 -17 -10h-42q-12 0 -5 10l82 123q6 10 17 10h36q11 0 17 -10l82 -123q7 -10 -5 -10zM186 -189q-49 0 -84.5 25t-46.5 65q-2 9 5 12l53 19q9 3 13 -5q17 -43 62 -43q64 0 64 73v103h-1q-21 -58 -89 -58q-80 0 -104 78
q-12 39 -12 164q0 126 12 164q25 80 104 80q68 0 89 -59h1v40q0 10 10 10h57q10 0 10 -10v-504q0 -74 -38 -114t-105 -40zM188 73q43 0 57 42q7 21 7 129q0 109 -7 130q-15 42 -57 42q-44 0 -58 -42q-7 -26 -7 -130q0 -103 7 -129q14 -42 58 -42z" />
    <glyph glyph-name="Gbreve" unicode="&#x11e;" horiz-adv-x="417" 
d="M207 753q-51 0 -80 30.5t-34 80.5q0 10 10 10h32q8 0 10 -10q16 -55 62 -55t61 55q3 10 11 10h32q10 0 10 -10q-5 -50 -34 -80.5t-80 -30.5zM62 92q-8 24 -10.5 67t-2.5 181t2.5 181t10.5 67q33 101 149 101q141 0 158 -148q2 -11 -7 -12l-56 -11q-10 -1 -12 8
q-11 87 -82 87q-57 0 -72 -48q-9 -26 -9 -225t9 -225q15 -48 73 -48t73 48q9 29 9 174q0 6 -6 6h-67q-10 0 -10 10v53q0 10 10 10h141q10 0 10 -10v-29q0 -130 -2.5 -171.5t-10.5 -65.5q-31 -101 -149 -101q-116 0 -149 101z" />
    <glyph glyph-name="gbreve" unicode="&#x11f;" horiz-adv-x="387" 
d="M186 -189q-49 0 -84.5 25t-46.5 65q-2 9 5 12l53 19q9 3 13 -5q17 -43 62 -43q64 0 64 73v103h-1q-21 -58 -89 -58q-80 0 -104 78q-12 39 -12 164q0 126 12 164q25 80 104 80q68 0 89 -59h1v40q0 10 10 10h57q10 0 10 -10v-504q0 -74 -38 -114t-105 -40zM188 73
q43 0 57 42q7 21 7 129q0 109 -7 130q-15 42 -57 42q-44 0 -58 -42q-7 -26 -7 -130q0 -103 7 -129q14 -42 58 -42zM194 563q-51 0 -80 30.5t-34 80.5q0 10 10 10h32q8 0 10 -10q16 -54 62 -54t61 54q3 10 11 10h32q10 0 10 -10q-5 -50 -34 -80.5t-80 -30.5z" />
    <glyph glyph-name="Gdotaccent" unicode="&#x120;" horiz-adv-x="417" 
d="M238 777h-63q-10 0 -10 10v72q0 10 10 10h63q10 0 10 -10v-72q0 -10 -10 -10zM62 92q-8 24 -10.5 67t-2.5 181t2.5 181t10.5 67q33 101 149 101q141 0 158 -148q2 -11 -7 -12l-56 -11q-10 -1 -12 8q-11 87 -82 87q-57 0 -72 -48q-9 -26 -9 -225t9 -225q15 -48 73 -48
t73 48q9 29 9 174q0 6 -6 6h-67q-10 0 -10 10v53q0 10 10 10h141q10 0 10 -10v-29q0 -130 -2.5 -171.5t-10.5 -65.5q-31 -101 -149 -101q-116 0 -149 101z" />
    <glyph glyph-name="gdotaccent" unicode="&#x121;" horiz-adv-x="387" 
d="M186 -189q-49 0 -84.5 25t-46.5 65q-2 9 5 12l53 19q9 3 13 -5q17 -43 62 -43q64 0 64 73v103h-1q-21 -58 -89 -58q-80 0 -104 78q-12 39 -12 164q0 126 12 164q25 80 104 80q68 0 89 -59h1v40q0 10 10 10h57q10 0 10 -10v-504q0 -74 -38 -114t-105 -40zM188 73
q43 0 57 42q7 21 7 129q0 109 -7 130q-15 42 -57 42q-44 0 -58 -42q-7 -26 -7 -130q0 -103 7 -129q14 -42 58 -42zM226 588h-63q-10 0 -10 10v72q0 10 10 10h63q10 0 10 -10v-72q0 -10 -10 -10z" />
    <glyph glyph-name="Gcommaaccent" unicode="&#x122;" horiz-adv-x="417" 
d="M179 -208q-8 0 -8 10v135q0 10 10 10h53q10 0 10 -10v-49q0 -12 -7 -22l-46 -66q-4 -8 -12 -8zM62 92q-8 24 -10.5 67t-2.5 181t2.5 181t10.5 67q33 101 149 101q141 0 158 -148q2 -11 -7 -12l-56 -11q-10 -1 -12 8q-11 87 -82 87q-57 0 -72 -48q-9 -26 -9 -225t9 -225
q15 -48 73 -48t73 48q9 29 9 174q0 6 -6 6h-67q-10 0 -10 10v53q0 10 10 10h141q10 0 10 -10v-29q0 -130 -2.5 -171.5t-10.5 -65.5q-31 -101 -149 -101q-116 0 -149 101z" />
    <glyph glyph-name="gcommaaccent" unicode="&#x123;" horiz-adv-x="387" 
d="M221 572h-53q-10 0 -10 10v49q0 14 6 22l46 66q5 8 12 8q9 0 9 -10v-135q0 -10 -10 -10zM186 -189q-49 0 -84.5 25t-46.5 65q-2 9 5 12l53 19q9 3 13 -5q17 -43 62 -43q64 0 64 73v103h-1q-21 -58 -89 -58q-80 0 -104 78q-12 39 -12 164q0 126 12 164q25 80 104 80
q68 0 89 -59h1v40q0 10 10 10h57q10 0 10 -10v-504q0 -74 -38 -114t-105 -40zM188 73q43 0 57 42q7 21 7 129q0 109 -7 130q-15 42 -57 42q-44 0 -58 -42q-7 -26 -7 -130q0 -103 7 -129q14 -42 58 -42z" />
    <glyph glyph-name="Hcircumflex" unicode="&#x124;" horiz-adv-x="440" 
d="M60 10v660q0 10 10 10h61q10 0 10 -10v-278q0 -6 6 -6h146q6 0 6 6v278q0 10 10 10h61q10 0 10 -10v-660q0 -10 -10 -10h-61q-10 0 -10 10v295q0 6 -6 6h-146q-6 0 -6 -6v-295q0 -10 -10 -10h-61q-10 0 -10 10zM331 752h-42q-10 0 -17 10l-52 71h-2l-52 -71
q-7 -10 -17 -10h-42q-12 0 -5 10l82 123q6 10 17 10h36q11 0 17 -10l82 -123q7 -10 -5 -10z" />
    <glyph glyph-name="hcircumflex" unicode="&#x125;" horiz-adv-x="393" 
d="M329 0h-57q-10 0 -10 10v319q0 87 -63 87q-64 0 -64 -87v-319q0 -10 -10 -10h-57q-10 0 -10 10v660q0 10 10 10h57q10 0 10 -10v-239h1q27 57 91 57q112 0 112 -147v-331q0 -10 -10 -10zM311 752h-42q-10 0 -17 10l-52 71h-2l-52 -71q-7 -10 -17 -10h-42q-12 0 -5 10
l82 123q6 10 17 10h36q11 0 17 -10l82 -123q7 -10 -5 -10z" />
    <glyph glyph-name="Hbar" unicode="&#x126;" horiz-adv-x="440" 
d="M370 0h-61q-10 0 -10 10v295q0 6 -6 6h-146q-6 0 -6 -6v-295q0 -10 -10 -10h-61q-10 0 -10 10v476q0 6 -6 6h-22q-10 0 -10 10v44q0 10 10 10h22q6 0 6 6v108q0 10 10 10h61q10 0 10 -10v-108q0 -6 6 -6h146q6 0 6 6v108q0 10 10 10h61q10 0 10 -10v-108q0 -6 6 -6h22
q10 0 10 -10v-44q0 -10 -10 -10h-22q-6 0 -6 -6v-476q0 -10 -10 -10zM293 386q6 0 6 6v94q0 6 -6 6h-146q-6 0 -6 -6v-94q0 -6 6 -6h146z" />
    <glyph glyph-name="hbar" unicode="&#x127;" horiz-adv-x="393" 
d="M329 0h-57q-10 0 -10 10v319q0 87 -63 87q-64 0 -64 -87v-319q0 -10 -10 -10h-57q-10 0 -10 10v534q0 6 -6 6h-23q-10 0 -10 10v41q0 10 10 10h23q6 0 6 6v53q0 10 10 10h57q10 0 10 -10v-53q0 -6 6 -6h80q10 0 10 -10v-41q0 -10 -10 -10h-80q-6 0 -6 -6v-113h1
q27 57 91 57q112 0 112 -147v-331q0 -10 -10 -10z" />
    <glyph glyph-name="Itilde" unicode="&#x128;" horiz-adv-x="201" 
d="M60 10v660q0 10 10 10h61q10 0 10 -10v-660q0 -10 -10 -10h-61q-10 0 -10 10zM143 773q-23 0 -49 19q-22 16 -35 16q-22 0 -44 -27q-4 -4 -8 -3t-4 6v47q0 9 9 18q22 24 48 24q20 0 48 -19q23 -17 36 -17q21 0 44 28q3 4 7 2.5t4 -6.5v-47q0 -9 -8 -17q-21 -24 -48 -24z
" />
    <glyph glyph-name="itilde" unicode="&#x129;" horiz-adv-x="193" 
d="M125 0h-57q-10 0 -10 10v459q0 10 10 10h57q10 0 10 -10v-459q0 -10 -10 -10zM138 581q-23 0 -49 19q-22 16 -35 16q-22 0 -44 -27q-4 -4 -8 -3t-4 6v47q0 9 9 18q22 24 48 24q20 0 48 -19q23 -17 36 -17q21 0 44 28q3 4 7 2.5t4 -6.5v-47q0 -9 -8 -17q-21 -24 -48 -24z
" />
    <glyph glyph-name="Imacron" unicode="&#x12a;" horiz-adv-x="201" 
d="M60 10v660q0 10 10 10h61q10 0 10 -10v-660q0 -10 -10 -10h-61q-10 0 -10 10zM198 790h-194q-10 0 -10 10v43q0 10 10 10h194q10 0 10 -10v-43q0 -10 -10 -10z" />
    <glyph glyph-name="imacron" unicode="&#x12b;" horiz-adv-x="193" 
d="M125 0h-57q-10 0 -10 10v459q0 10 10 10h57q10 0 10 -10v-459q0 -10 -10 -10zM193 603h-194q-10 0 -10 10v43q0 10 10 10h194q10 0 10 -10v-43q0 -10 -10 -10z" />
    <glyph glyph-name="Ibreve" unicode="&#x12c;" horiz-adv-x="201" 
d="M60 10v660q0 10 10 10h61q10 0 10 -10v-660q0 -10 -10 -10h-61q-10 0 -10 10zM101 753q-51 0 -80 30.5t-34 80.5q0 10 10 10h32q8 0 10 -10q16 -55 62 -55t61 55q3 10 11 10h32q10 0 10 -10q-5 -50 -34 -80.5t-80 -30.5z" />
    <glyph glyph-name="ibreve" unicode="&#x12d;" horiz-adv-x="193" 
d="M125 0h-57q-10 0 -10 10v459q0 10 10 10h57q10 0 10 -10v-459q0 -10 -10 -10zM97 563q-51 0 -80 30.5t-34 80.5q0 10 10 10h32q8 0 10 -10q16 -54 62 -54t61 54q3 10 11 10h32q10 0 10 -10q-5 -50 -34 -80.5t-80 -30.5z" />
    <glyph glyph-name="Iogonek" unicode="&#x12e;" horiz-adv-x="201" 
d="M90 -181q-34 0 -55 19t-21 54q0 50 56 109h-3q-7 0 -7 9v660q0 10 10 10h61q10 0 10 -10v-660q0 -5 -4 -9q-59 -64 -59 -97q0 -26 22 -26q11 0 20 6q10 6 13 -3l15 -34q3 -8 -5 -13q-22 -15 -53 -15z" />
    <glyph glyph-name="iogonek" unicode="&#x12f;" horiz-adv-x="193" 
d="M128 588h-63q-10 0 -10 10v72q0 10 10 10h63q10 0 10 -10v-72q0 -10 -10 -10zM85 -181q-35 0 -56 19t-21 54q0 49 56 109v1q-6 0 -6 8v459q0 10 10 10h57q10 0 10 -10v-459q0 -5 -4 -9q-58 -63 -58 -97q0 -26 22 -26q11 0 20 6q9 5 12 -3l15 -34q4 -9 -5 -13
q-22 -15 -52 -15z" />
    <glyph glyph-name="Idotaccent" unicode="&#x130;" horiz-adv-x="201" 
d="M60 10v660q0 10 10 10h61q10 0 10 -10v-660q0 -10 -10 -10h-61q-10 0 -10 10zM133 777h-63q-10 0 -10 10v72q0 10 10 10h63q10 0 10 -10v-72q0 -10 -10 -10z" />
    <glyph glyph-name="dotlessi" unicode="&#x131;" horiz-adv-x="193" 
d="M125 0h-57q-10 0 -10 10v459q0 10 10 10h57q10 0 10 -10v-459q0 -10 -10 -10z" />
    <glyph glyph-name="Jcircumflex" unicode="&#x134;" horiz-adv-x="342" 
d="M25 32q-6 8 1 14l40 39q7 7 16 0q21 -18 47 -18q73 0 73 88v515q0 10 10 10h61q10 0 10 -10v-509q0 -85 -41.5 -127.5t-113.5 -42.5q-68 0 -103 41zM352 752h-42q-10 0 -17 10l-52 71h-2l-52 -71q-7 -10 -17 -10h-42q-12 0 -5 10l82 123q6 10 17 10h36q11 0 17 -10
l82 -123q7 -10 -5 -10z" />
    <glyph glyph-name="jcircumflex" unicode="&#x135;" horiz-adv-x="193" 
d="M20 -180h-12q-10 0 -10 10v53q0 10 10 10l11 1q21 1 30 12t9 38v525q0 10 10 10h57q10 0 10 -10v-529q0 -120 -115 -120zM209 557h-42q-10 0 -17 10l-52 71h-2l-52 -71q-7 -10 -17 -10h-42q-12 0 -5 10l82 123q6 10 17 10h36q11 0 17 -10l82 -123q7 -10 -5 -10z" />
    <glyph glyph-name="Kcommaaccent" unicode="&#x136;" horiz-adv-x="424" 
d="M196 -208q-8 0 -8 10v135q0 10 10 10h53q10 0 10 -10v-49q0 -12 -7 -22l-46 -66q-4 -8 -12 -8zM60 10v660q0 10 10 10h61q10 0 10 -10v-312l155 314q4 8 13 8h65q10 0 6 -9l-135 -263l156 -398q3 -10 -6 -10h-66q-8 0 -11 7l-122 316l-55 -112v-201q0 -10 -10 -10h-61
q-10 0 -10 10z" />
    <glyph glyph-name="kcommaaccent" unicode="&#x137;" horiz-adv-x="375" 
d="M174 -208q-8 0 -8 10v135q0 10 10 10h53q10 0 10 -10v-49q0 -12 -7 -22l-46 -66q-4 -8 -12 -8zM348 0h-60q-10 0 -14 10l-90 214l-49 -87v-127q0 -10 -10 -10h-57q-10 0 -10 10v660q0 10 10 10h57q10 0 10 -10v-415l119 214q6 10 14 10h60q11 0 6 -10l-105 -175l126 -284
q3 -10 -7 -10z" />
    <glyph glyph-name="kgreenlandic" unicode="&#x138;" horiz-adv-x="375" 
d="M348 0h-60q-10 0 -14 10l-90 214l-49 -87v-127q0 -10 -10 -10h-57q-10 0 -10 10v459q0 10 10 10h57q10 0 10 -10v-214l119 214q6 10 14 10h60q11 0 6 -10l-105 -175l126 -284q3 -10 -7 -10z" />
    <glyph glyph-name="Lacute" unicode="&#x139;" horiz-adv-x="358" 
d="M128 763h-38q-5 0 -7 3t1 7l77 105q7 10 16 10h58q5 0 6.5 -3t-1.5 -7l-93 -105q-9 -10 -19 -10zM60 10v660q0 10 10 10h61q10 0 10 -10v-589q0 -6 6 -6h178q10 0 10 -10v-55q0 -10 -10 -10h-255q-10 0 -10 10z" />
    <glyph glyph-name="lacute" unicode="&#x13a;" horiz-adv-x="221" 
d="M119 763h-38q-5 0 -7 3t1 7l77 105q7 10 16 10h58q5 0 6.5 -3t-1.5 -7l-93 -105q-9 -10 -19 -10zM182 -5l-5 1q-66 2 -92.5 32t-26.5 99v543q0 10 10 10h57q10 0 10 -10v-546q0 -48 42 -55l5 -1q10 -2 10 -11v-52q0 -10 -10 -10z" />
    <glyph glyph-name="Lcommaaccent" unicode="&#x13b;" horiz-adv-x="358" 
d="M166 -208q-8 0 -8 10v135q0 10 10 10h53q10 0 10 -10v-49q0 -12 -7 -22l-46 -66q-4 -8 -12 -8zM60 10v660q0 10 10 10h61q10 0 10 -10v-589q0 -6 6 -6h178q10 0 10 -10v-55q0 -10 -10 -10h-255q-10 0 -10 10z" />
    <glyph glyph-name="lcommaaccent" unicode="&#x13c;" horiz-adv-x="221" 
d="M94 -208q-8 0 -8 10v135q0 10 10 10h53q10 0 10 -10v-49q0 -12 -7 -22l-46 -66q-4 -8 -12 -8zM182 -5l-5 1q-66 2 -92.5 32t-26.5 99v543q0 10 10 10h57q10 0 10 -10v-546q0 -48 42 -55l5 -1q10 -2 10 -11v-52q0 -10 -10 -10z" />
    <glyph glyph-name="Lcaron" unicode="&#x13d;" horiz-adv-x="358" 
d="M192 524q-9 0 -9 9v137q0 10 10 10h52q10 0 10 -10v-50q0 -13 -6 -23l-45 -66q-4 -7 -12 -7zM60 10v660q0 10 10 10h61q10 0 10 -10v-589q0 -6 6 -6h178q10 0 10 -10v-55q0 -10 -10 -10h-255q-10 0 -10 10z" />
    <glyph glyph-name="lcaron" unicode="&#x13e;" horiz-adv-x="221" 
d="M183 524q-9 0 -9 9v137q0 10 10 10h52q10 0 10 -10v-50q0 -13 -6 -23l-45 -66q-4 -7 -12 -7zM182 -5l-5 1q-66 2 -92.5 32t-26.5 99v543q0 10 10 10h57q10 0 10 -10v-546q0 -48 42 -55l5 -1q10 -2 10 -11v-52q0 -10 -10 -10z" />
    <glyph glyph-name="Ldot" unicode="&#x13f;" horiz-adv-x="358" 
d="M60 10v660q0 10 10 10h61q10 0 10 -10v-589q0 -6 6 -6h178q10 0 10 -10v-55q0 -10 -10 -10h-255q-10 0 -10 10zM313 255h-65q-10 0 -10 10v84q0 10 10 10h65q10 0 10 -10v-84q0 -10 -10 -10z" />
    <glyph glyph-name="ldot" unicode="&#x140;" horiz-adv-x="256" 
d="M182 -5l-5 1q-66 2 -92.5 32t-26.5 99v543q0 10 10 10h57q10 0 10 -10v-546q0 -48 42 -55l5 -1q10 -2 10 -11v-52q0 -10 -10 -10zM257 263h-65q-10 0 -10 10v84q0 10 10 10h65q10 0 10 -10v-84q0 -10 -10 -10z" />
    <glyph glyph-name="Lslash" unicode="&#x141;" horiz-adv-x="358" 
d="M229 388l-88 -61v-246q0 -6 6 -6h178q10 0 10 -10v-55q0 -10 -10 -10h-255q-10 0 -10 10v265l-39 -27q-4 -2 -7 -0.5t-3 5.5v57q0 9 10 16l39 27v317q0 10 10 10h61q10 0 10 -10v-265l88 61q4 2 7 0.5t3 -5.5v-57q0 -9 -10 -16z" />
    <glyph glyph-name="lslash" unicode="&#x142;" horiz-adv-x="221" 
d="M182 388l-47 -33v-231q0 -48 42 -55l5 -1q10 -2 10 -11v-52q0 -10 -10 -10l-5 1q-66 2 -92.5 32t-26.5 99v176l-30 -20q-4 -2 -7 -0.5t-3 5.5v54q0 9 10 16l30 20v292q0 10 10 10h57q10 0 10 -10v-240l47 33q4 2 7 0.5t3 -5.5v-54q0 -9 -10 -16z" />
    <glyph glyph-name="Nacute" unicode="&#x143;" horiz-adv-x="449" 
d="M236 763h-38q-5 0 -7 3t1 7l77 105q7 10 16 10h58q5 0 6.5 -3t-1.5 -7l-93 -105q-9 -10 -19 -10zM60 10v660q0 10 10 10h75q12 0 15 -10l152 -510h4v510q0 10 10 10h53q10 0 10 -10v-660q0 -10 -10 -10h-71q-12 0 -15 10l-155 510h-5v-510q0 -10 -10 -10h-53
q-10 0 -10 10z" />
    <glyph glyph-name="nacute" unicode="&#x144;" horiz-adv-x="393" 
d="M198 557h-40q-10 0 -5 10l69 123q6 10 16 10h59q11 0 5 -10l-87 -123q-7 -10 -17 -10zM329 0h-57q-10 0 -10 10v319q0 87 -63 87q-64 0 -64 -87v-319q0 -10 -10 -10h-57q-10 0 -10 10v459q0 10 10 10h57q10 0 10 -10v-38h1q27 57 91 57q112 0 112 -147v-331
q0 -10 -10 -10z" />
    <glyph glyph-name="Ncommaaccent" unicode="&#x145;" horiz-adv-x="449" 
d="M203 -208q-8 0 -8 10v135q0 10 10 10h53q10 0 10 -10v-49q0 -12 -7 -22l-46 -66q-4 -8 -12 -8zM60 10v660q0 10 10 10h75q12 0 15 -10l152 -510h4v510q0 10 10 10h53q10 0 10 -10v-660q0 -10 -10 -10h-71q-12 0 -15 10l-155 510h-5v-510q0 -10 -10 -10h-53q-10 0 -10 10z
" />
    <glyph glyph-name="ncommaaccent" unicode="&#x146;" horiz-adv-x="393" 
d="M168 -208q-8 0 -8 10v135q0 10 10 10h53q10 0 10 -10v-49q0 -12 -7 -22l-46 -66q-4 -8 -12 -8zM329 0h-57q-10 0 -10 10v319q0 87 -63 87q-64 0 -64 -87v-319q0 -10 -10 -10h-57q-10 0 -10 10v459q0 10 10 10h57q10 0 10 -10v-38h1q27 57 91 57q112 0 112 -147v-331
q0 -10 -10 -10z" />
    <glyph glyph-name="Ncaron" unicode="&#x147;" horiz-adv-x="449" 
d="M242 750h-36q-11 0 -17 9l-82 124q-3 4 -1.5 7t6.5 3h42q10 0 17 -10l52 -72h2l52 72q7 10 17 10h42q5 0 6.5 -3t-1.5 -7l-82 -124q-6 -9 -17 -9zM60 10v660q0 10 10 10h75q12 0 15 -10l152 -510h4v510q0 10 10 10h53q10 0 10 -10v-660q0 -10 -10 -10h-71q-12 0 -15 10
l-155 510h-5v-510q0 -10 -10 -10h-53q-10 0 -10 10z" />
    <glyph glyph-name="ncaron" unicode="&#x148;" horiz-adv-x="393" 
d="M214 556h-36q-11 0 -17 10l-82 123q-7 10 5 10h42q10 0 17 -10l52 -71h2l52 71q7 10 17 10h42q12 0 5 -10l-82 -123q-6 -10 -17 -10zM329 0h-57q-10 0 -10 10v319q0 87 -63 87q-64 0 -64 -87v-319q0 -10 -10 -10h-57q-10 0 -10 10v459q0 10 10 10h57q10 0 10 -10v-38h1
q27 57 91 57q112 0 112 -147v-331q0 -10 -10 -10z" />
    <glyph glyph-name="Eng" unicode="&#x14a;" horiz-adv-x="449" 
d="M254 -180h-8q-10 0 -10 10v55q0 10 10 10l8 1q28 2 41 15.5t13 43.5v20l-170 545h-5v-510q0 -10 -10 -10h-53q-10 0 -10 10v660q0 10 10 10h73q13 0 17 -10l152 -498h4v498q0 10 10 10h53q10 0 10 -10v-708q0 -74 -33 -108t-102 -34z" />
    <glyph glyph-name="eng" unicode="&#x14b;" horiz-adv-x="393" 
d="M224 -180h-9q-10 0 -10 10v52q0 10 10 10h8q21 2 30 13t9 37v387q0 87 -63 87q-64 0 -64 -87v-319q0 -10 -10 -10h-57q-10 0 -10 10v459q0 10 10 10h57q10 0 10 -10v-38h1q27 57 91 57q112 0 112 -147v-401q0 -120 -115 -120z" />
    <glyph glyph-name="Omacron" unicode="&#x14c;" horiz-adv-x="422" 
d="M308 790h-194q-10 0 -10 10v43q0 10 10 10h194q10 0 10 -10v-43q0 -10 -10 -10zM211 -9q-116 0 -149 101q-8 24 -10.5 67t-2.5 181t2.5 181t10.5 67q33 101 149 101q118 0 149 -101q8 -24 10.5 -67t2.5 -181t-2.5 -181t-10.5 -67q-31 -101 -149 -101zM211 67q57 0 72 48
q8 27 8 225t-8 225q-15 48 -72 48q-56 0 -71 -48q-9 -26 -9 -225t9 -225q15 -48 71 -48z" />
    <glyph glyph-name="omacron" unicode="&#x14d;" horiz-adv-x="374" 
d="M284 603h-194q-10 0 -10 10v43q0 10 10 10h194q10 0 10 -10v-43q0 -10 -10 -10zM187 -9q-102 0 -132 92q-10 32 -10 157q0 124 10 157q30 91 132 91t132 -91q10 -32 10 -157t-10 -157q-30 -92 -132 -92zM187 63q45 0 59 42q6 20 6 135q0 114 -6 134q-14 42 -59 42
t-59 -42q-6 -20 -6 -134q0 -115 6 -135q14 -42 59 -42z" />
    <glyph glyph-name="Obreve" unicode="&#x14e;" horiz-adv-x="422" 
d="M211 753q-51 0 -80 30.5t-34 80.5q0 10 10 10h32q8 0 10 -10q16 -55 62 -55t61 55q3 10 11 10h32q10 0 10 -10q-5 -50 -34 -80.5t-80 -30.5zM211 -9q-116 0 -149 101q-8 24 -10.5 67t-2.5 181t2.5 181t10.5 67q33 101 149 101q118 0 149 -101q8 -24 10.5 -67t2.5 -181
t-2.5 -181t-10.5 -67q-31 -101 -149 -101zM211 67q57 0 72 48q8 27 8 225t-8 225q-15 48 -72 48q-56 0 -71 -48q-9 -26 -9 -225t9 -225q15 -48 71 -48z" />
    <glyph glyph-name="obreve" unicode="&#x14f;" horiz-adv-x="374" 
d="M187 -9q-102 0 -132 92q-10 32 -10 157q0 124 10 157q30 91 132 91t132 -91q10 -32 10 -157t-10 -157q-30 -92 -132 -92zM187 63q45 0 59 42q6 20 6 135q0 114 -6 134q-14 42 -59 42t-59 -42q-6 -20 -6 -134q0 -115 6 -135q14 -42 59 -42zM187 563q-51 0 -80 30.5
t-34 80.5q0 10 10 10h32q8 0 10 -10q16 -54 62 -54t61 54q3 10 11 10h32q10 0 10 -10q-5 -50 -34 -80.5t-80 -30.5z" />
    <glyph glyph-name="Ohungarumlaut" unicode="&#x150;" horiz-adv-x="422" 
d="M211 -9q-116 0 -149 101q-8 24 -10.5 67t-2.5 181t2.5 181t10.5 67q33 101 149 101q118 0 149 -101q8 -24 10.5 -67t2.5 -181t-2.5 -181t-10.5 -67q-31 -101 -149 -101zM211 67q57 0 72 48q8 27 8 225t-8 225q-15 48 -72 48q-56 0 -71 -48q-9 -26 -9 -225t9 -225
q15 -48 71 -48zM291 763h-35q-12 0 -5 10l68 105q7 10 16 10h49q11 0 5 -10l-80 -105q-7 -10 -18 -10zM167 763h-34q-12 0 -5 10l67 105q7 10 17 10h49q5 0 6 -3t-2 -7l-79 -105q-8 -10 -19 -10z" />
    <glyph glyph-name="ohungarumlaut" unicode="&#x151;" horiz-adv-x="374" 
d="M258 557h-35q-11 0 -6 10l61 123q4 10 16 10h49q11 0 5 -10l-73 -123q-6 -10 -17 -10zM134 557h-35q-10 0 -5 10l60 123q6 10 16 10h50q11 0 5 -10l-73 -123q-6 -10 -18 -10zM187 -9q-102 0 -132 92q-10 32 -10 157q0 124 10 157q30 91 132 91t132 -91q10 -32 10 -157
t-10 -157q-30 -92 -132 -92zM187 63q45 0 59 42q6 20 6 135q0 114 -6 134q-14 42 -59 42t-59 -42q-6 -20 -6 -134q0 -115 6 -135q14 -42 59 -42z" />
    <glyph glyph-name="OE" unicode="&#x152;" horiz-adv-x="598" 
d="M558 0h-257q-10 0 -10 10v21h-1q-26 -40 -90 -40q-106 0 -138 98q-8 24 -10.5 68t-2.5 183t2.5 183t10.5 68q32 98 138 98q64 0 90 -40h1v21q0 10 10 10h257q10 0 10 -10v-55q0 -10 -10 -10h-180q-6 0 -6 -6v-212q0 -6 6 -6h156q10 0 10 -10v-55q0 -10 -10 -10h-156
q-6 0 -6 -6v-219q0 -6 6 -6h180q10 0 10 -10v-55q0 -10 -10 -10zM211 67q55 0 72 48q8 27 8 225t-8 225q-17 48 -72 48q-56 0 -71 -48q-9 -26 -9 -225t9 -225q15 -48 71 -48z" />
    <glyph glyph-name="oe" unicode="&#x153;" horiz-adv-x="576" 
d="M391 -9q-72 0 -99 48h-2q-34 -48 -103 -48q-50 0 -84.5 24t-47.5 68q-10 32 -10 157q0 124 10 157q13 43 47.5 67t84.5 24q68 0 103 -47h1q35 47 102 47q99 0 129 -89q11 -35 11 -173q0 -10 -10 -10h-188q-6 0 -6 -6q0 -83 7 -106q15 -41 56 -41q49 0 64 54q3 10 12 8
l53 -11q9 -1 7 -12q-10 -52 -46 -81.5t-91 -29.5zM450 281q6 0 6 6q0 68 -7 91q-13 40 -56 40q-44 0 -57 -40q-7 -23 -7 -91q0 -6 6 -6h115zM187 63q45 0 59 42q6 20 6 135q0 114 -6 134q-14 42 -59 42t-59 -42q-6 -20 -6 -134q0 -115 6 -135q14 -42 59 -42z" />
    <glyph glyph-name="Racute" unicode="&#x154;" horiz-adv-x="421" 
d="M380 0h-68q-8 0 -11 7l-85 284q-9 -1 -28 -1h-41q-6 0 -6 -6v-274q0 -10 -10 -10h-61q-10 0 -10 10v660q0 10 10 10h119q93 0 138.5 -45.5t45.5 -150.5q0 -131 -83 -173l95 -301q4 -10 -5 -10zM190 363q54 0 78 26.5t24 94.5t-23.5 94.5t-78.5 26.5h-43q-6 0 -6 -6v-230
q0 -6 6 -6h43zM206 763h-38q-5 0 -7 3t1 7l77 105q7 10 16 10h58q5 0 6.5 -3t-1.5 -7l-93 -105q-9 -10 -19 -10z" />
    <glyph glyph-name="racute" unicode="&#x155;" horiz-adv-x="273" 
d="M165 557h-40q-10 0 -5 10l69 123q6 10 16 10h59q11 0 5 -10l-87 -123q-7 -10 -17 -10zM125 0h-57q-10 0 -10 10v459q0 10 10 10h57q10 0 10 -10v-45h1q28 64 96 64q11 0 19 -2q9 -2 6 -11l-14 -57q-3 -9 -12 -9h-15q-37 0 -59 -26t-22 -77v-296q0 -10 -10 -10z" />
    <glyph glyph-name="Rcommaaccent" unicode="&#x156;" horiz-adv-x="421" 
d="M189 -208q-8 0 -8 10v135q0 10 10 10h53q10 0 10 -10v-49q0 -12 -7 -22l-46 -66q-4 -8 -12 -8zM380 0h-68q-8 0 -11 7l-85 284q-9 -1 -28 -1h-41q-6 0 -6 -6v-274q0 -10 -10 -10h-61q-10 0 -10 10v660q0 10 10 10h119q93 0 138.5 -45.5t45.5 -150.5q0 -131 -83 -173
l95 -301q4 -10 -5 -10zM190 363q54 0 78 26.5t24 94.5t-23.5 94.5t-78.5 26.5h-43q-6 0 -6 -6v-230q0 -6 6 -6h43z" />
    <glyph glyph-name="rcommaaccent" unicode="&#x157;" horiz-adv-x="273" 
d="M69 -208q-8 0 -8 10v135q0 10 10 10h53q10 0 10 -10v-49q0 -12 -7 -22l-46 -66q-4 -8 -12 -8zM125 0h-57q-10 0 -10 10v459q0 10 10 10h57q10 0 10 -10v-45h1q28 64 96 64q11 0 19 -2q9 -2 6 -11l-14 -57q-3 -9 -12 -9h-15q-37 0 -59 -26t-22 -77v-296q0 -10 -10 -10z
" />
    <glyph glyph-name="Rcaron" unicode="&#x158;" horiz-adv-x="421" 
d="M208 750h-36q-11 0 -17 9l-82 124q-3 4 -1.5 7t6.5 3h42q10 0 17 -10l52 -72h2l52 72q7 10 17 10h42q5 0 6.5 -3t-1.5 -7l-82 -124q-6 -9 -17 -9zM380 0h-68q-8 0 -11 7l-85 284q-9 -1 -28 -1h-41q-6 0 -6 -6v-274q0 -10 -10 -10h-61q-10 0 -10 10v660q0 10 10 10h119
q93 0 138.5 -45.5t45.5 -150.5q0 -131 -83 -173l95 -301q4 -10 -5 -10zM190 363q54 0 78 26.5t24 94.5t-23.5 94.5t-78.5 26.5h-43q-6 0 -6 -6v-230q0 -6 6 -6h43z" />
    <glyph glyph-name="rcaron" unicode="&#x159;" horiz-adv-x="273" 
d="M161 556h-36q-11 0 -17 10l-82 123q-7 10 5 10h42q10 0 17 -10l52 -71h2l52 71q7 10 17 10h42q12 0 5 -10l-82 -123q-6 -10 -17 -10zM125 0h-57q-10 0 -10 10v459q0 10 10 10h57q10 0 10 -10v-45h1q28 64 96 64q11 0 19 -2q9 -2 6 -11l-14 -57q-3 -9 -12 -9h-15
q-37 0 -59 -26t-22 -77v-296q0 -10 -10 -10z" />
    <glyph glyph-name="Sacute" unicode="&#x15a;" horiz-adv-x="392" 
d="M354 192q0 -105 -36.5 -153t-121.5 -48q-153 0 -160 175q0 10 8 11l59 11q11 2 11 -9q3 -62 23 -88t60 -26q41 0 58.5 25t17.5 92q0 59 -14.5 85.5t-54.5 42.5l-41 16q-69 27 -94 67t-25 120q0 176 152 176q146 0 154 -162q0 -9 -9 -11l-56 -9q-4 -1 -7.5 1t-3.5 7
q-2 51 -20 75.5t-56 24.5q-74 0 -74 -99q0 -52 14.5 -75.5t56.5 -39.5l41 -16q66 -27 92 -68t26 -125zM210 763h-38q-5 0 -7 3t1 7l77 105q7 10 16 10h58q5 0 6.5 -3t-1.5 -7l-93 -105q-9 -10 -19 -10z" />
    <glyph glyph-name="sacute" unicode="&#x15b;" horiz-adv-x="343" 
d="M182 557h-40q-10 0 -5 10l69 123q6 10 16 10h59q11 0 5 -10l-87 -123q-7 -10 -17 -10zM172 -9q-60 0 -96 32t-42 90q-2 10 8 12l51 10q10 2 12 -8q8 -69 68 -69q63 0 63 69q0 29 -12 46t-43 30l-40 15q-99 38 -99 135q0 59 35.5 97t95.5 38q56 0 89 -30.5t39 -76.5
q2 -11 -7 -13l-48 -10q-9 -1 -12 8q-14 56 -61 56q-57 0 -57 -64q0 -47 55 -69l40 -15q54 -20 76 -54t22 -88q0 -64 -36 -102.5t-101 -38.5z" />
    <glyph glyph-name="Scircumflex" unicode="&#x15c;" horiz-adv-x="392" 
d="M354 192q0 -105 -36.5 -153t-121.5 -48q-153 0 -160 175q0 10 8 11l59 11q11 2 11 -9q3 -62 23 -88t60 -26q41 0 58.5 25t17.5 92q0 59 -14.5 85.5t-54.5 42.5l-41 16q-69 27 -94 67t-25 120q0 176 152 176q146 0 154 -162q0 -9 -9 -11l-56 -9q-4 -1 -7.5 1t-3.5 7
q-2 51 -20 75.5t-56 24.5q-74 0 -74 -99q0 -52 14.5 -75.5t56.5 -39.5l41 -16q66 -27 92 -68t26 -125zM307 752h-42q-10 0 -17 10l-52 71h-2l-52 -71q-7 -10 -17 -10h-42q-12 0 -5 10l82 123q6 10 17 10h36q11 0 17 -10l82 -123q7 -10 -5 -10z" />
    <glyph glyph-name="scircumflex" unicode="&#x15d;" horiz-adv-x="343" 
d="M285 557h-42q-10 0 -17 10l-52 71h-2l-52 -71q-7 -10 -17 -10h-42q-12 0 -5 10l82 123q6 10 17 10h36q11 0 17 -10l82 -123q7 -10 -5 -10zM172 -9q-60 0 -96 32t-42 90q-2 10 8 12l51 10q10 2 12 -8q8 -69 68 -69q63 0 63 69q0 29 -12 46t-43 30l-40 15q-99 38 -99 135
q0 59 35.5 97t95.5 38q56 0 89 -30.5t39 -76.5q2 -11 -7 -13l-48 -10q-9 -1 -12 8q-14 56 -61 56q-57 0 -57 -64q0 -47 55 -69l40 -15q54 -20 76 -54t22 -88q0 -64 -36 -102.5t-101 -38.5z" />
    <glyph glyph-name="Scedilla" unicode="&#x15e;" horiz-adv-x="392" 
d="M113 -142l54 135q-125 14 -131 173q0 10 8 11l59 11q11 2 11 -9q3 -62 23 -88t60 -26q41 0 58.5 25t17.5 92q0 59 -14.5 85.5t-54.5 42.5l-41 16q-69 27 -94 67t-25 120q0 176 152 176q146 0 154 -162q0 -9 -9 -11l-56 -9q-4 -1 -7.5 1t-3.5 7q-2 51 -20 75.5t-56 24.5
q-74 0 -74 -99q0 -52 14.5 -75.5t56.5 -39.5l41 -16q66 -27 92 -68t26 -125q0 -94 -29 -142t-96 -57l-45 -135q-4 -10 -16 -10h-48q-10 0 -7 10z" />
    <glyph glyph-name="scedilla" unicode="&#x15f;" horiz-adv-x="343" 
d="M90 -142l54 135q-99 14 -110 120q-2 10 8 12l51 10q10 2 12 -8q8 -69 68 -69q63 0 63 69q0 29 -12 46t-43 30l-40 15q-99 38 -99 135q0 59 35.5 97t95.5 38q56 0 89 -30.5t39 -76.5q2 -11 -7 -13l-48 -10q-9 -1 -12 8q-14 56 -61 56q-57 0 -57 -64q0 -47 55 -69l40 -15
q54 -20 76 -54t22 -88t-26.5 -90.5t-75.5 -46.5l-46 -137q-4 -10 -16 -10h-48q-10 0 -7 10z" />
    <glyph glyph-name="Scaron" unicode="&#x160;" horiz-adv-x="392" 
d="M354 192q0 -105 -36.5 -153t-121.5 -48q-153 0 -160 175q0 10 8 11l59 11q11 2 11 -9q3 -62 23 -88t60 -26q41 0 58.5 25t17.5 92q0 59 -14.5 85.5t-54.5 42.5l-41 16q-69 27 -94 67t-25 120q0 176 152 176q146 0 154 -162q0 -9 -9 -11l-56 -9q-4 -1 -7.5 1t-3.5 7
q-2 51 -20 75.5t-56 24.5q-74 0 -74 -99q0 -52 14.5 -75.5t56.5 -39.5l41 -16q66 -27 92 -68t26 -125zM208 750h-36q-11 0 -17 9l-82 124q-3 4 -1.5 7t6.5 3h42q10 0 17 -10l52 -72h2l52 72q7 10 17 10h42q5 0 6.5 -3t-1.5 -7l-82 -124q-6 -9 -17 -9z" />
    <glyph glyph-name="scaron" unicode="&#x161;" horiz-adv-x="343" 
d="M191 556h-36q-11 0 -17 10l-82 123q-7 10 5 10h42q10 0 17 -10l52 -71h2l52 71q7 10 17 10h42q12 0 5 -10l-82 -123q-6 -10 -17 -10zM172 -9q-60 0 -96 32t-42 90q-2 10 8 12l51 10q10 2 12 -8q8 -69 68 -69q63 0 63 69q0 29 -12 46t-43 30l-40 15q-99 38 -99 135
q0 59 35.5 97t95.5 38q56 0 89 -30.5t39 -76.5q2 -11 -7 -13l-48 -10q-9 -1 -12 8q-14 56 -61 56q-57 0 -57 -64q0 -47 55 -69l40 -15q54 -20 76 -54t22 -88q0 -64 -36 -102.5t-101 -38.5z" />
    <glyph glyph-name="Tcommaaccent" unicode="&#x162;" horiz-adv-x="369" 
d="M159 -208q-8 0 -8 10v135q0 10 10 10h53q10 0 10 -10v-49q0 -12 -7 -22l-46 -66q-4 -8 -12 -8zM215 0h-61q-10 0 -10 10v589q0 6 -6 6h-112q-10 0 -10 10v55q0 10 10 10h317q10 0 10 -10v-55q0 -10 -10 -10h-112q-6 0 -6 -6v-589q0 -10 -10 -10z" />
    <glyph glyph-name="tcommaaccent" unicode="&#x163;" horiz-adv-x="243" 
d="M113 -208q-8 0 -8 10v135q0 10 10 10h53q10 0 10 -10v-49q0 -12 -7 -22l-46 -66q-4 -8 -12 -8zM203 -5h-25q-55 0 -80 27t-25 87v303q0 6 -6 6h-29q-10 0 -10 10v41q0 10 10 10h29q6 0 6 6v135q0 10 10 10h57q10 0 10 -10v-135q0 -6 6 -6h47q10 0 10 -10v-41
q0 -10 -10 -10h-47q-6 0 -6 -6v-302q0 -42 40 -42h13q10 0 10 -10v-53q0 -10 -10 -10z" />
    <glyph glyph-name="Tcaron" unicode="&#x164;" horiz-adv-x="369" 
d="M205 750h-36q-11 0 -17 9l-82 124q-3 4 -1.5 7t6.5 3h42q10 0 17 -10l52 -72h2l52 72q7 10 17 10h42q5 0 6.5 -3t-1.5 -7l-82 -124q-6 -9 -17 -9zM215 0h-61q-10 0 -10 10v589q0 6 -6 6h-112q-10 0 -10 10v55q0 10 10 10h317q10 0 10 -10v-55q0 -10 -10 -10h-112
q-6 0 -6 -6v-589q0 -10 -10 -10z" />
    <glyph glyph-name="tcaron" unicode="&#x165;" horiz-adv-x="243" 
d="M191 524q-9 0 -9 9v137q0 10 10 10h52q10 0 10 -10v-50q0 -13 -6 -23l-45 -66q-4 -7 -12 -7zM203 -5h-25q-55 0 -80 27t-25 87v303q0 6 -6 6h-29q-10 0 -10 10v41q0 10 10 10h29q6 0 6 6v135q0 10 10 10h57q10 0 10 -10v-135q0 -6 6 -6h47q10 0 10 -10v-41q0 -10 -10 -10
h-47q-6 0 -6 -6v-302q0 -42 40 -42h13q10 0 10 -10v-53q0 -10 -10 -10z" />
    <glyph glyph-name="Tbar" unicode="&#x166;" horiz-adv-x="369" 
d="M215 0h-61q-10 0 -10 10v366q0 6 -6 6h-68q-10 0 -10 10v50q0 10 10 10h68q6 0 6 6v141q0 6 -6 6h-112q-10 0 -10 10v55q0 10 10 10h317q10 0 10 -10v-55q0 -10 -10 -10h-112q-6 0 -6 -6v-141q0 -6 6 -6h68q10 0 10 -10v-50q0 -10 -10 -10h-68q-6 0 -6 -6v-366
q0 -10 -10 -10z" />
    <glyph glyph-name="tbar" unicode="&#x167;" horiz-adv-x="243" 
d="M203 -5h-25q-55 0 -80 27t-25 87v169q0 6 -6 6h-22q-10 0 -10 10v40q0 10 10 10h22q6 0 6 6v62q0 6 -6 6h-29q-10 0 -10 10v41q0 10 10 10h29q6 0 6 6v135q0 10 10 10h57q10 0 10 -10v-135q0 -6 6 -6h47q10 0 10 -10v-41q0 -10 -10 -10h-47q-6 0 -6 -6v-62q0 -6 6 -6h34
q10 0 10 -10v-40q0 -10 -10 -10h-34q-6 0 -6 -6v-168q0 -42 40 -42h13q10 0 10 -10v-53q0 -10 -10 -10z" />
    <glyph glyph-name="Utilde" unicode="&#x168;" horiz-adv-x="436" 
d="M259 773q-23 0 -49 19q-22 16 -35 16q-22 0 -44 -27q-4 -4 -8 -3t-4 6v47q0 9 9 18q22 24 48 24q20 0 48 -19q23 -17 36 -17q21 0 44 28q3 4 7 2.5t4 -6.5v-47q0 -9 -8 -17q-21 -24 -48 -24zM218 -9q-74 0 -116.5 45t-42.5 131v503q0 10 10 10h61q10 0 10 -10v-513
q0 -44 20.5 -67t57.5 -23t57.5 23t20.5 67v513q0 10 10 10h61q10 0 10 -10v-503q0 -86 -42.5 -131t-116.5 -45z" />
    <glyph glyph-name="utilde" unicode="&#x169;" horiz-adv-x="390" 
d="M322 0h-57q-10 0 -10 10v38h-1q-25 -57 -90 -57q-110 0 -110 148v330q0 10 10 10h57q10 0 10 -10v-319q0 -87 62 -87t62 87v319q0 10 10 10h57q10 0 10 -10v-459q0 -10 -10 -10zM236 581q-23 0 -49 19q-22 16 -35 16q-22 0 -44 -27q-4 -4 -8 -3t-4 6v47q0 9 9 18
q22 24 48 24q19 0 48 -19q23 -17 36 -17q21 0 44 28q3 4 7 2.5t4 -6.5v-47q0 -9 -8 -17q-21 -24 -48 -24z" />
    <glyph glyph-name="Umacron" unicode="&#x16a;" horiz-adv-x="436" 
d="M315 790h-194q-10 0 -10 10v43q0 10 10 10h194q10 0 10 -10v-43q0 -10 -10 -10zM218 -9q-74 0 -116.5 45t-42.5 131v503q0 10 10 10h61q10 0 10 -10v-513q0 -44 20.5 -67t57.5 -23t57.5 23t20.5 67v513q0 10 10 10h61q10 0 10 -10v-503q0 -86 -42.5 -131t-116.5 -45z" />
    <glyph glyph-name="umacron" unicode="&#x16b;" horiz-adv-x="390" 
d="M322 0h-57q-10 0 -10 10v38h-1q-25 -57 -90 -57q-110 0 -110 148v330q0 10 10 10h57q10 0 10 -10v-319q0 -87 62 -87t62 87v319q0 10 10 10h57q10 0 10 -10v-459q0 -10 -10 -10zM292 603h-194q-10 0 -10 10v43q0 10 10 10h194q10 0 10 -10v-43q0 -10 -10 -10z" />
    <glyph glyph-name="Ubreve" unicode="&#x16c;" horiz-adv-x="436" 
d="M218 753q-51 0 -80 30.5t-34 80.5q0 10 10 10h32q8 0 10 -10q16 -55 62 -55t61 55q3 10 11 10h32q10 0 10 -10q-5 -50 -34 -80.5t-80 -30.5zM218 -9q-74 0 -116.5 45t-42.5 131v503q0 10 10 10h61q10 0 10 -10v-513q0 -44 20.5 -67t57.5 -23t57.5 23t20.5 67v513
q0 10 10 10h61q10 0 10 -10v-503q0 -86 -42.5 -131t-116.5 -45z" />
    <glyph glyph-name="ubreve" unicode="&#x16d;" horiz-adv-x="390" 
d="M322 0h-57q-10 0 -10 10v38h-1q-25 -57 -90 -57q-110 0 -110 148v330q0 10 10 10h57q10 0 10 -10v-319q0 -87 62 -87t62 87v319q0 10 10 10h57q10 0 10 -10v-459q0 -10 -10 -10zM195 563q-51 0 -80 30.5t-34 80.5q0 10 10 10h32q8 0 10 -10q16 -54 62 -54t61 54
q3 10 11 10h32q10 0 10 -10q-5 -50 -34 -80.5t-80 -30.5z" />
    <glyph glyph-name="Uring" unicode="&#x16e;" horiz-adv-x="436" 
d="M218 -9q-74 0 -116.5 45t-42.5 131v503q0 10 10 10h61q10 0 10 -10v-513q0 -44 20.5 -67t57.5 -23t57.5 23t20.5 67v513q0 10 10 10h61q10 0 10 -10v-503q0 -86 -42.5 -131t-116.5 -45zM218 731q-37 0 -61.5 24.5t-24.5 61.5t24 61.5t62 24.5q37 0 61.5 -24.5t24.5 -61.5
t-24.5 -61.5t-61.5 -24.5zM218 768q20 0 33.5 14t13.5 35t-13.5 35t-33.5 14t-33.5 -14t-13.5 -35t13.5 -35t33.5 -14z" />
    <glyph glyph-name="uring" unicode="&#x16f;" horiz-adv-x="390" 
d="M195 546q-37 0 -61.5 24.5t-24.5 61.5q0 38 24.5 62.5t61.5 24.5t61.5 -25t24.5 -62t-24.5 -61.5t-61.5 -24.5zM195 583q20 0 33.5 14t13.5 35t-13.5 35t-33.5 14t-33.5 -14t-13.5 -35t13.5 -35t33.5 -14zM322 0h-57q-10 0 -10 10v38h-1q-25 -57 -90 -57q-110 0 -110 148
v330q0 10 10 10h57q10 0 10 -10v-319q0 -87 62 -87t62 87v319q0 10 10 10h57q10 0 10 -10v-459q0 -10 -10 -10z" />
    <glyph glyph-name="Uhungarumlaut" unicode="&#x170;" horiz-adv-x="436" 
d="M218 -9q-74 0 -116.5 45t-42.5 131v503q0 10 10 10h61q10 0 10 -10v-513q0 -44 20.5 -67t57.5 -23t57.5 23t20.5 67v513q0 10 10 10h61q10 0 10 -10v-503q0 -86 -42.5 -131t-116.5 -45zM293 763h-35q-12 0 -5 10l68 105q7 10 16 10h49q11 0 5 -10l-80 -105
q-7 -10 -18 -10zM169 763h-34q-12 0 -5 10l67 105q7 10 17 10h49q5 0 6 -3t-2 -7l-79 -105q-7 -10 -19 -10z" />
    <glyph glyph-name="uhungarumlaut" unicode="&#x171;" horiz-adv-x="390" 
d="M322 0h-57q-10 0 -10 10v38h-1q-25 -57 -90 -57q-110 0 -110 148v330q0 10 10 10h57q10 0 10 -10v-319q0 -87 62 -87t62 87v319q0 10 10 10h57q10 0 10 -10v-459q0 -10 -10 -10zM269 557h-35q-11 0 -6 10l61 123q4 10 16 10h49q11 0 5 -10l-73 -123q-6 -10 -17 -10z
M145 557h-35q-10 0 -5 10l60 123q6 10 16 10h50q11 0 5 -10l-73 -123q-6 -10 -18 -10z" />
    <glyph glyph-name="Uogonek" unicode="&#x172;" horiz-adv-x="436" 
d="M221 -181q-34 0 -55 19t-21 54q0 45 44 102q-60 8 -95 52t-35 121v503q0 10 10 10h61q10 0 10 -10v-513q0 -44 20.5 -67t57.5 -23t57.5 23t20.5 67v513q0 10 10 10h61q10 0 10 -10v-503q0 -75 -32.5 -119t-88.5 -53q-47 -60 -47 -91q0 -26 22 -26q11 0 20 6q10 6 13 -3
l14 -34q5 -8 -4 -13q-22 -15 -53 -15z" />
    <glyph glyph-name="uogonek" unicode="&#x173;" horiz-adv-x="390" 
d="M272 -181q-34 0 -55 19t-21 54q0 50 61 111q-2 2 -2 7v38h-1q-25 -57 -90 -57q-110 0 -110 148v330q0 10 10 10h57q10 0 10 -10v-319q0 -87 62 -87t62 87v319q0 10 10 10h57q10 0 10 -10v-459q0 -7 -6 -11q-66 -55 -66 -95q0 -26 22 -26q11 0 20 6q10 6 13 -3l14 -34
q5 -8 -4 -13q-22 -15 -53 -15z" />
    <glyph glyph-name="Wcircumflex" unicode="&#x174;" horiz-adv-x="576" 
d="M433 0h-54q-8 0 -10 10l-79 484h-2l-82 -484q-2 -10 -10 -10h-53q-8 0 -10 10l-108 660q-2 10 8 10h61q10 0 11 -10l66 -488h2l83 488q1 10 10 10h44q9 0 10 -10l83 -488h2l68 488q1 10 11 10h59q10 0 8 -10l-108 -660q-2 -10 -10 -10zM399 752h-42q-10 0 -17 10l-52 71
h-2l-52 -71q-7 -10 -17 -10h-42q-12 0 -5 10l82 123q6 10 17 10h36q11 0 17 -10l82 -123q7 -10 -5 -10z" />
    <glyph glyph-name="wcircumflex" unicode="&#x175;" horiz-adv-x="526" 
d="M374 557h-42q-10 0 -17 10l-52 71h-2l-52 -71q-7 -10 -17 -10h-42q-12 0 -5 10l82 123q6 10 17 10h36q11 0 17 -10l82 -123q7 -10 -5 -10zM384 0h-49q-10 0 -11 10l-61 314h-2l-59 -314q-1 -10 -11 -10h-49q-10 0 -11 10l-104 459q-3 10 7 10h60q8 0 10 -10l63 -326h1
l64 326q2 10 11 10h42q8 0 10 -10l63 -326h1l63 326q2 10 11 10h59q10 0 7 -10l-104 -459q-1 -10 -11 -10z" />
    <glyph glyph-name="Ycircumflex" unicode="&#x176;" horiz-adv-x="375" 
d="M218 0h-61q-10 0 -10 10v271l-131 389q-3 10 7 10h63q9 0 12 -10l89 -285h3l89 285q3 10 11 10h62q10 0 7 -10l-131 -389v-271q0 -10 -10 -10zM299 752h-42q-10 0 -17 10l-52 71h-2l-52 -71q-7 -10 -17 -10h-42q-12 0 -5 10l82 123q6 10 17 10h36q11 0 17 -10l82 -123
q7 -10 -5 -10z" />
    <glyph glyph-name="ycircumflex" unicode="&#x177;" horiz-adv-x="355" 
d="M73 -180h-11q-10 0 -10 10v53q0 10 10 10l12 1q22 1 33.5 12.5t18.5 42.5l17 66l-117 454q-2 10 8 10h60q8 0 10 -10l74 -327h2l74 327q2 10 11 10h58q10 0 7 -10l-131 -517q-20 -79 -46.5 -105.5t-79.5 -26.5zM290 557h-42q-10 0 -17 10l-52 71h-2l-52 -71
q-7 -10 -17 -10h-42q-12 0 -5 10l82 123q6 10 17 10h36q11 0 17 -10l82 -123q7 -10 -5 -10z" />
    <glyph glyph-name="Ydieresis" unicode="&#x178;" horiz-adv-x="375" 
d="M218 0h-61q-10 0 -10 10v271l-131 389q-3 10 7 10h63q9 0 12 -10l89 -285h3l89 285q3 10 11 10h62q10 0 7 -10l-131 -389v-271q0 -10 -10 -10zM285 777h-51q-10 0 -10 10v72q0 10 10 10h51q10 0 10 -10v-72q0 -10 -10 -10zM140 777h-51q-10 0 -10 10v72q0 10 10 10h51
q10 0 10 -10v-72q0 -10 -10 -10z" />
    <glyph glyph-name="Zacute" unicode="&#x179;" horiz-adv-x="362" 
d="M318 0h-273q-10 0 -10 10v52q0 6 2 12l206 529v2h-188q-10 0 -10 10v55q0 10 10 10h263q10 0 10 -10v-53q0 -6 -2 -12l-206 -528v-2h198q10 0 10 -10v-55q0 -10 -10 -10zM192 763h-38q-5 0 -7 3t1 7l77 105q7 10 16 10h58q5 0 6.5 -3t-1.5 -7l-93 -105q-9 -10 -19 -10z
" />
    <glyph glyph-name="zacute" unicode="&#x17a;" horiz-adv-x="327" 
d="M182 557h-40q-10 0 -5 10l69 123q6 10 16 10h59q11 0 5 -10l-87 -123q-7 -10 -17 -10zM284 0h-238q-10 0 -10 10v49q0 6 3 12l167 337v2h-150q-10 0 -10 10v49q0 10 10 10h228q10 0 10 -10v-41q0 -6 -3 -12l-170 -343v-2h163q10 0 10 -10v-51q0 -10 -10 -10z" />
    <glyph glyph-name="Zdotaccent" unicode="&#x17b;" horiz-adv-x="362" 
d="M215 777h-63q-10 0 -10 10v72q0 10 10 10h63q10 0 10 -10v-72q0 -10 -10 -10zM318 0h-273q-10 0 -10 10v52q0 6 2 12l206 529v2h-188q-10 0 -10 10v55q0 10 10 10h263q10 0 10 -10v-53q0 -6 -2 -12l-206 -528v-2h198q10 0 10 -10v-55q0 -10 -10 -10z" />
    <glyph glyph-name="zdotaccent" unicode="&#x17c;" horiz-adv-x="327" 
d="M284 0h-238q-10 0 -10 10v49q0 6 3 12l167 337v2h-150q-10 0 -10 10v49q0 10 10 10h228q10 0 10 -10v-41q0 -6 -3 -12l-170 -343v-2h163q10 0 10 -10v-51q0 -10 -10 -10zM199 588h-63q-10 0 -10 10v72q0 10 10 10h63q10 0 10 -10v-72q0 -10 -10 -10z" />
    <glyph glyph-name="Zcaron" unicode="&#x17d;" horiz-adv-x="362" 
d="M202 750h-36q-11 0 -17 9l-82 124q-3 4 -1.5 7t6.5 3h42q10 0 17 -10l52 -72h2l52 72q7 10 17 10h42q5 0 6.5 -3t-1.5 -7l-82 -124q-6 -9 -17 -9zM318 0h-273q-10 0 -10 10v52q0 6 2 12l206 529v2h-188q-10 0 -10 10v55q0 10 10 10h263q10 0 10 -10v-53q0 -6 -2 -12
l-206 -528v-2h198q10 0 10 -10v-55q0 -10 -10 -10z" />
    <glyph glyph-name="zcaron" unicode="&#x17e;" horiz-adv-x="327" 
d="M190 556h-36q-11 0 -17 10l-82 123q-7 10 5 10h42q10 0 17 -10l52 -71h2l52 71q7 10 17 10h42q12 0 5 -10l-82 -123q-6 -10 -17 -10zM284 0h-238q-10 0 -10 10v49q0 6 3 12l167 337v2h-150q-10 0 -10 10v49q0 10 10 10h228q10 0 10 -10v-41q0 -6 -3 -12l-170 -343v-2h163
q10 0 10 -10v-51q0 -10 -10 -10z" />
    <glyph glyph-name="florin" unicode="&#x192;" 
d="M324 337h-81l-49 -364q-11 -80 -45 -116.5t-105 -36.5h-17q-10 0 -10 10v53q0 10 10 10h13q37 0 54 16t23 59l49 369h-68q-10 0 -10 10v44q0 10 10 10h77l17 126q11 80 45 116.5t105 36.5h18q10 0 10 -10v-53q0 -10 -10 -10h-13q-37 0 -54 -16t-23 -59l-18 -131h72
q10 0 10 -10v-44q0 -10 -10 -10z" />
    <glyph glyph-name="Aringacute" unicode="&#x1fa;" horiz-adv-x="406" 
d="M217 775h-40q-5 0 -6 3t2 7l82 93q9 10 21 10h55q5 0 6 -3t-2 -7l-99 -93q-9 -10 -19 -10zM379 0h-60q-9 0 -11 10l-30 149h-151l-30 -149q-2 -10 -10 -10h-60q-11 0 -9 10l128 578l3 6q-31 25 -31 68q0 38 24 62t62 24q37 0 61.5 -24.5t24.5 -61.5q0 -42 -31 -68l3 -6
l126 -578q2 -10 -9 -10zM204 613q20 0 33.5 14t13.5 35t-13.5 35t-33.5 14q-21 0 -34.5 -14t-13.5 -35t13.5 -35t34.5 -14zM202 524l-60 -295h122l-59 295h-3z" />
    <glyph glyph-name="aringacute" unicode="&#x1fb;" horiz-adv-x="371" 
d="M197 775h-38q-5 0 -6 3t2 7l82 93q9 10 21 10h56q4 0 5.5 -3.5t-1.5 -6.5l-100 -93q-11 -10 -21 -10zM308 0h-54q-10 0 -10 10v41h-1q-10 -28 -34 -44t-56 -16q-48 0 -80.5 34t-32.5 108q0 77 38 112.5t103 35.5h57q6 0 6 6v39q0 49 -16 70t-55 21q-40 0 -81 -32
q-11 -7 -16 4l-19 39q-5 9 2 16q47 44 123 44q72 0 104 -36.5t32 -121.5v-320q0 -10 -10 -10zM174 57q31 0 50.5 24t19.5 63v66q0 6 -6 6h-45q-79 0 -79 -81q0 -78 60 -78zM186 546q-37 0 -61.5 24.5t-24.5 61.5q0 38 24.5 62.5t61.5 24.5t61.5 -25t24.5 -62t-24.5 -61.5
t-61.5 -24.5zM186 583q20 0 33.5 14t13.5 35t-13.5 35t-33.5 14t-33.5 -14t-13.5 -35t13.5 -35t33.5 -14z" />
    <glyph glyph-name="AEacute" unicode="&#x1fc;" horiz-adv-x="629" 
d="M362 763h-38q-5 0 -7 3t1 7l77 105q7 10 16 10h58q5 0 6.5 -3t-1.5 -7l-93 -105q-9 -10 -19 -10zM589 0h-257q-10 0 -10 10v143q0 6 -6 6h-163l-56 -149q-3 -10 -13 -10h-59q-10 0 -7 10l251 660q3 10 12 10h308q10 0 10 -10v-55q0 -10 -10 -10h-180q-6 0 -6 -6v-212
q0 -6 6 -6h156q10 0 10 -10v-55q0 -10 -10 -10h-156q-6 0 -6 -6v-219q0 -6 6 -6h180q10 0 10 -10v-55q0 -10 -10 -10zM319 597l-139 -368h136q6 0 6 6v362h-3z" />
    <glyph glyph-name="aeacute" unicode="&#x1fd;" horiz-adv-x="565" 
d="M304 557h-40q-10 0 -5 10l69 123q6 10 16 10h59q11 0 5 -10l-87 -123q-7 -10 -17 -10zM173 417q-40 0 -81 -32q-11 -7 -16 4l-19 39q-5 9 2 16q47 44 123 44q73 0 103 -42h1q32 42 96 42q99 0 129 -89q11 -35 11 -173q0 -10 -10 -10h-188q-6 0 -6 -6q0 -83 7 -106
q15 -41 56 -41q49 0 64 54q3 10 12 8l53 -11q9 -1 7 -12q-10 -52 -46 -81.5t-91 -29.5q-81 0 -115 63h-1q-40 -63 -111 -63q-48 0 -80.5 34t-32.5 108q0 77 38 112.5t103 35.5h57q6 0 6 6v39q0 49 -16 70t-55 21zM439 281q6 0 6 6q0 68 -7 91q-13 40 -56 40q-44 0 -57 -40
q-7 -23 -7 -91q0 -6 6 -6h115zM174 57q31 0 50.5 24t19.5 63v66q0 6 -6 6h-45q-79 0 -79 -81q0 -78 60 -78z" />
    <glyph glyph-name="Oslashacute" unicode="&#x1fe;" horiz-adv-x="422" 
d="M73 -30h-21q-10 0 -7 10l32 78q-9 16 -15 34q-8 24 -10.5 67t-2.5 181t2.5 181t10.5 67q33 101 149 101q64 0 106 -34l19 46q4 9 13 9h21q10 0 7 -10l-32 -78q8 -14 15 -34q8 -24 10.5 -67t2.5 -181t-2.5 -181t-10.5 -67q-31 -101 -149 -101q-66 0 -106 34l-19 -46
q-4 -9 -13 -9zM131 340q0 -123 1 -154l148 386q-19 41 -69 41q-56 0 -71 -48q-9 -26 -9 -225zM211 67q55 0 72 48q8 27 8 225q0 122 -1 154l-148 -386q18 -41 69 -41zM224 763h-38q-5 0 -7 3t1 7l77 105q7 10 16 10h58q5 0 6.5 -3t-1.5 -7l-93 -105q-9 -10 -19 -10z" />
    <glyph glyph-name="oslashacute" unicode="&#x1ff;" horiz-adv-x="374" 
d="M187 -9q-50 0 -86 25l-17 -36q-5 -10 -13 -10h-18q-11 0 -8 10l30 63q-11 14 -20 40q-10 32 -10 157q0 124 10 157q30 91 132 91q50 0 86 -25l17 36q4 10 13 10h18q12 0 7 -10l-29 -63q13 -18 20 -39q10 -32 10 -157t-10 -157q-30 -92 -132 -92zM121 240q0 -85 1 -103
l115 255q-17 25 -50 25q-44 0 -60 -42q-6 -20 -6 -135zM187 62q45 0 59 43q7 20 7 135q0 82 -1 100l-115 -254q18 -24 50 -24zM200 557h-40q-10 0 -5 10l69 123q6 10 16 10h59q11 0 5 -10l-87 -123q-7 -10 -17 -10z" />
    <glyph glyph-name="Scommaaccent" unicode="&#x218;" horiz-adv-x="392" 
d="M167 -208q-8 0 -8 10v135q0 10 10 10h53q10 0 10 -10v-49q0 -12 -7 -22l-46 -66q-4 -8 -12 -8zM354 192q0 -105 -36.5 -153t-121.5 -48q-153 0 -160 175q0 10 8 11l59 11q11 2 11 -9q3 -62 23 -88t60 -26q41 0 58.5 25t17.5 92q0 59 -14.5 85.5t-54.5 42.5l-41 16
q-69 27 -94 67t-25 120q0 176 152 176q146 0 154 -162q0 -9 -9 -11l-56 -9q-4 -1 -7.5 1t-3.5 7q-2 51 -20 75.5t-56 24.5q-74 0 -74 -99q0 -52 14.5 -75.5t56.5 -39.5l41 -16q66 -27 92 -68t26 -125z" />
    <glyph glyph-name="scommaaccent" unicode="&#x219;" horiz-adv-x="343" 
d="M144 -208q-8 0 -8 10v135q0 10 10 10h53q10 0 10 -10v-49q0 -12 -7 -22l-46 -66q-4 -8 -12 -8zM172 -9q-60 0 -96 32t-42 90q-2 10 8 12l51 10q10 2 12 -8q8 -69 68 -69q63 0 63 69q0 29 -12 46t-43 30l-40 15q-99 38 -99 135q0 59 35.5 97t95.5 38q56 0 89 -30.5
t39 -76.5q2 -11 -7 -13l-48 -10q-9 -1 -12 8q-14 56 -61 56q-57 0 -57 -64q0 -47 55 -69l40 -15q54 -20 76 -54t22 -88q0 -64 -36 -102.5t-101 -38.5z" />
    <glyph glyph-name="uni021A" unicode="&#x21a;" horiz-adv-x="369" 
d="M159 -208q-8 0 -8 10v135q0 10 10 10h53q10 0 10 -10v-49q0 -12 -7 -22l-46 -66q-4 -8 -12 -8zM215 0h-61q-10 0 -10 10v589q0 6 -6 6h-112q-10 0 -10 10v55q0 10 10 10h317q10 0 10 -10v-55q0 -10 -10 -10h-112q-6 0 -6 -6v-589q0 -10 -10 -10z" />
    <glyph glyph-name="uni021B" unicode="&#x21b;" horiz-adv-x="243" 
d="M113 -208q-8 0 -8 10v135q0 10 10 10h53q10 0 10 -10v-49q0 -12 -7 -22l-46 -66q-4 -8 -12 -8zM203 -5h-25q-55 0 -80 27t-25 87v303q0 6 -6 6h-29q-10 0 -10 10v41q0 10 10 10h29q6 0 6 6v135q0 10 10 10h57q10 0 10 -10v-135q0 -6 6 -6h47q10 0 10 -10v-41
q0 -10 -10 -10h-47q-6 0 -6 -6v-302q0 -42 40 -42h13q10 0 10 -10v-53q0 -10 -10 -10z" />
    <glyph glyph-name="dotlessj" unicode="&#x237;" horiz-adv-x="193" 
d="M20 -180h-12q-10 0 -10 10v53q0 10 10 10l11 1q21 1 30 12t9 38v525q0 10 10 10h57q10 0 10 -10v-529q0 -120 -115 -120z" />
    <glyph glyph-name="circumflex" unicode="&#x2c6;" horiz-adv-x="390" 
d="M307 557h-42q-10 0 -17 10l-52 71h-2l-52 -71q-7 -10 -17 -10h-42q-12 0 -5 10l82 123q6 10 17 10h36q11 0 17 -10l82 -123q7 -10 -5 -10z" />
    <glyph glyph-name="caron" unicode="&#x2c7;" horiz-adv-x="390" 
d="M213 556h-36q-11 0 -17 10l-82 123q-7 10 5 10h42q10 0 17 -10l52 -71h2l52 71q7 10 17 10h42q12 0 5 -10l-82 -123q-6 -10 -17 -10z" />
    <glyph glyph-name="uni02C9" unicode="&#x2c9;" horiz-adv-x="390" 
d="M292 790h-194q-10 0 -10 10v43q0 10 10 10h194q10 0 10 -10v-43q0 -10 -10 -10z" />
    <glyph glyph-name="breve" unicode="&#x2d8;" horiz-adv-x="390" 
d="M195 563q-51 0 -80 30.5t-34 80.5q0 10 10 10h32q8 0 10 -10q16 -54 62 -54t61 54q3 10 11 10h32q10 0 10 -10q-5 -50 -34 -80.5t-80 -30.5z" />
    <glyph glyph-name="dotaccent" unicode="&#x2d9;" horiz-adv-x="390" 
d="M226 588h-63q-10 0 -10 10v72q0 10 10 10h63q10 0 10 -10v-72q0 -10 -10 -10z" />
    <glyph glyph-name="ring" unicode="&#x2da;" horiz-adv-x="390" 
d="M195 546q-37 0 -61.5 24.5t-24.5 61.5q0 38 24.5 62.5t61.5 24.5t61.5 -25t24.5 -62t-24.5 -61.5t-61.5 -24.5zM195 583q20 0 33.5 14t13.5 35t-13.5 35t-33.5 14t-33.5 -14t-13.5 -35t13.5 -35t33.5 -14z" />
    <glyph glyph-name="ogonek" unicode="&#x2db;" horiz-adv-x="390" 
d="M205 -181q-34 0 -55 19t-21 54q0 47 59 108q10 10 17 10h54q4 0 5 -3.5t-3 -6.5q-68 -57 -68 -96q0 -26 22 -26q11 0 20 6q10 6 13 -3l14 -34q5 -8 -4 -13q-22 -15 -53 -15z" />
    <glyph glyph-name="tilde" unicode="&#x2dc;" horiz-adv-x="390" 
d="M236 581q-23 0 -49 19q-22 16 -35 16q-22 0 -44 -27q-4 -4 -8 -3t-4 6v47q0 9 9 18q22 24 48 24q19 0 48 -19q23 -17 36 -17q21 0 44 28q3 4 7 2.5t4 -6.5v-47q0 -9 -8 -17q-21 -24 -48 -24z" />
    <glyph glyph-name="hungarumlaut" unicode="&#x2dd;" horiz-adv-x="390" 
d="M258 557h-35q-11 0 -6 10l61 123q4 10 16 10h49q11 0 5 -10l-73 -123q-6 -10 -17 -10zM134 557h-35q-10 0 -5 10l60 123q6 10 16 10h50q11 0 5 -10l-73 -123q-6 -10 -18 -10z" />
    <glyph glyph-name="Delta" unicode="&#x394;" horiz-adv-x="406" 
d="M379 0h-352q-11 0 -9 10l145 660q3 10 11 10h60q9 0 11 -10l143 -660q2 -10 -9 -10zM290 76q6 0 4 6l-89 443h-3l-91 -443q-1 -6 5 -6h174z" />
    <glyph glyph-name="Delta" unicode="&#x2206;" horiz-adv-x="406" 
d="M379 0h-352q-11 0 -9 10l145 660q3 10 11 10h60q9 0 11 -10l143 -660q2 -10 -9 -10zM290 76q6 0 4 6l-89 443h-3l-91 -443q-1 -6 5 -6h174z" />
    <glyph glyph-name="Omega" unicode="&#x3a9;" horiz-adv-x="421" 
d="M370 0h-121q-10 0 -10 10v53q0 7 10 14q30 21 37 62t7 201q0 197 -9 224q-16 49 -73 49q-58 0 -74 -49q-9 -27 -9 -224q0 -113 3.5 -160.5t11.5 -67.5t30 -35q9 -6 9 -14v-53q0 -10 -10 -10h-121q-10 0 -10 10v56q0 10 10 10h40v1q-19 18 -27.5 38t-13 71.5t-4.5 153.5
q0 138 2.5 180.5t10.5 66.5q16 49 55 75.5t97 26.5q57 0 96 -26.5t55 -75.5q8 -24 10.5 -66.5t2.5 -180.5q0 -102 -4.5 -153.5t-13 -71.5t-27.5 -38v-1h40q10 0 10 -10v-56q0 -10 -10 -10z" />
    <glyph glyph-name="Omega" unicode="&#x2126;" horiz-adv-x="421" 
d="M370 0h-121q-10 0 -10 10v53q0 7 10 14q30 21 37 62t7 201q0 197 -9 224q-16 49 -73 49q-58 0 -74 -49q-9 -27 -9 -224q0 -113 3.5 -160.5t11.5 -67.5t30 -35q9 -6 9 -14v-53q0 -10 -10 -10h-121q-10 0 -10 10v56q0 10 10 10h40v1q-19 18 -27.5 38t-13 71.5t-4.5 153.5
q0 138 2.5 180.5t10.5 66.5q16 49 55 75.5t97 26.5q57 0 96 -26.5t55 -75.5q8 -24 10.5 -66.5t2.5 -180.5q0 -102 -4.5 -153.5t-13 -71.5t-27.5 -38v-1h40q10 0 10 -10v-56q0 -10 -10 -10z" />
    <glyph glyph-name="pi" unicode="&#x3c0;" horiz-adv-x="406" 
d="M369 -6h-8q-52 0 -74.5 25t-22.5 82v300q0 6 -6 6h-106q-6 0 -6 -6v-391q0 -10 -10 -10h-57q-10 0 -10 10v391q0 6 -7 6h-34q-10 0 -10 10v52q0 10 10 10h352q10 0 10 -10v-52q0 -10 -10 -10h-35q-6 0 -6 -6v-302q0 -19 5.5 -26t20.5 -7h4q10 0 10 -10v-52q0 -10 -10 -10
z" />
    <glyph glyph-name="Wgrave" unicode="&#x1e80;" horiz-adv-x="576" 
d="M308 763h-39q-10 0 -19 10l-93 105q-3 4 -1.5 7t6.5 3h58q10 0 17 -10l76 -105q3 -4 1.5 -7t-6.5 -3zM433 0h-54q-8 0 -10 10l-79 484h-2l-82 -484q-2 -10 -10 -10h-53q-8 0 -10 10l-108 660q-2 10 8 10h61q10 0 11 -10l66 -488h2l83 488q1 10 10 10h44q9 0 10 -10
l83 -488h2l68 488q1 10 11 10h59q10 0 8 -10l-108 -660q-2 -10 -10 -10z" />
    <glyph glyph-name="wgrave" unicode="&#x1e81;" horiz-adv-x="526" 
d="M384 0h-49q-10 0 -11 10l-61 314h-2l-59 -314q-1 -10 -11 -10h-49q-10 0 -11 10l-104 459q-3 10 7 10h60q8 0 10 -10l63 -326h1l64 326q2 10 11 10h42q8 0 10 -10l63 -326h1l63 326q2 10 11 10h59q10 0 7 -10l-104 -459q-1 -10 -11 -10zM286 557h-40q-10 0 -17 10
l-87 123q-6 10 5 10h59q10 0 16 -10l69 -123q5 -10 -5 -10z" />
    <glyph glyph-name="Wacute" unicode="&#x1e82;" horiz-adv-x="576" 
d="M307 763h-38q-5 0 -7 3t1 7l77 105q7 10 16 10h58q5 0 6.5 -3t-1.5 -7l-93 -105q-9 -10 -19 -10zM433 0h-54q-8 0 -10 10l-79 484h-2l-82 -484q-2 -10 -10 -10h-53q-8 0 -10 10l-108 660q-2 10 8 10h61q10 0 11 -10l66 -488h2l83 488q1 10 10 10h44q9 0 10 -10l83 -488h2
l68 488q1 10 11 10h59q10 0 8 -10l-108 -660q-2 -10 -10 -10z" />
    <glyph glyph-name="wacute" unicode="&#x1e83;" horiz-adv-x="526" 
d="M283 557h-40q-10 0 -5 10l69 123q6 10 16 10h59q11 0 5 -10l-87 -123q-8 -10 -17 -10zM384 0h-49q-10 0 -11 10l-61 314h-2l-59 -314q-1 -10 -11 -10h-49q-10 0 -11 10l-104 459q-3 10 7 10h60q8 0 10 -10l63 -326h1l64 326q2 10 11 10h42q8 0 10 -10l63 -326h1l63 326
q2 10 11 10h59q10 0 7 -10l-104 -459q-1 -10 -11 -10z" />
    <glyph glyph-name="Wdieresis" unicode="&#x1e84;" horiz-adv-x="576" 
d="M385 777h-51q-10 0 -10 10v72q0 10 10 10h51q10 0 10 -10v-72q0 -10 -10 -10zM240 777h-51q-10 0 -10 10v72q0 10 10 10h51q10 0 10 -10v-72q0 -10 -10 -10zM433 0h-54q-8 0 -10 10l-79 484h-2l-82 -484q-2 -10 -10 -10h-53q-8 0 -10 10l-108 660q-2 10 8 10h61
q10 0 11 -10l66 -488h2l83 488q1 10 10 10h44q9 0 10 -10l83 -488h2l68 488q1 10 11 10h59q10 0 8 -10l-108 -660q-2 -10 -10 -10z" />
    <glyph glyph-name="wdieresis" unicode="&#x1e85;" horiz-adv-x="526" 
d="M360 588h-51q-10 0 -10 10v72q0 10 10 10h51q10 0 10 -10v-72q0 -10 -10 -10zM215 588h-51q-10 0 -10 10v72q0 10 10 10h51q10 0 10 -10v-72q0 -10 -10 -10zM384 0h-49q-10 0 -11 10l-61 314h-2l-59 -314q-1 -10 -11 -10h-49q-10 0 -11 10l-104 459q-3 10 7 10h60
q8 0 10 -10l63 -326h1l64 326q2 10 11 10h42q8 0 10 -10l63 -326h1l63 326q2 10 11 10h59q10 0 7 -10l-104 -459q-1 -10 -11 -10z" />
    <glyph glyph-name="Ygrave" unicode="&#x1ef2;" horiz-adv-x="375" 
d="M218 0h-61q-10 0 -10 10v271l-131 389q-3 10 7 10h63q9 0 12 -10l89 -285h3l89 285q3 10 11 10h62q10 0 7 -10l-131 -389v-271q0 -10 -10 -10zM222 763h-39q-10 0 -19 10l-93 105q-3 4 -1.5 7t6.5 3h58q10 0 17 -10l76 -105q3 -4 1.5 -7t-6.5 -3z" />
    <glyph glyph-name="ygrave" unicode="&#x1ef3;" horiz-adv-x="355" 
d="M73 -180h-11q-10 0 -10 10v53q0 10 10 10l12 1q22 1 33.5 12.5t18.5 42.5l17 66l-117 454q-2 10 8 10h60q8 0 10 -10l74 -327h2l74 327q2 10 11 10h58q10 0 7 -10l-131 -517q-20 -79 -46.5 -105.5t-79.5 -26.5zM209 557h-40q-9 0 -17 10l-87 123q-6 10 5 10h59
q10 0 16 -10l69 -123q5 -10 -5 -10z" />
    <glyph glyph-name="endash" unicode="&#x2013;" horiz-adv-x="392" 
d="M365 234h-338q-10 0 -10 10v44q0 10 10 10h338q10 0 10 -10v-44q0 -10 -10 -10z" />
    <glyph glyph-name="emdash" unicode="&#x2014;" horiz-adv-x="579" 
d="M552 234h-525q-10 0 -10 10v44q0 10 10 10h525q10 0 10 -10v-44q0 -10 -10 -10z" />
    <glyph glyph-name="quoteleft" unicode="&#x2018;" horiz-adv-x="156" 
d="M105 509h-54q-10 0 -10 10v64q0 13 6 23l48 67q5 8 12 8q8 0 8 -9v-153q0 -10 -10 -10z" />
    <glyph glyph-name="quoteright" unicode="&#x2019;" horiz-adv-x="156" 
d="M49 506q-8 0 -8 9v155q0 10 10 10h54q10 0 10 -10v-68q0 -12 -7 -23l-47 -66q-6 -7 -12 -7z" />
    <glyph glyph-name="quotesinglbase" unicode="&#x201a;" horiz-adv-x="156" 
d="M49 -89q-8 0 -8 9v155q0 10 10 10h54q10 0 10 -10v-67q0 -12 -7 -23l-47 -67q-6 -7 -12 -7z" />
    <glyph glyph-name="quotedblleft" unicode="&#x201c;" horiz-adv-x="272" 
d="M221 506h-54q-10 0 -10 10v68q0 13 7 23l47 66q5 8 11 8q9 0 9 -9v-156q0 -10 -10 -10zM105 506h-54q-10 0 -10 10v68q0 15 6 23l48 66q5 8 11 8q9 0 9 -9v-156q0 -10 -10 -10z" />
    <glyph glyph-name="quotedblright" unicode="&#x201d;" horiz-adv-x="272" 
d="M166 506q-9 0 -9 9v155q0 10 10 10h54q10 0 10 -10v-68q0 -12 -7 -23l-47 -66q-4 -7 -11 -7zM49 506q-8 0 -8 9v155q0 10 10 10h54q10 0 10 -10v-68q0 -12 -7 -23l-47 -66q-6 -7 -12 -7z" />
    <glyph glyph-name="quotedblbase" unicode="&#x201e;" horiz-adv-x="272" 
d="M166 -91q-9 0 -9 9v156q0 10 10 10h54q10 0 10 -10v-68q0 -12 -7 -23l-47 -66q-5 -8 -11 -8zM49 -91q-8 0 -8 9v156q0 10 10 10h54q10 0 10 -10v-68q0 -12 -7 -23l-47 -66q-6 -8 -12 -8z" />
    <glyph glyph-name="dagger" unicode="&#x2020;" horiz-adv-x="478" 
d="M267 -180h-55q-10 0 -10 10v534q0 6 -6 6h-113q-10 0 -10 10v49q0 10 10 10h113q6 0 6 6v225q0 10 10 10h55q10 0 10 -10v-225q0 -6 6 -6h113q10 0 10 -10v-49q0 -10 -10 -10h-113q-6 0 -6 -6v-534q0 -10 -10 -10z" />
    <glyph glyph-name="daggerdbl" unicode="&#x2021;" horiz-adv-x="478" 
d="M267 -180h-55q-10 0 -10 10v196q0 6 -6 6h-113q-10 0 -10 10v50q0 10 10 10h113q6 0 6 6v285q0 6 -6 6h-113q-10 0 -10 10v50q0 10 10 10h113q6 0 6 6v195q0 10 10 10h55q10 0 10 -10v-195q0 -6 6 -6h113q10 0 10 -10v-50q0 -10 -10 -10h-113q-6 0 -6 -6v-285q0 -6 6 -6
h113q10 0 10 -10v-50q0 -10 -10 -10h-113q-6 0 -6 -6v-196q0 -10 -10 -10z" />
    <glyph glyph-name="bullet" unicode="&#x2022;" horiz-adv-x="417" 
d="M209 192q-49 0 -82.5 33t-33.5 83t33 83t83 33t82.5 -33t32.5 -83t-33 -83t-82 -33z" />
    <glyph glyph-name="ellipsis" unicode="&#x2026;" horiz-adv-x="537" 
d="M482 0h-66q-10 0 -10 10v84q0 10 10 10h66q10 0 10 -10v-84q0 -10 -10 -10zM303 0h-66q-10 0 -10 10v84q0 10 10 10h66q10 0 10 -10v-84q0 -10 -10 -10zM124 0h-66q-10 0 -10 10v84q0 10 10 10h66q10 0 10 -10v-84q0 -10 -10 -10z" />
    <glyph glyph-name="perthousand" unicode="&#x2030;" horiz-adv-x="895" 
d="M218 -9h-39q-10 0 -7 10l245 678q4 10 13 10h39q10 0 7 -10l-245 -678q-4 -10 -13 -10zM153 329q-68 0 -86 58q-7 22 -7 121q0 98 7 120q18 58 86 58q69 0 87 -58q7 -22 7 -120q0 -99 -7 -121q-18 -58 -87 -58zM153 381q27 0 33 22q4 14 4 105q0 90 -4 104q-6 22 -33 22
q-26 0 -32 -22q-4 -9 -4 -104q0 -96 4 -105q6 -22 32 -22zM741 -6q-68 0 -87 58q-7 22 -7 120q0 99 7 121q19 58 87 58t86 -58q8 -22 8 -121q0 -98 -8 -120q-18 -58 -86 -58zM495 -6q-69 0 -87 58q-7 22 -7 120q0 99 7 121q18 58 87 58q68 0 86 -58q7 -22 7 -121
q0 -98 -7 -120q-18 -58 -86 -58zM741 46q26 0 32 22q4 9 4 104q0 96 -4 105q-6 22 -32 22q-25 0 -33 -22q-4 -14 -4 -105q0 -90 4 -104q8 -22 33 -22zM495 46q26 0 32 22q4 9 4 104q0 96 -4 105q-6 22 -32 22q-27 0 -33 -22q-4 -14 -4 -105q0 -90 4 -104q6 -22 33 -22z" />
    <glyph glyph-name="guilsinglleft" unicode="&#x2039;" horiz-adv-x="271" 
d="M200 91l-161 166q-7 7 0 14l161 166q3 3 6.5 1.5t3.5 -5.5v-60q0 -9 -9 -18l-84 -87q-4 -4 0 -8l84 -87q9 -9 9 -18v-60q0 -4 -3.5 -5.5t-6.5 1.5z" />
    <glyph glyph-name="guilsinglright" unicode="&#x203a;" horiz-adv-x="271" 
d="M71 91q-3 -3 -6.5 -1.5t-3.5 5.5v60q0 9 9 18l84 87q4 4 0 8l-84 87q-9 9 -9 18v60q0 4 3.5 5.5t6.5 -1.5l161 -166q7 -7 0 -14z" />
    <glyph glyph-name="fraction" unicode="&#x2044;" horiz-adv-x="140" 
d="M-36 -9h-39q-10 0 -7 10l245 678q4 10 13 10h39q10 0 7 -10l-245 -678q-4 -10 -13 -10z" />
    <glyph glyph-name="zero.superior" unicode="&#x2070;" horiz-adv-x="270" 
d="M135 423q-73 0 -94 60q-7 22 -7 150t7 150q21 60 94 60t94 -60q7 -22 7 -150t-7 -150q-21 -60 -94 -60zM135 479q27 0 35 24q4 11 4 130t-4 130q-8 24 -35 24t-35 -24q-4 -11 -4 -130t4 -130q8 -24 35 -24z" />
    <glyph glyph-name="four.superior" unicode="&#x2074;" horiz-adv-x="270" 
d="M204 430h-39q-10 0 -10 10v46q0 6 -6 6h-119q-10 0 -10 10v36q0 7 3 16l88 272q3 10 12 10h44q10 0 7 -10l-90 -276v-2h65q6 0 6 6v99q0 10 10 10h39q10 0 10 -10v-99q0 -6 5 -6h23q10 0 10 -10v-36q0 -10 -10 -10h-22q-6 0 -6 -6v-46q0 -10 -10 -10z" />
    <glyph glyph-name="five.superior" unicode="&#x2075;" horiz-adv-x="270" 
d="M135 423q-75 0 -94 61q-5 15 -5 34q0 10 9 12l39 4q11 2 11 -9q0 -14 3 -23q8 -23 36 -23q27 0 35 22q3 11 3 58q0 48 -3 57q-8 22 -35 22q-23 0 -33 -15q-7 -10 -16 -10h-36q-10 0 -10 10v203q0 10 10 10h174q10 0 10 -10v-36q0 -10 -10 -10h-120q-6 0 -6 -6v-95h1
q18 16 48 16q65 0 84 -56q5 -16 5 -80q0 -57 -6 -76q-19 -60 -94 -60z" />
    <glyph glyph-name="six.superior" unicode="&#x2076;" horiz-adv-x="270" 
d="M135 423q-75 0 -96 61q-5 16 -5 65q0 45 4 66.5t17 51.5l70 159q4 10 14 10h44q10 0 7 -10l-68 -155h1q8 4 23 4q66 0 84 -58q6 -17 6 -68q0 -49 -5 -65q-21 -61 -96 -61zM135 479q28 0 35 23q4 9 4 47t-4 46q-7 24 -35 24q-27 0 -36 -24q-3 -9 -3 -46t3 -47
q9 -23 36 -23z" />
    <glyph glyph-name="seven.superior" unicode="&#x2077;" horiz-adv-x="270" 
d="M117 430h-44q-11 0 -8 10l111 337v3h-73q-6 0 -6 -6v-37q0 -10 -10 -10h-40q-10 0 -10 10v89q0 10 10 10h183q10 0 10 -10v-36q0 -8 -3 -17l-108 -333q-3 -10 -12 -10z" />
    <glyph glyph-name="eight.superior" unicode="&#x2078;" horiz-adv-x="270" 
d="M135 423q-75 0 -96 61q-5 16 -5 63q0 41 5 53q8 28 31 42v1q-23 16 -31 42q-5 14 -5 44q0 37 5 53q21 61 96 61t96 -61q5 -16 5 -53q0 -30 -5 -44q-7 -25 -31 -42v-1q23 -15 31 -42q5 -12 5 -53q0 -47 -5 -63q-21 -61 -96 -61zM135 670q27 0 35 23q4 9 4 36q0 26 -4 35
q-7 23 -35 23q-27 0 -36 -23q-3 -10 -3 -35t3 -36q10 -23 36 -23zM135 479q28 0 35 23q4 9 4 45q0 35 -4 44q-8 23 -35 23q-26 0 -36 -23q-3 -11 -3 -44q0 -35 3 -45q9 -23 36 -23z" />
    <glyph glyph-name="nine.superior" unicode="&#x2079;" horiz-adv-x="270" 
d="M131 430h-44q-11 0 -8 10l69 155l-1 1q-8 -5 -24 -5q-65 0 -83 58q-6 17 -6 68q0 49 5 65q21 61 96 61t96 -61q5 -16 5 -65q0 -45 -4 -66.5t-17 -51.5l-71 -159q-4 -10 -13 -10zM135 647q28 0 35 24q4 8 4 46t-4 47q-7 23 -35 23q-27 0 -36 -23q-3 -10 -3 -47t3 -46
q9 -24 36 -24z" />
    <glyph glyph-name="zero.inferior" unicode="&#x2080;" horiz-adv-x="270" 
d="M135 -163q-73 0 -94 60q-7 22 -7 150t7 150q21 60 94 60t94 -60q7 -22 7 -150t-7 -150q-21 -60 -94 -60zM135 -107q27 0 35 24q4 11 4 130t-4 130q-8 24 -35 24t-35 -24q-4 -11 -4 -130t4 -130q8 -24 35 -24z" />
    <glyph glyph-name="one.inferior" unicode="&#x2081;" horiz-adv-x="270" 
d="M178 -156h-42q-10 0 -10 10v325h-1l-56 -35q-11 -7 -11 5v45q0 9 7 13l57 38q8 5 16 5h40q10 0 10 -10v-386q0 -10 -10 -10z" />
    <glyph glyph-name="two.inferior" unicode="&#x2082;" horiz-adv-x="270" 
d="M225 -156h-178q-10 0 -10 10v36q0 8 4 16l113 178q18 27 18 61q0 23 -3 34q-8 22 -35 22q-28 0 -35 -22q-4 -9 -4 -41q0 -11 -11 -9l-39 4q-9 1 -9 12q0 31 6 51q19 61 93 61q75 0 94 -61q6 -20 6 -51q0 -49 -29 -93l-96 -151v-1h115q10 0 10 -10v-36q0 -10 -10 -10z" />
    <glyph glyph-name="three.inferior" unicode="&#x2083;" horiz-adv-x="270" 
d="M134 -163q-74 0 -93 60q-6 19 -6 42q0 11 10 12l38 4q11 2 11 -10q0 -16 4 -30q7 -22 35 -22t35 22q4 14 4 44q0 35 -3 45q-7 22 -36 22h-8q-10 0 -10 10v37q0 10 10 10h7q30 0 37 21q3 11 3 39q0 22 -4 36q-7 22 -35 22t-35 -22q-4 -14 -4 -30q0 -12 -11 -10l-38 4
q-10 1 -10 12q0 23 6 42q19 60 93 60q75 0 94 -60q6 -19 6 -54q0 -37 -4 -49q-9 -27 -35 -38v-1q27 -13 34 -38q5 -14 5 -58q0 -43 -6 -62q-19 -60 -94 -60z" />
    <glyph glyph-name="four.inferior" unicode="&#x2084;" horiz-adv-x="270" 
d="M204 -156h-39q-10 0 -10 10v46q0 6 -6 6h-119q-10 0 -10 10v36q0 7 3 16l88 272q3 10 12 10h44q10 0 7 -10l-90 -276v-2h65q6 0 6 6v99q0 10 10 10h39q10 0 10 -10v-99q0 -6 5 -6h23q10 0 10 -10v-36q0 -10 -10 -10h-22q-6 0 -6 -6v-46q0 -10 -10 -10z" />
    <glyph glyph-name="five.inferior" unicode="&#x2085;" horiz-adv-x="270" 
d="M135 -163q-75 0 -94 61q-5 15 -5 34q0 10 9 12l39 4q11 2 11 -9q0 -14 3 -23q8 -23 36 -23q27 0 35 22q3 10 3 58t-3 57q-8 22 -35 22q-23 0 -33 -15q-7 -10 -16 -10h-36q-10 0 -10 10v203q0 10 10 10h174q10 0 10 -10v-36q0 -10 -10 -10h-120q-6 0 -6 -6v-95h1
q18 16 48 16q65 0 84 -56q5 -16 5 -80q0 -57 -6 -76q-19 -60 -94 -60z" />
    <glyph glyph-name="six.inferior" unicode="&#x2086;" horiz-adv-x="270" 
d="M135 -163q-75 0 -96 61q-5 16 -5 65q0 45 4 66.5t17 51.5l70 159q4 10 14 10h44q10 0 7 -10l-68 -155h1q8 4 23 4q66 0 84 -58q6 -17 6 -68q0 -49 -5 -65q-21 -61 -96 -61zM135 -107q28 0 35 23q4 9 4 47t-4 46q-7 24 -35 24q-27 0 -36 -24q-3 -9 -3 -46t3 -47
q9 -23 36 -23z" />
    <glyph glyph-name="seven.inferior" unicode="&#x2087;" horiz-adv-x="270" 
d="M117 -156h-44q-11 0 -8 10l111 337v3h-73q-6 0 -6 -6v-37q0 -10 -10 -10h-40q-10 0 -10 10v89q0 10 10 10h183q10 0 10 -10v-36q0 -8 -3 -17l-108 -333q-3 -10 -12 -10z" />
    <glyph glyph-name="eight.inferior" unicode="&#x2088;" horiz-adv-x="270" 
d="M135 -163q-75 0 -96 61q-5 16 -5 63q0 40 5 53q8 28 31 42v1q-23 16 -31 42q-5 14 -5 44q0 37 5 53q21 61 96 61t96 -61q5 -16 5 -53q0 -30 -5 -44q-7 -25 -31 -42v-1q23 -15 31 -42q5 -12 5 -53q0 -47 -5 -63q-21 -61 -96 -61zM135 84q27 0 35 23q4 9 4 36q0 26 -4 35
q-7 23 -35 23q-27 0 -36 -23q-3 -10 -3 -35t3 -36q10 -23 36 -23zM135 -107q28 0 35 23q4 9 4 45q0 35 -4 44q-8 23 -35 23q-26 0 -36 -23q-3 -10 -3 -44q0 -35 3 -45q9 -23 36 -23z" />
    <glyph glyph-name="nine.inferior" unicode="&#x2089;" horiz-adv-x="270" 
d="M131 -156h-44q-11 0 -8 10l69 155l-1 1q-8 -5 -24 -5q-65 0 -83 58q-6 17 -6 68q0 49 5 65q21 61 96 61t96 -61q5 -16 5 -65q0 -45 -4 -66.5t-17 -51.5l-71 -159q-4 -10 -13 -10zM135 61q28 0 35 24q4 8 4 46t-4 47q-7 23 -35 23q-27 0 -36 -23q-3 -10 -3 -47t3 -46
q9 -24 36 -24z" />
    <glyph glyph-name="Euro" unicode="&#x20ac;" 
d="M214 -9q-101 0 -131 93q-11 32 -11 161q0 6 -6 6h-40q-10 0 -10 10v39q0 10 10 10h40q6 0 6 6v54q0 6 -6 6h-40q-10 0 -10 10v39q0 10 10 10h40q6 0 6 6q0 123 11 155q30 93 131 93q62 0 99.5 -37.5t44.5 -98.5q2 -11 -7 -12l-54 -10q-10 -3 -12 7q-11 78 -69 78
q-45 0 -60 -42q-7 -22 -7 -133q0 -6 6 -6h142q10 0 10 -10l-10 -39q-2 -10 -10 -10h-132q-6 0 -6 -6v-54q0 -6 6 -6h127q10 0 10 -10l-10 -39q-3 -10 -10 -10h-117q-6 0 -6 -6q0 -115 7 -139q15 -42 60 -42q58 0 69 78q2 10 12 7l54 -10q9 -1 7 -12q-7 -61 -44.5 -98.5
t-99.5 -37.5z" />
    <glyph glyph-name="afii61289" unicode="&#x2113;" horiz-adv-x="385" 
d="M94 195q-7 -7 -14 0l-27 30q-7 7 1 14l70 74v207q0 83 28.5 126.5t82.5 43.5q47 0 73.5 -31.5t26.5 -87.5q0 -119 -134 -265v-201q0 -48 33 -48q16 0 34 15q9 7 14 -1l19 -28q6 -8 -2 -16q-37 -37 -85 -37q-90 0 -90 120v116zM201 542v-143q69 91 69 173q0 58 -32 58
q-37 0 -37 -88z" />
    <glyph glyph-name="trademark" unicode="&#x2122;" horiz-adv-x="645" 
d="M575 286h-36q-10 0 -10 10v232h-1l-51 -168q-3 -10 -11 -10h-22q-8 0 -11 10l-50 168h-1v-232q0 -10 -10 -10h-37q-10 0 -10 10v374q0 10 10 10h42q9 0 12 -10l67 -232h1l65 232q3 10 12 10h41q10 0 10 -10v-374q0 -10 -10 -10zM188 286h-40q-10 0 -10 10v322q0 5 -5 5
h-60q-10 0 -10 10v37q0 10 10 10h190q10 0 10 -10v-37q0 -10 -10 -10h-60q-5 0 -5 -5v-322q0 -10 -10 -10z" />
    <glyph glyph-name="estimated" unicode="&#x212e;" horiz-adv-x="587" 
d="M292 -9q-104 0 -168 72t-64 178t64 176.5t168 70.5q105 0 169 -68.5t65 -178.5h-364v-164q54 -52 130 -52q110 0 173 108l33 -20q-43 -65 -89.5 -93.5t-116.5 -28.5zM424 273v130q-58 55 -132 55q-77 0 -130 -55v-130h262z" />
    <glyph glyph-name="onethird" unicode="&#x2153;" horiz-adv-x="723" 
d="M200 274h-42q-10 0 -10 10v325h-1l-56 -35q-11 -7 -11 5v45q0 9 7 13l57 38q8 5 16 5h40q10 0 10 -10v-386q0 -10 -10 -10zM233 -9h-39q-10 0 -7 10l245 678q4 10 13 10h39q10 0 7 -10l-245 -678q-4 -10 -13 -10zM542 -7q-74 0 -93 60q-6 19 -6 42q0 11 10 12l38 4
q11 2 11 -10q0 -16 4 -30q7 -22 35 -22t35 22q4 14 4 44q0 35 -3 45q-7 22 -36 22h-8q-10 0 -10 10v37q0 10 10 10h7q30 0 37 21q3 10 3 39q0 22 -4 36q-7 22 -35 22t-35 -22q-4 -14 -4 -30q0 -12 -11 -10l-38 4q-10 1 -10 12q0 23 6 42q19 60 93 60q75 0 94 -60
q6 -20 6 -54q0 -37 -4 -49q-9 -27 -35 -38v-1q27 -13 34 -38q5 -14 5 -58q0 -43 -6 -62q-19 -60 -94 -60z" />
    <glyph glyph-name="twothirds" unicode="&#x2154;" horiz-adv-x="782" 
d="M269 274h-178q-10 0 -10 10v36q0 8 4 16l113 178q18 27 18 61q0 23 -3 34q-8 22 -35 22q-28 0 -35 -22q-4 -9 -4 -41q0 -11 -11 -9l-39 4q-9 1 -9 12q0 31 6 51q19 61 93 61q75 0 94 -61q6 -20 6 -51q0 -49 -29 -93l-96 -151v-1h115q10 0 10 -10v-36q0 -10 -10 -10z
M291 -9h-39q-10 0 -7 10l245 678q4 10 13 10h39q10 0 7 -10l-245 -678q-4 -10 -13 -10zM601 -7q-74 0 -93 60q-6 19 -6 42q0 11 10 12l38 4q11 2 11 -10q0 -16 4 -30q7 -22 35 -22t35 22q4 14 4 44q0 35 -3 45q-7 22 -36 22h-8q-10 0 -10 10v37q0 10 10 10h7q30 0 37 21
q3 10 3 39q0 22 -4 36q-7 22 -35 22t-35 -22q-4 -14 -4 -30q0 -12 -11 -10l-38 4q-10 1 -10 12q0 23 6 42q19 60 93 60q75 0 94 -60q6 -20 6 -54q0 -37 -4 -49q-9 -27 -35 -38v-1q27 -13 34 -38q5 -14 5 -58q0 -43 -6 -62q-19 -60 -94 -60z" />
    <glyph glyph-name="oneeighth" unicode="&#x215b;" horiz-adv-x="726" 
d="M200 274h-42q-10 0 -10 10v325h-1l-56 -35q-11 -7 -11 5v45q0 9 7 13l57 38q8 5 16 5h40q10 0 10 -10v-386q0 -10 -10 -10zM545 -7q-75 0 -96 61q-5 16 -5 63q0 41 5 53q8 28 31 42v1q-23 16 -31 42q-5 14 -5 44q0 37 5 53q21 61 96 61t96 -61q5 -16 5 -53q0 -30 -5 -44
q-7 -25 -31 -42v-1q23 -15 31 -42q5 -12 5 -53q0 -47 -5 -63q-21 -61 -96 -61zM545 240q27 0 35 23q4 9 4 36q0 26 -4 35q-7 23 -35 23q-27 0 -36 -23q-3 -10 -3 -35t3 -36q10 -23 36 -23zM545 49q28 0 35 23q4 9 4 45q0 35 -4 44q-8 23 -35 23q-26 0 -36 -23q-3 -11 -3 -44
q0 -35 3 -45q9 -23 36 -23zM233 -9h-39q-10 0 -7 10l245 678q4 10 13 10h39q10 0 7 -10l-245 -678q-4 -10 -13 -10z" />
    <glyph glyph-name="threeeighths" unicode="&#x215c;" horiz-adv-x="771" 
d="M590 -7q-75 0 -96 61q-5 16 -5 63q0 41 5 53q8 28 31 42v1q-23 16 -31 42q-5 14 -5 44q0 37 5 53q21 61 96 61t96 -61q5 -16 5 -53q0 -30 -5 -44q-7 -25 -31 -42v-1q23 -15 31 -42q5 -12 5 -53q0 -47 -5 -63q-21 -61 -96 -61zM590 240q27 0 35 23q4 9 4 36q0 26 -4 35
q-7 23 -35 23q-27 0 -36 -23q-3 -10 -3 -35t3 -36q10 -23 36 -23zM590 49q28 0 35 23q4 9 4 45q0 35 -4 44q-8 23 -35 23q-26 0 -36 -23q-3 -11 -3 -44q0 -35 3 -45q9 -23 36 -23zM278 -9h-39q-10 0 -7 10l245 678q4 10 13 10h39q10 0 7 -10l-245 -678q-4 -10 -13 -10z
M179 267q-74 0 -93 60q-6 19 -6 42q0 11 10 12l38 4q11 2 11 -10q0 -16 4 -30q7 -22 35 -22t35 22q4 14 4 44q0 35 -3 45q-7 22 -36 22h-8q-10 0 -10 10v37q0 10 10 10h7q30 0 37 21q3 10 3 39q0 22 -4 36q-7 22 -35 22t-35 -22q-4 -14 -4 -30q0 -12 -11 -10l-38 4
q-10 1 -10 12q0 23 6 42q19 60 93 60q75 0 94 -60q6 -19 6 -54q0 -37 -4 -49q-9 -27 -35 -38v-1q27 -13 34 -38q5 -14 5 -58q0 -43 -6 -62q-19 -60 -94 -60z" />
    <glyph glyph-name="fiveeighths" unicode="&#x215d;" horiz-adv-x="771" 
d="M590 -7q-75 0 -96 61q-5 16 -5 63q0 41 5 53q8 28 31 42v1q-23 16 -31 42q-5 14 -5 44q0 37 5 53q21 61 96 61t96 -61q5 -16 5 -53q0 -30 -5 -44q-7 -25 -31 -42v-1q23 -15 31 -42q5 -12 5 -53q0 -47 -5 -63q-21 -61 -96 -61zM590 240q27 0 35 23q4 9 4 36q0 26 -4 35
q-7 23 -35 23q-27 0 -36 -23q-3 -10 -3 -35t3 -36q10 -23 36 -23zM590 49q28 0 35 23q4 9 4 45q0 35 -4 44q-8 23 -35 23q-26 0 -36 -23q-3 -11 -3 -44q0 -35 3 -45q9 -23 36 -23zM278 -9h-39q-10 0 -7 10l245 678q4 10 13 10h39q10 0 7 -10l-245 -678q-4 -10 -13 -10z
M179 267q-75 0 -94 61q-5 15 -5 34q0 10 9 12l39 4q11 2 11 -9q0 -14 3 -23q8 -23 36 -23q27 0 35 22q3 11 3 58q0 48 -3 57q-8 22 -35 22q-23 0 -33 -15q-7 -10 -16 -10h-36q-10 0 -10 10v203q0 10 10 10h174q10 0 10 -10v-36q0 -10 -10 -10h-120q-6 0 -6 -6v-95h1
q18 16 48 16q65 0 84 -56q5 -16 5 -80q0 -57 -6 -76q-19 -60 -94 -60z" />
    <glyph glyph-name="seveneighths" unicode="&#x215e;" horiz-adv-x="722" 
d="M540 -7q-75 0 -96 61q-5 16 -5 63q0 41 5 53q8 28 31 42v1q-23 16 -31 42q-5 14 -5 44q0 37 5 53q21 61 96 61t96 -61q5 -16 5 -53q0 -30 -5 -44q-7 -25 -31 -42v-1q23 -15 31 -42q5 -12 5 -53q0 -47 -5 -63q-21 -61 -96 -61zM540 240q27 0 35 23q4 9 4 36q0 26 -4 35
q-7 23 -35 23q-27 0 -36 -23q-3 -10 -3 -35t3 -36q10 -23 36 -23zM540 49q28 0 35 23q4 9 4 45q0 35 -4 44q-8 23 -35 23q-26 0 -36 -23q-3 -11 -3 -44q0 -35 3 -45q9 -23 36 -23zM160 274h-44q-11 0 -8 10l111 337v3h-73q-6 0 -6 -6v-37q0 -10 -10 -10h-40q-10 0 -10 10v89
q0 10 10 10h183q10 0 10 -10v-36q0 -8 -3 -17l-108 -333q-3 -10 -12 -10zM228 -9h-39q-10 0 -7 10l245 678q4 10 13 10h39q10 0 7 -10l-245 -678q-4 -10 -13 -10z" />
    <glyph glyph-name="partialdiff" unicode="&#x2202;" horiz-adv-x="409" 
d="M182 -10q-65 0 -101 56t-36 148q0 100 42.5 163.5t113.5 63.5q59 0 91 -43h2q-2 114 -30.5 179t-81.5 65q-33 0 -66 -24q-9 -7 -14 2l-25 38q-5 8 3 14q52 38 108 38q87 0 131.5 -84t44.5 -237q0 -185 -46 -282t-136 -97zM189 59q91 0 103 240q-33 54 -81 54
q-44 0 -69.5 -42.5t-25.5 -112.5q0 -139 73 -139z" />
    <glyph glyph-name="product" unicode="&#x220f;" horiz-adv-x="512" 
d="M443 -180h-61q-10 0 -10 10v828q0 6 -6 6h-221q-6 0 -6 -6v-828q0 -10 -10 -10h-61q-10 0 -10 10v900q0 10 10 10h375q10 0 10 -10v-900q0 -10 -10 -10z" />
    <glyph glyph-name="summation" unicode="&#x2211;" horiz-adv-x="458" 
d="M411 -180h-365q-10 0 -10 10v54q0 5 2 9l176 427l-171 343q-3 6 -3 11v56q0 10 10 10h351q10 0 10 -10v-56q0 -10 -10 -10h-268l166 -331q3 -7 0 -14l-177 -423h289q10 0 10 -10v-56q0 -10 -10 -10z" />
    <glyph glyph-name="minus" unicode="&#x2212;" 
d="M338 241h-290q-10 0 -10 10v50q0 10 10 10h290q10 0 10 -10v-50q0 -10 -10 -10z" />
    <glyph glyph-name="uni2215" unicode="&#x2215;" horiz-adv-x="140" 
d="M-36 -9h-39q-10 0 -7 10l245 678q4 10 13 10h39q10 0 7 -10l-245 -678q-4 -10 -13 -10z" />
    <glyph glyph-name="uni2219" unicode="&#x2219;" horiz-adv-x="185" 
d="M125 213h-65q-10 0 -10 10v84q0 10 10 10h65q10 0 10 -10v-84q0 -10 -10 -10z" />
    <glyph glyph-name="radical" unicode="&#x221a;" horiz-adv-x="551" 
d="M306 -180h-47q-7 0 -12 10l-113 275q-3 6 -9 3l-59 -25q-10 -5 -13 4l-17 40q-4 10 4 13l116 52q10 5 14 -4l105 -260h3l189 802q3 10 12 10h49q11 0 8 -10l-218 -900q-3 -10 -12 -10z" />
    <glyph glyph-name="infinity" unicode="&#x221e;" horiz-adv-x="648" 
d="M486 97q-47 0 -83.5 23.5t-78.5 76.5q-44 -54 -80.5 -77t-80.5 -23q-65 0 -104.5 41t-39.5 109t40 109t104 41q45 0 81 -23.5t80 -77.5q46 56 81.5 78.5t79.5 22.5q65 0 105 -41t40 -109t-40 -109t-104 -41zM483 156q39 0 62 25.5t23 66.5q0 40 -23.5 65t-62.5 25
q-27 0 -54 -20t-66 -71q39 -50 65 -70.5t56 -20.5zM165 156q28 0 55 20t66 71q-69 91 -120 91q-39 0 -62.5 -24.5t-23.5 -65.5t23 -66.5t62 -25.5z" />
    <glyph glyph-name="integral" unicode="&#x222b;" horiz-adv-x="292" 
d="M54 -180q-13 0 -18 1q-10 0 -10 10v54q0 10 10 10h12q31 0 45 19t14 64v599q0 163 131 163q13 0 18 -1q10 0 10 -10v-54q0 -10 -10 -10h-13q-31 0 -44.5 -19t-13.5 -64v-599q0 -163 -131 -163z" />
    <glyph glyph-name="approxequal" unicode="&#x2248;" 
d="M254 304q-29 0 -69 25q-31 21 -48 21t-27.5 -8.5t-25.5 -32.5q-5 -8 -14 -3l-33 18q-8 5 -4 14q41 76 99 76q37 0 69 -25q29 -22 48 -22q16 0 27.5 9t25.5 33q5 8 14 3l32 -18q10 -5 4 -15q-40 -75 -98 -75zM254 139q-31 0 -69 26q-31 21 -48 21t-27.5 -8.5t-25.5 -32.5
q-5 -8 -14 -4l-33 19q-8 5 -4 14q42 76 99 76q31 0 69 -26q34 -21 48 -21q16 0 27.5 8.5t25.5 32.5q5 8 14 4l32 -18q10 -5 4 -15q-40 -76 -98 -76z" />
    <glyph glyph-name="notequal" unicode="&#x2260;" 
d="M338 329h-90l-50 -106h140q10 0 10 -10v-49q0 -10 -10 -10h-173l-37 -78q-4 -10 -13 -10h-39q-12 0 -7 10l37 78h-58q-10 0 -10 10v49q0 10 10 10h91l50 106h-141q-10 0 -10 10v49q0 10 10 10h174l36 76q4 10 13 10h39q12 0 7 -10l-36 -76h57q10 0 10 -10v-49
q0 -10 -10 -10z" />
    <glyph glyph-name="lessequal" unicode="&#x2264;" 
d="M338 135l-290 118q-10 3 -10 14v44q0 11 10 14l290 119q10 3 10 -7v-54q0 -9 -10 -13l-202 -80v-2l202 -79q10 -4 10 -13v-54q0 -10 -10 -7zM338 0h-290q-10 0 -10 10v50q0 10 10 10h290q10 0 10 -10v-50q0 -10 -10 -10z" />
    <glyph glyph-name="greaterequal" unicode="&#x2265;" 
d="M48 135q-10 -4 -10 7v54q0 9 10 13l203 79v2l-203 80q-10 4 -10 13v54q0 11 10 7l290 -119q10 -3 10 -14v-44q0 -11 -10 -14zM338 0h-290q-10 0 -10 10v50q0 10 10 10h290q10 0 10 -10v-50q0 -10 -10 -10z" />
    <glyph glyph-name="lozenge" unicode="&#x25ca;" horiz-adv-x="429" 
d="M240 -52h-51q-9 0 -13 10l-150 364q-3 7 0 14l150 364q4 10 13 10h51q9 0 13 -10l150 -364q3 -7 0 -14l-150 -364q-4 -10 -13 -10zM216 33h2l116 296l-119 295h-2l-118 -295z" />
    <glyph glyph-name="uniF8FF" unicode="&#xf8ff;" horiz-adv-x="376" 
d="M366 0h-356q-10 0 -10 10v660q0 10 10 10h356q10 0 10 -10v-660q0 -10 -10 -10zM321 46q6 0 6 6v576q0 6 -6 6h-267q-6 0 -6 -6v-576q0 -6 6 -6h267zM204 222h-33q-10 0 -10 10v47q0 21 12 45l35 67q19 37 19 67q0 21 -4 32q-7 24 -36 24t-36 -24q-4 -11 -4 -44
q0 -11 -11 -9l-32 4q-9 1 -9 11q0 35 6 53q8 27 31 42.5t56 15.5q32 0 55 -15.5t31 -42.5q6 -18 6 -45q0 -41 -21 -80l-35 -67q-10 -22 -10 -37v-44q0 -10 -10 -10zM207 114h-38q-10 0 -10 10v49q0 10 10 10h38q10 0 10 -10v-49q0 -10 -10 -10z" />
    <glyph glyph-name="CR" horiz-adv-x="0" 
 />
    <glyph glyph-name="grave.cap" horiz-adv-x="390" 
d="M268 763h-39q-10 0 -19 10l-93 105q-3 4 -1.5 7t6.5 3h58q10 0 17 -10l76 -105q3 -4 1.5 -7t-6.5 -3z" />
    <glyph glyph-name="acute.cap" horiz-adv-x="390" 
d="M167 763h-38q-5 0 -7 3t1 7l77 105q7 10 16 10h58q5 0 6.5 -3t-1.5 -7l-93 -105q-9 -10 -19 -10z" />
    <glyph glyph-name="circumflex.cap" horiz-adv-x="390" 
d="M307 752h-42q-10 0 -17 10l-52 71h-2l-52 -71q-7 -10 -17 -10h-42q-12 0 -5 10l82 123q6 10 17 10h36q11 0 17 -10l82 -123q7 -10 -5 -10z" />
    <glyph glyph-name="caron.cap" horiz-adv-x="390" 
d="M213 750h-36q-11 0 -17 9l-82 124q-3 4 -1.5 7t6.5 3h42q10 0 17 -10l52 -72h2l52 72q7 10 17 10h42q5 0 6.5 -3t-1.5 -7l-82 -124q-6 -9 -17 -9z" />
    <glyph glyph-name="caron.alt" horiz-adv-x="390" 
d="M168 524q-9 0 -9 9v137q0 10 10 10h52q10 0 10 -10v-50q0 -13 -6 -23l-45 -66q-4 -7 -12 -7z" />
    <glyph glyph-name="tilde.cap" horiz-adv-x="390" 
d="M236 773q-23 0 -49 19q-22 16 -35 16q-22 0 -44 -27q-4 -4 -8 -3t-4 6v47q0 9 9 18q22 24 48 24q19 0 48 -19q23 -17 36 -17q21 0 44 28q3 4 7 2.5t4 -6.5v-47q0 -9 -8 -17q-21 -24 -48 -24z" />
    <glyph glyph-name="dieresis.cap" horiz-adv-x="390" 
d="M293 777h-51q-10 0 -10 10v72q0 10 10 10h51q10 0 10 -10v-72q0 -10 -10 -10zM148 777h-51q-10 0 -10 10v72q0 10 10 10h51q10 0 10 -10v-72q0 -10 -10 -10z" />
    <glyph glyph-name="macron.cap" horiz-adv-x="390" 
d="M292 790h-194q-10 0 -10 10v43q0 10 10 10h194q10 0 10 -10v-43q0 -10 -10 -10z" />
    <glyph glyph-name="breve.cap" horiz-adv-x="390" 
d="M195 753q-51 0 -80 30.5t-34 80.5q0 10 10 10h32q8 0 10 -10q16 -55 62 -55t61 55q3 10 11 10h32q10 0 10 -10q-5 -50 -34 -80.5t-80 -30.5z" />
    <glyph glyph-name="ring.cap" horiz-adv-x="390" 
d="M195 731q-37 0 -61.5 24.5t-24.5 61.5t24.5 61.5t61.5 24.5t61.5 -24.5t24.5 -61.5t-24.5 -61.5t-61.5 -24.5zM195 768q20 0 33.5 14t13.5 35t-13.5 35t-33.5 14t-33.5 -14t-13.5 -35t13.5 -35t33.5 -14z" />
    <glyph glyph-name="hungarumlaut.cap" horiz-adv-x="390" 
d="M262 763h-35q-12 0 -5 10l68 105q7 10 16 10h49q11 0 5 -10l-80 -105q-8 -10 -18 -10zM138 763h-34q-12 0 -5 10l67 105q7 10 17 10h49q4 0 5.5 -3t-1.5 -7l-79 -105q-7 -10 -19 -10z" />
    <glyph glyph-name="dotaccent.cap" horiz-adv-x="390" 
d="M226 777h-63q-10 0 -10 10v72q0 10 10 10h63q10 0 10 -10v-72q0 -10 -10 -10z" />
    <glyph glyph-name="commaaccent" horiz-adv-x="390" 
d="M167 -208q-8 0 -8 10v135q0 10 10 10h53q10 0 10 -10v-49q0 -12 -7 -22l-46 -66q-4 -8 -12 -8z" />
    <glyph glyph-name="commaaccent.alt" horiz-adv-x="390" 
d="M222 572h-53q-10 0 -10 10v49q0 14 6 22l46 66q5 8 12 8q9 0 9 -10v-135q0 -10 -10 -10z" />
    <glyph glyph-name="uni0394" horiz-adv-x="406" 
d="M379 0h-352q-11 0 -9 10l145 660q3 10 11 10h60q9 0 11 -10l143 -660q2 -10 -9 -10zM290 76q6 0 4 6l-89 443h-3l-91 -443q-1 -6 5 -6h174z" />
    <glyph glyph-name="uni03A9" horiz-adv-x="421" 
d="M370 0h-121q-10 0 -10 10v53q0 7 10 14q30 21 37 62t7 201q0 197 -9 224q-16 49 -73 49q-58 0 -74 -49q-9 -27 -9 -224q0 -113 3.5 -160.5t11.5 -67.5t30 -35q9 -6 9 -14v-53q0 -10 -10 -10h-121q-10 0 -10 10v56q0 10 10 10h40v1q-19 18 -27.5 38t-13 71.5t-4.5 153.5
q0 138 2.5 180.5t10.5 66.5q16 49 55 75.5t97 26.5q57 0 96 -26.5t55 -75.5q8 -24 10.5 -66.5t2.5 -180.5q0 -102 -4.5 -153.5t-13 -71.5t-27.5 -38v-1h40q10 0 10 -10v-56q0 -10 -10 -10z" />
    <glyph glyph-name="uni03BC" horiz-adv-x="394" 
d="M326 0h-57q-10 0 -10 10v38h-1q-20 -57 -80 -57q-30 0 -43 19v-180q0 -10 -10 -10h-57q-10 0 -10 10v639q0 10 10 10h57q10 0 10 -10v-319q0 -87 62 -87t62 87v319q0 10 10 10h57q10 0 10 -10v-459q0 -10 -10 -10z" />
    <glyph glyph-name="exclam.sc" horiz-adv-x="206" 
d="M120 170h-34q-10 0 -10 10l-15 329q0 10 10 10h64q10 0 10 -10l-15 -329q0 -10 -10 -10zM136 0h-66q-10 0 -10 10v84q0 10 10 10h66q10 0 10 -10v-84q0 -10 -10 -10z" />
    <glyph glyph-name="dollar.sc" horiz-adv-x="362" 
d="M188 -56h-15q-10 0 -10 10v38q-117 7 -126 134q0 11 8 12l49 8q9 1 11 -8q4 -73 58 -80v178l-13 4q-57 17 -82 50.5t-25 94.5q0 66 31 102t89 40v27q0 10 10 10h15q10 0 10 -10v-27q104 -10 116 -127q0 -11 -8 -12l-47 -7q-9 -2 -11 8q-8 63 -50 70v-159l10 -3
q61 -19 85.5 -53.5t24.5 -101.5q0 -142 -120 -150v-38q0 -10 -10 -10zM114 387q0 -31 10.5 -48t38.5 -28v149q-49 -7 -49 -73zM248 141q0 61 -50 83v-165q26 5 38 23.5t12 58.5z" />
    <glyph glyph-name="percent.sc" horiz-adv-x="623" 
d="M223 -9h-39q-10 0 -7 10l211 516q4 10 13 10h38q10 0 7 -10l-211 -516q-3 -10 -12 -10zM154 255q-65 0 -81 52q-7 20 -7 83q0 64 7 82q17 53 81 53t82 -53q7 -23 7 -82q0 -58 -7 -83q-18 -52 -82 -52zM154 305q21 0 29 19q3 10 3 66q0 54 -3 65q-8 19 -29 19
q-22 0 -28 -19q-3 -11 -3 -65q0 -56 3 -66q6 -19 28 -19zM469 -6q-64 0 -81 53q-7 18 -7 82t7 82q17 53 81 53t81 -53q7 -18 7 -82t-7 -82q-17 -53 -81 -53zM469 44q22 0 28 20q4 9 4 65t-4 65q-6 20 -28 20t-28 -20q-4 -9 -4 -65t4 -65q6 -20 28 -20z" />
    <glyph glyph-name="ampersand.sc" horiz-adv-x="483" 
d="M419 -4h-21q-24 0 -35.5 5.5t-22.5 21.5l-23 31q-54 -63 -127 -63q-59 0 -92 32t-33 86q0 38 19.5 74.5t73.5 92.5l-12 17q-30 42 -41.5 68t-11.5 53q0 49 34 81.5t88 32.5q53 0 86.5 -32.5t33.5 -81.5q0 -29 -18 -58.5t-69 -83.5l72 -97l40 65q5 8 14 4l38 -25
q9 -5 4 -14l-55 -87l26 -34q13 -19 29 -19h3q10 0 10 -10v-49q0 -10 -10 -10zM165 416q0 -29 43 -89q34 34 45 52.5t11 36.5q0 22 -13 36t-36 14q-22 0 -36 -14.5t-14 -35.5zM197 60q40 0 80 50l-79 110q-35 -37 -48 -58.5t-13 -44.5q0 -26 16 -41.5t44 -15.5z" />
    <glyph glyph-name="zero.sc" horiz-adv-x="362" 
d="M181 -9q-47 0 -79 22t-45 62q-9 26 -9 185t9 185q27 83 124 83t124 -83q9 -26 9 -185t-9 -185q-13 -40 -45 -62t-79 -22zM181 64q39 0 51 35q5 17 5 161q0 143 -5 161q-12 35 -51 35t-51 -35q-5 -18 -5 -161q0 -144 5 -161q12 -35 51 -35z" />
    <glyph glyph-name="one.sc" horiz-adv-x="362" 
d="M226 0h-58q-10 0 -10 10v419h-1l-78 -46q-11 -5 -11 7v60q0 8 7 14l79 50q8 5 16 5h56q10 0 10 -10v-499q0 -10 -10 -10z" />
    <glyph glyph-name="two.sc" horiz-adv-x="362" 
d="M303 0h-245q-9 0 -9 9v51q0 8 3 12l155 219q17 24 22.5 42t5.5 51q0 27 -4 38q-12 34 -51 34q-40 0 -52 -34q-4 -11 -4 -42q0 -11 -12 -9l-54 5q-9 2 -9 12q0 38 6 57q27 83 125 83t124 -83q9 -25 9 -62q0 -45 -10.5 -73.5t-34.5 -62.5l-126 -174v-1h161q10 0 10 -10v-52
q0 -10 -10 -10z" />
    <glyph glyph-name="three.sc" horiz-adv-x="362" 
d="M179 -9q-98 0 -125 83q-6 19 -6 49q0 11 9 12l54 5q12 2 12 -9q0 -22 4 -34q12 -33 52 -33q39 0 51 33q4 12 4 53q0 38 -3 49q-11 33 -56 33h-13q-10 0 -10 10v51q0 10 10 10h13q45 0 56 32q3 11 3 42q0 34 -4 45q-12 34 -51 34q-40 0 -52 -34q-4 -11 -4 -33
q0 -12 -12 -10l-54 6q-9 1 -9 12q0 29 6 48q27 83 125 83t124 -83q9 -25 9 -68q0 -36 -6 -54q-11 -33 -47 -52v-2q36 -19 47 -53q6 -18 6 -66q0 -51 -9 -76q-26 -83 -124 -83z" />
    <glyph glyph-name="four.sc" horiz-adv-x="362" 
d="M274 0h-56q-10 0 -10 10v60q0 6 -6 6h-165q-10 0 -10 10v52q0 5 2 11l127 362q3 8 12 8h58q11 0 8 -11l-126 -358v-2h94q6 0 6 6v134q0 10 10 10h56q10 0 10 -10v-134q0 -6 5 -6h37q10 0 10 -10v-52q0 -10 -10 -10h-36q-6 0 -6 -6v-60q0 -10 -10 -10z" />
    <glyph glyph-name="five.sc" horiz-adv-x="362" 
d="M181 -9q-99 0 -125 83q-6 16 -6 39q0 11 10 12l53 5q11 1 13 -9q0 -12 4 -24q11 -33 51 -33q39 0 51 33q4 16 4 68q0 55 -5 68q-12 33 -50 33q-33 0 -49 -22q-5 -8 -16 -8h-47q-10 0 -10 10v263q0 10 10 10h235q10 0 10 -10v-52q0 -10 -10 -10h-169q-6 0 -6 -6v-124h1
q24 21 70 21q82 0 106 -74q8 -26 8 -99q0 -67 -9 -92q-26 -82 -124 -82z" />
    <glyph glyph-name="six.sc" horiz-adv-x="362" 
d="M181 -9q-97 0 -125 83q-8 27 -8 76q0 86 29 148l99 212q4 9 15 9h58q11 0 6 -10l-98 -206l2 -1q14 7 39 7q83 0 108 -76q8 -27 8 -83q0 -49 -8 -76q-28 -83 -125 -83zM181 64q39 0 51 33q5 15 5 53t-5 53q-12 33 -51 33t-51 -33q-5 -15 -5 -53t5 -53q12 -33 51 -33z" />
    <glyph glyph-name="seven.sc" horiz-adv-x="362" 
d="M150 0h-56q-12 0 -7 12l159 434v1h-115q-6 0 -6 -6v-46q0 -10 -10 -10h-52q-10 0 -10 10v114q0 10 10 10h250q10 0 10 -10v-54q0 -6 -3 -12l-156 -433q-3 -10 -14 -10z" />
    <glyph glyph-name="eight.sc" horiz-adv-x="362" 
d="M181 -9q-97 0 -125 83q-8 27 -8 76q0 42 7 67q14 39 42 54v2q-29 15 -42 54q-7 25 -7 55q0 36 8 63q28 83 125 83t125 -83q8 -27 8 -63q0 -30 -7 -55q-13 -39 -42 -54v-2q28 -15 42 -54q7 -25 7 -67q0 -49 -8 -76q-28 -83 -125 -83zM181 308q39 0 51 34q5 13 5 40t-5 40
q-12 34 -51 34t-51 -34q-5 -13 -5 -40t5 -40q12 -34 51 -34zM181 64q39 0 51 33q5 15 5 53q0 39 -5 52q-12 34 -51 34t-51 -34q-5 -13 -5 -52q0 -38 5 -53q12 -33 51 -33z" />
    <glyph glyph-name="nine.sc" horiz-adv-x="362" 
d="M171 0h-58q-11 0 -6 11l98 205l-2 1q-12 -6 -39 -6q-83 0 -108 75q-8 29 -8 83q0 49 8 76q28 83 125 83t125 -83q8 -27 8 -76q0 -85 -29 -148l-99 -212q-4 -9 -15 -9zM181 283q39 0 51 34q5 13 5 52q0 40 -5 53q-12 34 -51 34t-51 -34q-5 -13 -5 -53q0 -39 5 -52
q12 -34 51 -34z" />
    <glyph glyph-name="question.sc" horiz-adv-x="313" 
d="M184 156h-59q-10 0 -10 10v34q0 33 16 55l47 65q28 40 28 74q0 16 -4 30q-12 32 -50 32q-37 0 -49 -32q-4 -10 -5 -41q0 -11 -10 -9l-56 7q-9 1 -9 10q0 37 8 61q13 37 45 56.5t77 19.5q95 0 122 -78q8 -21 8 -52q0 -54 -30 -94l-46 -64q-13 -18 -13 -45v-29
q0 -10 -10 -10zM187 0h-65q-10 0 -10 10v84q0 10 10 10h65q10 0 10 -10v-84q0 -10 -10 -10z" />
    <glyph glyph-name="a.sc" horiz-adv-x="370" 
d="M347 0h-57q-8 0 -11 10l-24 99h-140l-24 -99q-3 -10 -11 -10h-57q-11 0 -8 10l130 499q3 10 12 10h57q9 0 12 -10l129 -499q3 -10 -8 -10zM184 392l-52 -212h106l-51 212h-3z" />
    <glyph glyph-name="b.sc" horiz-adv-x="382" 
d="M180 0h-111q-10 0 -10 10v499q0 10 10 10h120q82 0 117.5 -31t35.5 -101q0 -92 -69 -116v-1q76 -17 76 -121q0 -80 -40 -114.5t-129 -34.5zM183 301q43 0 61.5 16.5t18.5 56.5q0 42 -17.5 58t-62.5 16h-41q-6 0 -6 -6v-135q0 -6 6 -6h41zM182 71q50 0 69.5 17.5
t19.5 62.5t-19.5 62.5t-66.5 17.5h-43q-6 0 -6 -6v-148q0 -6 6 -6h40z" />
    <glyph glyph-name="c.sc" horiz-adv-x="369" 
d="M192 -9q-50 0 -85 24.5t-49 69.5q-11 38 -11 175q0 136 11 174q14 45 49 69.5t85 24.5q59 0 96.5 -32.5t45.5 -93.5q1 -9 -8 -12l-53 -9q-10 -2 -12 9q-12 66 -68 66q-47 0 -61 -45q-8 -24 -8 -151q0 -128 8 -152q13 -44 61 -44q56 0 68 66q2 10 12 8l53 -9q9 -3 8 -12
q-8 -61 -45.5 -93.5t-96.5 -32.5z" />
    <glyph glyph-name="d.sc" horiz-adv-x="404" 
d="M201 0h-132q-10 0 -10 10v499q0 10 10 10h132q114 0 143 -91q14 -41 14 -168q0 -129 -14 -168q-16 -47 -50 -69.5t-93 -22.5zM193 72q62 0 78 51q9 26 9 137t-9 137q-16 50 -78 50h-51q-6 0 -6 -6v-363q0 -6 6 -6h51z" />
    <glyph glyph-name="e.sc" horiz-adv-x="344" 
d="M305 0h-236q-10 0 -10 10v499q0 10 10 10h236q10 0 10 -10v-52q0 -10 -10 -10h-163q-6 0 -6 -6v-137q0 -6 6 -6h141q10 0 10 -10v-52q0 -10 -10 -10h-141q-6 0 -6 -6v-142q0 -6 6 -6h163q10 0 10 -10v-52q0 -10 -10 -10z" />
    <glyph glyph-name="f.sc" horiz-adv-x="342" 
d="M126 0h-57q-10 0 -10 10v499q0 10 10 10h236q10 0 10 -10v-52q0 -10 -10 -10h-163q-6 0 -6 -6v-138q0 -6 6 -6h141q10 0 10 -10v-52q0 -10 -10 -10h-141q-6 0 -6 -6v-209q0 -10 -10 -10z" />
    <glyph glyph-name="g.sc" horiz-adv-x="392" 
d="M196 -9q-52 0 -88 25t-50 69q-11 33 -11 175t11 175q14 44 50 68.5t88 24.5q61 0 100 -32.5t46 -92.5q2 -9 -7 -11l-53 -9q-10 -3 -12 8q-12 65 -73 65q-51 0 -66 -45q-7 -25 -7 -151t7 -152q15 -44 67 -44t67 44q7 21 7 106q0 6 -6 6h-62q-10 0 -10 10v49q0 10 10 10
h131q10 0 10 -10v-23q0 -138 -11 -171q-14 -44 -50 -69t-88 -25z" />
    <glyph glyph-name="h.sc" horiz-adv-x="413" 
d="M344 0h-57q-10 0 -10 10v213q0 6 -6 6h-129q-6 0 -6 -6v-213q0 -10 -10 -10h-57q-10 0 -10 10v499q0 10 10 10h57q10 0 10 -10v-202q0 -6 6 -6h129q6 0 6 6v202q0 10 10 10h57q10 0 10 -10v-499q0 -10 -10 -10z" />
    <glyph glyph-name="i.sc" horiz-adv-x="195" 
d="M126 0h-57q-10 0 -10 10v499q0 10 10 10h57q10 0 10 -10v-499q0 -10 -10 -10z" />
    <glyph glyph-name="j.sc" horiz-adv-x="319" 
d="M121 -9q-62 0 -96 36q-6 7 1 14l39 37q7 7 15 0q22 -14 44 -14q61 0 61 69v376q0 10 10 10h57q10 0 10 -10v-373q0 -72 -37 -108.5t-104 -36.5z" />
    <glyph glyph-name="k.sc" horiz-adv-x="396" 
d="M370 0h-63q-8 0 -11 7l-108 232l-52 -85v-144q0 -10 -10 -10h-57q-10 0 -10 10v499q0 10 10 10h57q10 0 10 -10v-235l140 238q4 7 13 7h61q10 0 5 -9l-122 -198l142 -302q2 -4 0.5 -7t-5.5 -3z" />
    <glyph glyph-name="l.sc" horiz-adv-x="331" 
d="M301 0h-232q-10 0 -10 10v499q0 10 10 10h57q10 0 10 -10v-431q0 -6 6 -6h159q10 0 10 -10v-52q0 -10 -10 -10z" />
    <glyph glyph-name="m.sc" horiz-adv-x="508" 
d="M439 0h-51q-10 0 -10 10v347h-4l-92 -255q-3 -10 -12 -10h-32q-9 0 -12 10l-92 255h-4v-347q0 -10 -10 -10h-51q-10 0 -10 10v499q0 10 10 10h58q12 0 15 -10l111 -307h4l109 307q4 10 16 10h57q10 0 10 -10v-499q0 -10 -10 -10z" />
    <glyph glyph-name="n.sc" horiz-adv-x="424" 
d="M355 0h-66q-12 0 -16 10l-141 377h-3v-377q0 -10 -10 -10h-50q-10 0 -10 10v499q0 10 10 10h69q13 0 16 -10l137 -374h4v374q0 10 10 10h50q10 0 10 -10v-499q0 -10 -10 -10z" />
    <glyph glyph-name="o.sc" horiz-adv-x="392" 
d="M196 -9q-52 0 -88 25t-50 69q-11 33 -11 175t11 175q14 44 50 68.5t88 24.5t88 -24.5t50 -68.5q11 -33 11 -175t-11 -175q-14 -44 -50 -69t-88 -25zM196 64q50 0 65 44q7 21 7 152t-7 151q-15 45 -65 45t-65 -45q-7 -25 -7 -151t7 -152q15 -44 65 -44z" />
    <glyph glyph-name="p.sc" horiz-adv-x="379" 
d="M126 0h-57q-10 0 -10 10v499q0 10 10 10h122q158 0 158 -157q0 -158 -158 -158h-49q-6 0 -6 -6v-188q0 -10 -10 -10zM184 275q47 0 67.5 19.5t20.5 67.5q0 47 -20.5 66.5t-67.5 19.5h-42q-6 0 -6 -6v-161q0 -6 6 -6h42z" />
    <glyph glyph-name="q.sc" horiz-adv-x="392" 
d="M360 9l-28 -28q-7 -7 -14 1l-33 39q-38 -30 -89 -30q-52 0 -88 24.5t-50 68.5q-11 32 -11 176q0 143 11 176q14 44 50 68.5t88 24.5t88 -24.5t50 -68.5q11 -33 11 -176q0 -162 -24 -198l39 -39q6 -8 0 -14zM196 60q28 0 44 10l-42 44q-8 8 0 14l24 24q8 6 14 -1l28 -32h2
q3 25 3 141q0 133 -7 153q-14 44 -66 44t-66 -44q-7 -20 -7 -153q0 -135 7 -153q14 -47 66 -47z" />
    <glyph glyph-name="r.sc" horiz-adv-x="395" 
d="M352 0h-60q-10 0 -13 9l-73 203h-16h-48q-6 0 -6 -6v-196q0 -10 -10 -10h-57q-10 0 -10 10v499q0 10 10 10h121q77 0 117.5 -38.5t40.5 -114.5q0 -100 -72 -136l83 -220q3 -10 -7 -10zM183 283q47 0 67.5 19.5t20.5 63.5t-20.5 63t-67.5 19h-41q-6 0 -6 -6v-153
q0 -6 6 -6h41z" />
    <glyph glyph-name="s.sc" horiz-adv-x="363" 
d="M186 -9q-139 0 -150 136q0 10 8 11l55 9q9 2 11 -8q9 -78 74 -78q35 0 52 19t17 63q0 35 -14.5 53.5t-51.5 31.5l-37 12q-59 19 -82.5 51t-23.5 94q0 67 37 105t101 38q130 0 143 -127q2 -11 -7 -12l-53 -8q-11 -2 -11 9q-8 68 -69 68q-65 0 -65 -72q0 -31 13 -48.5
t49 -29.5l37 -12q61 -19 85.5 -52.5t24.5 -99.5q0 -74 -36 -113.5t-107 -39.5z" />
    <glyph glyph-name="t.sc" horiz-adv-x="345" 
d="M201 0h-57q-10 0 -10 10v431q0 6 -6 6h-101q-10 0 -10 10v52q0 10 10 10h291q10 0 10 -10v-52q0 -10 -10 -10h-101q-6 0 -6 -6v-431q0 -10 -10 -10z" />
    <glyph glyph-name="u.sc" horiz-adv-x="409" 
d="M205 -9q-68 0 -107.5 40t-39.5 113v365q0 10 10 10h57q10 0 10 -10v-364q0 -81 70 -81q69 0 69 81v364q0 10 10 10h57q10 0 10 -10v-365q0 -73 -39 -113t-107 -40z" />
    <glyph glyph-name="v.sc" horiz-adv-x="359" 
d="M206 0h-52q-8 0 -10 10l-123 499q-2 10 9 10h57q10 0 11 -10l82 -369h3l80 369q1 10 11 10h56q10 0 8 -10l-122 -499q-2 -10 -10 -10z" />
    <glyph glyph-name="w.sc" horiz-adv-x="527" 
d="M397 0h-49q-8 0 -10 10l-72 355h-2l-74 -355q-2 -10 -10 -10h-50q-8 0 -10 10l-97 499q-2 10 8 10h56q10 0 11 -10l60 -359h1l73 359q1 10 11 10h42q10 0 11 -10l73 -359h2l59 359q1 10 11 10h56q10 0 8 -10l-98 -499q-2 -10 -10 -10z" />
    <glyph glyph-name="x.sc" horiz-adv-x="370" 
d="M340 0h-60q-9 0 -13 10l-81 176h-2l-80 -176q-4 -10 -14 -10h-60q-5 0 -6.5 3t0.5 8l120 260l-109 238q-5 10 7 10h59q9 0 13 -9l71 -158h2l71 158q4 9 13 9h57q12 0 7 -10l-109 -238l120 -260q2 -5 0.5 -8t-6.5 -3z" />
    <glyph glyph-name="y.sc" horiz-adv-x="343" 
d="M200 0h-57q-10 0 -10 10v205l-119 294q-3 10 7 10h60q8 0 11 -10l79 -208h3l77 208q3 10 12 10h58q10 0 7 -10l-118 -294v-205q0 -10 -10 -10z" />
    <glyph glyph-name="z.sc" horiz-adv-x="337" 
d="M295 0h-252q-10 0 -10 10v52q0 7 3 13l186 370v2h-170q-10 0 -10 10v52q0 10 10 10h241q10 0 10 -10v-51q0 -6 -3 -14l-185 -370v-2h180q10 0 10 -10v-52q0 -10 -10 -10z" />
    <glyph glyph-name="agrave.sc" horiz-adv-x="370" 
d="M204 597h-40q-10 0 -17 10l-87 123q-6 10 5 10h59q10 0 16 -10l69 -123q5 -10 -5 -10zM347 0h-57q-8 0 -11 10l-24 99h-140l-24 -99q-3 -10 -11 -10h-57q-11 0 -8 10l130 499q3 10 12 10h57q9 0 12 -10l129 -499q3 -10 -8 -10zM184 392l-52 -212h106l-51 212h-3z" />
    <glyph glyph-name="aacute.sc" horiz-adv-x="370" 
d="M347 0h-57q-8 0 -11 10l-24 99h-140l-24 -99q-3 -10 -11 -10h-57q-11 0 -8 10l130 499q3 10 12 10h57q9 0 12 -10l129 -499q3 -10 -8 -10zM184 392l-52 -212h106l-51 212h-3zM204 597h-40q-10 0 -5 10l69 123q6 10 16 10h59q11 0 5 -10l-87 -123q-7 -10 -17 -10z" />
    <glyph glyph-name="acircumflex.sc" horiz-adv-x="370" 
d="M347 0h-57q-8 0 -11 10l-24 99h-140l-24 -99q-3 -10 -11 -10h-57q-11 0 -8 10l130 499q3 10 12 10h57q9 0 12 -10l129 -499q3 -10 -8 -10zM184 392l-52 -212h106l-51 212h-3zM298 597h-42q-10 0 -17 10l-52 71h-2l-52 -71q-7 -10 -17 -10h-42q-12 0 -5 10l82 123
q6 10 17 10h36q11 0 17 -10l82 -123q7 -10 -5 -10z" />
    <glyph glyph-name="atilde.sc" horiz-adv-x="370" 
d="M227 621q-23 0 -49 19q-22 16 -35 16q-20 0 -44 -27q-2 -3 -5 -3.5t-5 1.5t-2 5v47q0 8 9 18q21 23 48 23q22 0 48 -19q22 -16 36 -16q20 0 44 27q2 3 4.5 3.5t4.5 -1.5t2 -5v-47q0 -9 -8 -18q-21 -23 -48 -23zM347 0h-57q-8 0 -11 10l-24 99h-140l-24 -99
q-3 -10 -11 -10h-57q-11 0 -8 10l130 499q3 10 12 10h57q9 0 12 -10l129 -499q3 -10 -8 -10zM184 392l-52 -212h106l-51 212h-3z" />
    <glyph glyph-name="adieresis.sc" horiz-adv-x="370" 
d="M347 0h-57q-8 0 -11 10l-24 99h-140l-24 -99q-3 -10 -11 -10h-57q-11 0 -8 10l130 499q3 10 12 10h57q9 0 12 -10l129 -499q3 -10 -8 -10zM184 392l-52 -212h106l-51 212h-3zM284 628h-51q-10 0 -10 10v72q0 10 10 10h51q10 0 10 -10v-72q0 -10 -10 -10zM139 628h-51
q-10 0 -10 10v72q0 10 10 10h51q10 0 10 -10v-72q0 -10 -10 -10z" />
    <glyph glyph-name="amacron.sc" horiz-adv-x="370" 
d="M347 0h-57q-8 0 -11 10l-24 99h-140l-24 -99q-3 -10 -11 -10h-57q-11 0 -8 10l130 499q3 10 12 10h57q9 0 12 -10l129 -499q3 -10 -8 -10zM184 392l-52 -212h106l-51 212h-3zM283 643h-194q-10 0 -10 10v43q0 10 10 10h194q10 0 10 -10v-43q0 -10 -10 -10z" />
    <glyph glyph-name="abreve.sc" horiz-adv-x="370" 
d="M186 603q-51 0 -80 30.5t-34 80.5q-2 10 9 10h32q8 0 11 -10q14 -53 62 -53t62 53q3 10 10 10h33q11 0 9 -10q-5 -50 -34 -80.5t-80 -30.5zM347 0h-57q-8 0 -11 10l-24 99h-140l-24 -99q-3 -10 -11 -10h-57q-11 0 -8 10l130 499q3 10 12 10h57q9 0 12 -10l129 -499
q3 -10 -8 -10zM184 392l-52 -212h106l-51 212h-3z" />
    <glyph glyph-name="aring.sc" horiz-adv-x="370" 
d="M186 586q-37 0 -61.5 24.5t-24.5 61.5q0 38 24.5 62.5t61.5 24.5t61.5 -25t24.5 -62t-24.5 -61.5t-61.5 -24.5zM186 623q21 0 34 14t13 35q0 22 -13 36t-34 14t-34.5 -14t-13.5 -36q0 -21 13.5 -35t34.5 -14zM347 0h-57q-8 0 -11 10l-24 99h-140l-24 -99q-3 -10 -11 -10
h-57q-11 0 -8 10l130 499q3 10 12 10h57q9 0 12 -10l129 -499q3 -10 -8 -10zM184 392l-52 -212h106l-51 212h-3z" />
    <glyph glyph-name="aringacute.sc" horiz-adv-x="370" 
d="M200 701h-39q-5 0 -6.5 3t1.5 7l76 106q7 10 16 10h59q5 0 6 -3t-2 -7l-93 -106q-10 -10 -18 -10zM347 0h-57q-8 0 -11 10l-24 99h-140l-24 -99q-3 -10 -11 -10h-57q-11 0 -8 10l126 483q-42 24 -42 76q0 37 24.5 61.5t61.5 24.5t61.5 -24.5t24.5 -61.5q0 -51 -41 -76
l125 -483q3 -10 -8 -10zM185 519q21 0 34.5 14t13.5 36q0 21 -13.5 35t-34.5 14t-34 -14t-13 -35q0 -22 13 -36t34 -14zM184 392l-52 -212h106l-51 212h-3z" />
    <glyph glyph-name="aogonek.sc" horiz-adv-x="370" 
d="M295 -181q-34 0 -55 19t-21 54q0 49 63 110l-3 8l-24 99h-140l-24 -99q-2 -10 -10 -10h-58q-11 0 -8 10l130 499q3 10 12 10h57q9 0 12 -10l129 -499q1 -7 -4 -10q-67 -58 -67 -96q0 -26 21 -26q12 0 21 6q9 5 12 -3l15 -34q3 -8 -5 -13q-22 -15 -53 -15zM238 180
l-51 212h-3l-52 -212h106z" />
    <glyph glyph-name="ae.sc" horiz-adv-x="559" 
d="M520 0h-236q-10 0 -10 10v93q0 6 -6 6h-133l-40 -99q-5 -10 -13 -10h-60q-10 0 -7 10l205 499q4 10 13 10h287q10 0 10 -10v-52q0 -10 -10 -10h-163q-6 0 -6 -6v-137q0 -6 6 -6h141q10 0 10 -10v-52q0 -10 -10 -10h-141q-6 0 -6 -6v-142q0 -6 6 -6h163q10 0 10 -10v-52
q0 -10 -10 -10zM271 447l-108 -267h105q6 0 6 6v261h-3z" />
    <glyph glyph-name="aeacute.sc" horiz-adv-x="559" 
d="M520 0h-236q-10 0 -10 10v93q0 6 -6 6h-133l-40 -99q-5 -10 -13 -10h-60q-10 0 -7 10l205 499q4 10 13 10h287q10 0 10 -10v-52q0 -10 -10 -10h-163q-6 0 -6 -6v-137q0 -6 6 -6h141q10 0 10 -10v-52q0 -10 -10 -10h-141q-6 0 -6 -6v-142q0 -6 6 -6h163q10 0 10 -10v-52
q0 -10 -10 -10zM271 447l-108 -267h105q6 0 6 6v261h-3zM316 597h-40q-10 0 -5 10l69 123q6 10 16 10h59q11 0 5 -10l-87 -123q-7 -10 -17 -10z" />
    <glyph glyph-name="cacute.sc" horiz-adv-x="369" 
d="M200 597h-40q-10 0 -5 10l69 123q6 10 16 10h59q11 0 5 -10l-87 -123q-7 -10 -17 -10zM192 -9q-50 0 -85 24.5t-49 69.5q-11 38 -11 175q0 136 11 174q14 45 49 69.5t85 24.5q59 0 96.5 -32.5t45.5 -93.5q1 -9 -8 -12l-53 -9q-10 -2 -12 9q-12 66 -68 66q-47 0 -61 -45
q-8 -24 -8 -151q0 -128 8 -152q13 -44 61 -44q56 0 68 66q2 10 12 8l53 -9q9 -3 8 -12q-8 -61 -45.5 -93.5t-96.5 -32.5z" />
    <glyph glyph-name="ccircumflex.sc" horiz-adv-x="369" 
d="M192 -9q-50 0 -85 24.5t-49 69.5q-11 38 -11 175q0 136 11 174q14 45 49 69.5t85 24.5q59 0 96.5 -32.5t45.5 -93.5q1 -9 -8 -12l-53 -9q-10 -2 -12 9q-12 66 -68 66q-47 0 -61 -45q-8 -24 -8 -151q0 -128 8 -152q13 -44 61 -44q56 0 68 66q2 10 12 8l53 -9q9 -3 8 -12
q-8 -61 -45.5 -93.5t-96.5 -32.5zM304 597h-42q-10 0 -17 10l-52 71h-2l-52 -71q-7 -10 -17 -10h-42q-12 0 -5 10l82 123q6 10 17 10h36q11 0 17 -10l82 -123q7 -10 -5 -10z" />
    <glyph glyph-name="ccaron.sc" horiz-adv-x="369" 
d="M210 596h-36q-11 0 -17 10l-82 123q-7 10 5 10h42q10 0 17 -10l52 -71h2l52 71q7 10 17 10h42q12 0 5 -10l-82 -123q-6 -10 -17 -10zM192 -9q-50 0 -85 24.5t-49 69.5q-11 38 -11 175q0 136 11 174q14 45 49 69.5t85 24.5q59 0 96.5 -32.5t45.5 -93.5q1 -9 -8 -12l-53 -9
q-10 -2 -12 9q-12 66 -68 66q-47 0 -61 -45q-8 -24 -8 -151q0 -128 8 -152q13 -44 61 -44q56 0 68 66q2 10 12 8l53 -9q9 -3 8 -12q-8 -61 -45.5 -93.5t-96.5 -32.5z" />
    <glyph glyph-name="cdotaccent.sc" horiz-adv-x="369" 
d="M220 628h-63q-10 0 -10 10v72q0 10 10 10h63q10 0 10 -10v-72q0 -10 -10 -10zM192 -9q-50 0 -85 24.5t-49 69.5q-11 38 -11 175q0 136 11 174q14 45 49 69.5t85 24.5q59 0 96.5 -32.5t45.5 -93.5q1 -9 -8 -12l-53 -9q-10 -2 -12 9q-12 66 -68 66q-47 0 -61 -45
q-8 -24 -8 -151q0 -128 8 -152q13 -44 61 -44q56 0 68 66q2 10 12 8l53 -9q9 -3 8 -12q-8 -61 -45.5 -93.5t-96.5 -32.5z" />
    <glyph glyph-name="ccedilla.sc" horiz-adv-x="369" 
d="M102 -142l54 137q-75 15 -98 90q-11 38 -11 175q0 136 11 174q14 45 49 69.5t85 24.5q59 0 96.5 -32.5t45.5 -93.5q1 -9 -8 -12l-53 -9q-10 -2 -12 9q-12 66 -68 66q-47 0 -61 -45q-8 -24 -8 -151q0 -128 8 -152q13 -44 61 -44q56 0 68 66q2 10 12 8l53 -9q9 -3 8 -12
q-7 -54 -37.5 -85.5t-78.5 -38.5l-45 -135q-4 -10 -16 -10h-48q-10 0 -7 10z" />
    <glyph glyph-name="dcaron.sc" horiz-adv-x="404" 
d="M201 0h-132q-10 0 -10 10v499q0 10 10 10h132q114 0 143 -91q14 -41 14 -168q0 -129 -14 -168q-16 -47 -50 -69.5t-93 -22.5zM193 72q62 0 78 51q9 26 9 137t-9 137q-16 50 -78 50h-51q-6 0 -6 -6v-363q0 -6 6 -6h51zM210 596h-36q-11 0 -17 10l-82 123q-7 10 5 10h42
q10 0 17 -10l52 -71h2l52 71q7 10 17 10h42q12 0 5 -10l-82 -123q-6 -10 -17 -10z" />
    <glyph glyph-name="dcroat.sc" horiz-adv-x="404" 
d="M201 0h-132q-10 0 -10 10v216q0 6 -6 6h-25q-10 0 -10 10v41q0 10 10 10h25q6 0 6 6v210q0 10 10 10h132q114 0 143 -91q14 -41 14 -168q0 -129 -14 -168q-16 -47 -50 -69.5t-93 -22.5zM193 72q62 0 78 51q9 26 9 137t-9 137q-16 50 -78 50h-51q-6 0 -6 -6v-142
q0 -6 6 -6h52q10 0 10 -10v-41q0 -10 -10 -10h-52q-6 0 -6 -6v-148q0 -6 6 -6h51z" />
    <glyph glyph-name="eth.sc" horiz-adv-x="404" 
d="M201 0h-132q-10 0 -10 10v216q0 6 -6 6h-25q-10 0 -10 10v41q0 10 10 10h25q6 0 6 6v210q0 10 10 10h132q114 0 143 -91q14 -41 14 -168q0 -129 -14 -168q-16 -47 -50 -69.5t-93 -22.5zM193 72q62 0 78 51q9 26 9 137t-9 137q-16 50 -78 50h-51q-6 0 -6 -6v-142
q0 -6 6 -6h52q10 0 10 -10v-41q0 -10 -10 -10h-52q-6 0 -6 -6v-148q0 -6 6 -6h51z" />
    <glyph glyph-name="egrave.sc" horiz-adv-x="344" 
d="M213 597h-40q-9 0 -17 10l-87 123q-6 10 5 10h59q10 0 16 -10l69 -123q5 -10 -5 -10zM305 0h-236q-10 0 -10 10v499q0 10 10 10h236q10 0 10 -10v-52q0 -10 -10 -10h-163q-6 0 -6 -6v-137q0 -6 6 -6h141q10 0 10 -10v-52q0 -10 -10 -10h-141q-6 0 -6 -6v-142q0 -6 6 -6
h163q10 0 10 -10v-52q0 -10 -10 -10z" />
    <glyph glyph-name="eacute.sc" horiz-adv-x="344" 
d="M194 597h-40q-10 0 -5 10l69 123q6 10 16 10h59q11 0 5 -10l-87 -123q-7 -10 -17 -10zM305 0h-236q-10 0 -10 10v499q0 10 10 10h236q10 0 10 -10v-52q0 -10 -10 -10h-163q-6 0 -6 -6v-137q0 -6 6 -6h141q10 0 10 -10v-52q0 -10 -10 -10h-141q-6 0 -6 -6v-142q0 -6 6 -6
h163q10 0 10 -10v-52q0 -10 -10 -10z" />
    <glyph glyph-name="ecircumflex.sc" horiz-adv-x="344" 
d="M305 0h-236q-10 0 -10 10v499q0 10 10 10h236q10 0 10 -10v-52q0 -10 -10 -10h-163q-6 0 -6 -6v-137q0 -6 6 -6h141q10 0 10 -10v-52q0 -10 -10 -10h-141q-6 0 -6 -6v-142q0 -6 6 -6h163q10 0 10 -10v-52q0 -10 -10 -10zM300 597h-42q-10 0 -17 10l-52 71h-2l-52 -71
q-7 -10 -17 -10h-42q-12 0 -5 10l82 123q6 10 17 10h36q11 0 17 -10l82 -123q7 -10 -5 -10z" />
    <glyph glyph-name="ecaron.sc" horiz-adv-x="344" 
d="M206 596h-36q-11 0 -17 10l-82 123q-7 10 5 10h42q10 0 17 -10l52 -71h2l52 71q7 10 17 10h42q12 0 5 -10l-82 -123q-6 -10 -17 -10zM305 0h-236q-10 0 -10 10v499q0 10 10 10h236q10 0 10 -10v-52q0 -10 -10 -10h-163q-6 0 -6 -6v-137q0 -6 6 -6h141q10 0 10 -10v-52
q0 -10 -10 -10h-141q-6 0 -6 -6v-142q0 -6 6 -6h163q10 0 10 -10v-52q0 -10 -10 -10z" />
    <glyph glyph-name="edieresis.sc" horiz-adv-x="344" 
d="M284 628h-51q-10 0 -10 10v72q0 10 10 10h51q10 0 10 -10v-72q0 -10 -10 -10zM139 628h-51q-10 0 -10 10v72q0 10 10 10h51q10 0 10 -10v-72q0 -10 -10 -10zM305 0h-236q-10 0 -10 10v499q0 10 10 10h236q10 0 10 -10v-52q0 -10 -10 -10h-163q-6 0 -6 -6v-137q0 -6 6 -6
h141q10 0 10 -10v-52q0 -10 -10 -10h-141q-6 0 -6 -6v-142q0 -6 6 -6h163q10 0 10 -10v-52q0 -10 -10 -10z" />
    <glyph glyph-name="emacron.sc" horiz-adv-x="344" 
d="M281 643h-194q-10 0 -10 10v43q0 10 10 10h194q10 0 10 -10v-43q0 -10 -10 -10zM305 0h-236q-10 0 -10 10v499q0 10 10 10h236q10 0 10 -10v-52q0 -10 -10 -10h-163q-6 0 -6 -6v-137q0 -6 6 -6h141q10 0 10 -10v-52q0 -10 -10 -10h-141q-6 0 -6 -6v-142q0 -6 6 -6h163
q10 0 10 -10v-52q0 -10 -10 -10z" />
    <glyph glyph-name="ebreve.sc" horiz-adv-x="344" 
d="M184 603q-51 0 -80 30.5t-34 80.5q-2 10 9 10h32q8 0 11 -10q14 -53 62 -53t62 53q3 10 10 10h33q11 0 9 -10q-5 -50 -34 -80.5t-80 -30.5zM305 0h-236q-10 0 -10 10v499q0 10 10 10h236q10 0 10 -10v-52q0 -10 -10 -10h-163q-6 0 -6 -6v-137q0 -6 6 -6h141q10 0 10 -10
v-52q0 -10 -10 -10h-141q-6 0 -6 -6v-142q0 -6 6 -6h163q10 0 10 -10v-52q0 -10 -10 -10z" />
    <glyph glyph-name="edotaccent.sc" horiz-adv-x="344" 
d="M211 628h-63q-10 0 -10 10v72q0 10 10 10h63q10 0 10 -10v-72q0 -10 -10 -10zM305 0h-236q-10 0 -10 10v499q0 10 10 10h236q10 0 10 -10v-52q0 -10 -10 -10h-163q-6 0 -6 -6v-137q0 -6 6 -6h141q10 0 10 -10v-52q0 -10 -10 -10h-141q-6 0 -6 -6v-142q0 -6 6 -6h163
q10 0 10 -10v-52q0 -10 -10 -10z" />
    <glyph glyph-name="eogonek.sc" horiz-adv-x="344" 
d="M244 -181q-34 0 -55 19t-21 54q0 47 59 108h-158q-10 0 -10 10v499q0 10 10 10h236q10 0 10 -10v-52q0 -10 -10 -10h-163q-6 0 -6 -6v-137q0 -6 6 -6h141q10 0 10 -10v-52q0 -10 -10 -10h-141q-6 0 -6 -6v-142q0 -6 6 -6h163q10 0 10 -10v-52q0 -10 -10 -10h-5
q-68 -59 -68 -96q0 -26 22 -26q10 0 21 6q9 5 12 -3l15 -34q3 -8 -5 -13q-23 -15 -53 -15z" />
    <glyph glyph-name="gcircumflex.sc" horiz-adv-x="392" 
d="M196 -9q-52 0 -88 25t-50 69q-11 33 -11 175t11 175q14 44 50 68.5t88 24.5q61 0 100 -32.5t46 -92.5q2 -9 -7 -11l-53 -9q-10 -3 -12 8q-12 65 -73 65q-51 0 -66 -45q-7 -25 -7 -151t7 -152q15 -44 67 -44t67 44q7 21 7 106q0 6 -6 6h-62q-10 0 -10 10v49q0 10 10 10
h131q10 0 10 -10v-23q0 -138 -11 -171q-14 -44 -50 -69t-88 -25zM308 597h-42q-10 0 -17 10l-52 71h-2l-52 -71q-7 -10 -17 -10h-42q-12 0 -5 10l82 123q6 10 17 10h36q11 0 17 -10l82 -123q7 -10 -5 -10z" />
    <glyph glyph-name="gbreve.sc" horiz-adv-x="392" 
d="M196 -9q-52 0 -88 25t-50 69q-11 33 -11 175t11 175q14 44 50 68.5t88 24.5q61 0 100 -32.5t46 -92.5q2 -9 -7 -11l-53 -9q-10 -3 -12 8q-12 65 -73 65q-51 0 -66 -45q-7 -25 -7 -151t7 -152q15 -44 67 -44t67 44q7 21 7 106q0 6 -6 6h-62q-10 0 -10 10v49q0 10 10 10
h131q10 0 10 -10v-23q0 -138 -11 -171q-14 -44 -50 -69t-88 -25zM196 603q-51 0 -80 30.5t-34 80.5q-2 10 9 10h32q8 0 11 -10q14 -53 62 -53t62 53q3 10 10 10h33q11 0 9 -10q-5 -50 -34 -80.5t-80 -30.5z" />
    <glyph glyph-name="gdotaccent.sc" horiz-adv-x="392" 
d="M196 -9q-52 0 -88 25t-50 69q-11 33 -11 175t11 175q14 44 50 68.5t88 24.5q61 0 100 -32.5t46 -92.5q2 -9 -7 -11l-53 -9q-10 -3 -12 8q-12 65 -73 65q-51 0 -66 -45q-7 -25 -7 -151t7 -152q15 -44 67 -44t67 44q7 21 7 106q0 6 -6 6h-62q-10 0 -10 10v49q0 10 10 10
h131q10 0 10 -10v-23q0 -138 -11 -171q-14 -44 -50 -69t-88 -25zM227 628h-63q-10 0 -10 10v72q0 10 10 10h63q10 0 10 -10v-72q0 -10 -10 -10z" />
    <glyph glyph-name="gcommaaccent.sc" horiz-adv-x="392" 
d="M168 -208q-8 0 -8 10v135q0 10 10 10h53q10 0 10 -10v-49q0 -12 -7 -22l-46 -66q-4 -8 -12 -8zM196 -9q-52 0 -88 25t-50 69q-11 33 -11 175t11 175q14 44 50 68.5t88 24.5q61 0 100 -32.5t46 -92.5q2 -9 -7 -11l-53 -9q-10 -3 -12 8q-12 65 -73 65q-51 0 -66 -45
q-7 -25 -7 -151t7 -152q15 -44 67 -44t67 44q7 21 7 106q0 6 -6 6h-62q-10 0 -10 10v49q0 10 10 10h131q10 0 10 -10v-23q0 -138 -11 -171q-14 -44 -50 -69t-88 -25z" />
    <glyph glyph-name="hcircumflex.sc" horiz-adv-x="413" 
d="M344 0h-57q-10 0 -10 10v213q0 6 -6 6h-129q-6 0 -6 -6v-213q0 -10 -10 -10h-57q-10 0 -10 10v499q0 10 10 10h57q10 0 10 -10v-202q0 -6 6 -6h129q6 0 6 6v202q0 10 10 10h57q10 0 10 -10v-499q0 -10 -10 -10zM318 597h-42q-10 0 -17 10l-52 71h-2l-52 -71
q-7 -10 -17 -10h-42q-12 0 -5 10l82 123q6 10 17 10h36q11 0 17 -10l82 -123q7 -10 -5 -10z" />
    <glyph glyph-name="hbar.sc" horiz-adv-x="413" 
d="M344 0h-57q-10 0 -10 10v213q0 6 -6 6h-129q-6 0 -6 -6v-213q0 -10 -10 -10h-57q-10 0 -10 10v364q0 6 -6 6h-33q-10 0 -10 10v41q0 10 10 10h33q6 0 6 6v62q0 10 10 10h57q10 0 10 -10v-62q0 -6 6 -6h129q6 0 6 6v62q0 10 10 10h57q10 0 10 -10v-62q0 -6 6 -6h33
q10 0 10 -10v-41q0 -10 -10 -10h-33q-6 0 -6 -6v-364q0 -10 -10 -10zM271 301q6 0 6 6v67q0 6 -6 6h-129q-6 0 -6 -6v-67q0 -6 6 -6h129z" />
    <glyph glyph-name="igrave.sc" horiz-adv-x="195" 
d="M123 597h-40q-9 0 -17 10l-87 123q-6 10 5 10h59q10 0 16 -10l69 -123q5 -10 -5 -10zM126 0h-57q-10 0 -10 10v499q0 10 10 10h57q10 0 10 -10v-499q0 -10 -10 -10z" />
    <glyph glyph-name="iacute.sc" horiz-adv-x="195" 
d="M126 0h-57q-10 0 -10 10v499q0 10 10 10h57q10 0 10 -10v-499q0 -10 -10 -10zM115 597h-40q-10 0 -5 10l69 123q6 10 16 10h59q11 0 5 -10l-87 -123q-8 -10 -17 -10z" />
    <glyph glyph-name="ibreve.sc" horiz-adv-x="195" 
d="M98 603q-51 0 -80 30.5t-34 80.5q-2 10 9 10h32q8 0 11 -10q14 -53 62 -53t62 53q3 10 10 10h33q11 0 9 -10q-5 -50 -34 -80.5t-80 -30.5zM126 0h-57q-10 0 -10 10v499q0 10 10 10h57q10 0 10 -10v-499q0 -10 -10 -10z" />
    <glyph glyph-name="icircumflex.sc" horiz-adv-x="195" 
d="M126 0h-57q-10 0 -10 10v499q0 10 10 10h57q10 0 10 -10v-499q0 -10 -10 -10zM210 597h-42q-10 0 -17 10l-52 71h-2l-52 -71q-7 -10 -17 -10h-42q-12 0 -5 10l82 123q6 10 17 10h36q11 0 17 -10l82 -123q7 -10 -5 -10z" />
    <glyph glyph-name="itilde.sc" horiz-adv-x="195" 
d="M140 621q-23 0 -49 19q-22 16 -35 16q-20 0 -44 -27q-2 -3 -5 -3.5t-5 1.5t-2 5v47q0 8 9 18q21 23 48 23q22 0 48 -19q22 -16 36 -16q20 0 44 27q2 3 4.5 3.5t4.5 -1.5t2 -5v-47q0 -9 -8 -18q-21 -23 -48 -23zM126 0h-57q-10 0 -10 10v499q0 10 10 10h57q10 0 10 -10
v-499q0 -10 -10 -10z" />
    <glyph glyph-name="idieresis.sc" horiz-adv-x="195" 
d="M126 0h-57q-10 0 -10 10v499q0 10 10 10h57q10 0 10 -10v-499q0 -10 -10 -10zM195 628h-51q-10 0 -10 10v72q0 10 10 10h51q10 0 10 -10v-72q0 -10 -10 -10zM50 628h-51q-10 0 -10 10v72q0 10 10 10h51q10 0 10 -10v-72q0 -10 -10 -10z" />
    <glyph glyph-name="imacron.sc" horiz-adv-x="195" 
d="M126 0h-57q-10 0 -10 10v499q0 10 10 10h57q10 0 10 -10v-499q0 -10 -10 -10zM195 643h-194q-10 0 -10 10v43q0 10 10 10h194q10 0 10 -10v-43q0 -10 -10 -10z" />
    <glyph glyph-name="idotaccent.sc" horiz-adv-x="195" 
d="M129 628h-63q-10 0 -10 10v72q0 10 10 10h63q10 0 10 -10v-72q0 -10 -10 -10zM126 0h-57q-10 0 -10 10v499q0 10 10 10h57q10 0 10 -10v-499q0 -10 -10 -10z" />
    <glyph glyph-name="iogonek.sc" horiz-adv-x="195" 
d="M86 -181q-35 0 -56 19t-21 54q0 50 56 109q-6 0 -6 9v499q0 10 10 10h57q10 0 10 -10v-499q0 -4 -3 -9q-59 -63 -59 -97q0 -26 22 -26q11 0 20 6q9 5 12 -3l15 -34q3 -9 -5 -13q-22 -15 -52 -15z" />
    <glyph glyph-name="jcircumflex.sc" horiz-adv-x="319" 
d="M121 -9q-62 0 -96 36q-6 7 1 14l39 37q7 7 15 0q22 -14 44 -14q61 0 61 69v376q0 10 10 10h57q10 0 10 -10v-373q0 -72 -37 -108.5t-104 -36.5zM327 597h-42q-10 0 -17 10l-52 71h-2l-52 -71q-7 -10 -17 -10h-42q-12 0 -5 10l82 123q6 10 17 10h36q11 0 17 -10l82 -123
q7 -10 -5 -10z" />
    <glyph glyph-name="kcommaaccent.sc" horiz-adv-x="396" 
d="M181 -208q-8 0 -8 10v135q0 10 10 10h53q10 0 10 -10v-49q0 -12 -7 -22l-46 -66q-4 -8 -12 -8zM370 0h-63q-8 0 -11 7l-108 232l-52 -85v-144q0 -10 -10 -10h-57q-10 0 -10 10v499q0 10 10 10h57q10 0 10 -10v-235l140 238q4 7 13 7h61q10 0 5 -9l-122 -198l142 -302
q2 -4 0.5 -7t-5.5 -3z" />
    <glyph glyph-name="lacute.sc" horiz-adv-x="331" 
d="M301 0h-232q-10 0 -10 10v499q0 10 10 10h57q10 0 10 -10v-431q0 -6 6 -6h159q10 0 10 -10v-52q0 -10 -10 -10zM122 597h-40q-10 0 -5 10l69 123q6 10 16 10h59q11 0 5 -10l-87 -123q-7 -10 -17 -10z" />
    <glyph glyph-name="lcaron.sc" horiz-adv-x="331" 
d="M301 0h-232q-10 0 -10 10v499q0 10 10 10h57q10 0 10 -10v-431q0 -6 6 -6h159q10 0 10 -10v-52q0 -10 -10 -10zM189 364q-9 0 -9 9v137q0 10 10 10h52q10 0 10 -10v-50q0 -13 -6 -23l-45 -66q-4 -7 -12 -7z" />
    <glyph glyph-name="lcommaaccent.sc" horiz-adv-x="331" 
d="M301 0h-232q-10 0 -10 10v499q0 10 10 10h57q10 0 10 -10v-431q0 -6 6 -6h159q10 0 10 -10v-52q0 -10 -10 -10zM152 -208q-8 0 -8 10v135q0 10 10 10h53q10 0 10 -10v-49q0 -12 -7 -22l-46 -66q-4 -8 -12 -8z" />
    <glyph glyph-name="lslash.sc" horiz-adv-x="331" 
d="M207 294l-71 -49v-167q0 -6 6 -6h159q10 0 10 -10v-52q0 -10 -10 -10h-232q-10 0 -10 10v185l-34 -23q-4 -2 -7 -0.5t-3 5.5v54q0 9 10 16l34 23v239q0 10 10 10h57q10 0 10 -10v-189l71 49q4 2 7 0.5t3 -5.5v-54q0 -9 -10 -16z" />
    <glyph glyph-name="ldot.sc" horiz-adv-x="331" 
d="M301 0h-232q-10 0 -10 10v499q0 10 10 10h57q10 0 10 -10v-431q0 -6 6 -6h159q10 0 10 -10v-52q0 -10 -10 -10zM296 211h-65q-10 0 -10 10v84q0 10 10 10h65q10 0 10 -10v-84q0 -10 -10 -10z" />
    <glyph glyph-name="nacute.sc" horiz-adv-x="424" 
d="M355 0h-66q-12 0 -16 10l-141 377h-3v-377q0 -10 -10 -10h-50q-10 0 -10 10v499q0 10 10 10h69q13 0 16 -10l137 -374h4v374q0 10 10 10h50q10 0 10 -10v-499q0 -10 -10 -10zM216 597h-40q-10 0 -5 10l69 123q6 10 16 10h59q11 0 5 -10l-87 -123q-7 -10 -17 -10z" />
    <glyph glyph-name="ncaron.sc" horiz-adv-x="424" 
d="M355 0h-66q-12 0 -16 10l-141 377h-3v-377q0 -10 -10 -10h-50q-10 0 -10 10v499q0 10 10 10h69q13 0 16 -10l137 -374h4v374q0 10 10 10h50q10 0 10 -10v-499q0 -10 -10 -10zM229 596h-36q-11 0 -17 10l-82 123q-7 10 5 10h42q10 0 17 -10l52 -71h2l52 71q7 10 17 10h42
q12 0 5 -10l-82 -123q-6 -10 -17 -10z" />
    <glyph glyph-name="ntilde.sc" horiz-adv-x="424" 
d="M355 0h-66q-12 0 -16 10l-141 377h-3v-377q0 -10 -10 -10h-50q-10 0 -10 10v499q0 10 10 10h69q13 0 16 -10l137 -374h4v374q0 10 10 10h50q10 0 10 -10v-499q0 -10 -10 -10zM253 621q-23 0 -49 19q-22 16 -35 16q-20 0 -44 -27q-2 -3 -5 -3.5t-5 1.5t-2 5v47q0 8 9 18
q21 23 48 23q22 0 48 -19q22 -16 36 -16q20 0 44 27q2 3 4.5 3.5t4.5 -1.5t2 -5v-47q0 -9 -8 -18q-21 -23 -48 -23z" />
    <glyph glyph-name="ncommaaccent.sc" horiz-adv-x="424" 
d="M190 -208q-8 0 -8 10v135q0 10 10 10h53q10 0 10 -10v-49q0 -12 -7 -22l-46 -66q-4 -8 -12 -8zM355 0h-66q-12 0 -16 10l-141 377h-3v-377q0 -10 -10 -10h-50q-10 0 -10 10v499q0 10 10 10h69q13 0 16 -10l137 -374h4v374q0 10 10 10h50q10 0 10 -10v-499q0 -10 -10 -10z
" />
    <glyph glyph-name="ograve.sc" horiz-adv-x="392" 
d="M196 -9q-52 0 -88 25t-50 69q-11 33 -11 175t11 175q14 44 50 68.5t88 24.5t88 -24.5t50 -68.5q11 -33 11 -175t-11 -175q-14 -44 -50 -69t-88 -25zM196 64q50 0 65 44q7 21 7 152t-7 151q-15 45 -65 45t-65 -45q-7 -25 -7 -151t7 -152q15 -44 65 -44zM213 597h-40
q-9 0 -17 10l-87 123q-6 10 5 10h59q10 0 16 -10l69 -123q5 -10 -5 -10z" />
    <glyph glyph-name="oacute.sc" horiz-adv-x="392" 
d="M196 -9q-52 0 -88 25t-50 69q-11 33 -11 175t11 175q14 44 50 68.5t88 24.5t88 -24.5t50 -68.5q11 -33 11 -175t-11 -175q-14 -44 -50 -69t-88 -25zM196 64q50 0 65 44q7 21 7 152t-7 151q-15 45 -65 45t-65 -45q-7 -25 -7 -151t7 -152q15 -44 65 -44zM207 597h-40
q-10 0 -5 10l69 123q6 10 16 10h59q11 0 5 -10l-87 -123q-7 -10 -17 -10z" />
    <glyph glyph-name="ocircumflex.sc" horiz-adv-x="392" 
d="M196 -9q-52 0 -88 25t-50 69q-11 33 -11 175t11 175q14 44 50 68.5t88 24.5t88 -24.5t50 -68.5q11 -33 11 -175t-11 -175q-14 -44 -50 -69t-88 -25zM196 64q50 0 65 44q7 21 7 152t-7 151q-15 45 -65 45t-65 -45q-7 -25 -7 -151t7 -152q15 -44 65 -44zM308 597h-42
q-10 0 -17 10l-52 71h-2l-52 -71q-7 -10 -17 -10h-42q-12 0 -5 10l82 123q6 10 17 10h36q11 0 17 -10l82 -123q7 -10 -5 -10z" />
    <glyph glyph-name="otilde.sc" horiz-adv-x="392" 
d="M196 -9q-52 0 -88 25t-50 69q-11 33 -11 175t11 175q14 44 50 68.5t88 24.5t88 -24.5t50 -68.5q11 -33 11 -175t-11 -175q-14 -44 -50 -69t-88 -25zM196 64q50 0 65 44q7 21 7 152t-7 151q-15 45 -65 45t-65 -45q-7 -25 -7 -151t7 -152q15 -44 65 -44zM237 621
q-23 0 -49 19q-22 16 -35 16q-20 0 -44 -27q-2 -3 -5 -3.5t-5 1.5t-2 5v47q0 8 9 18q21 23 48 23q22 0 48 -19q22 -16 36 -16q20 0 44 27q2 3 4.5 3.5t4.5 -1.5t2 -5v-47q0 -9 -8 -18q-21 -23 -48 -23z" />
    <glyph glyph-name="odieresis.sc" horiz-adv-x="392" 
d="M196 -9q-52 0 -88 25t-50 69q-11 33 -11 175t11 175q14 44 50 68.5t88 24.5t88 -24.5t50 -68.5q11 -33 11 -175t-11 -175q-14 -44 -50 -69t-88 -25zM196 64q50 0 65 44q7 21 7 152t-7 151q-15 45 -65 45t-65 -45q-7 -25 -7 -151t7 -152q15 -44 65 -44zM294 628h-51
q-10 0 -10 10v72q0 10 10 10h51q10 0 10 -10v-72q0 -10 -10 -10zM149 628h-51q-10 0 -10 10v72q0 10 10 10h51q10 0 10 -10v-72q0 -10 -10 -10z" />
    <glyph glyph-name="omacron.sc" horiz-adv-x="392" 
d="M196 -9q-52 0 -88 25t-50 69q-11 33 -11 175t11 175q14 44 50 68.5t88 24.5t88 -24.5t50 -68.5q11 -33 11 -175t-11 -175q-14 -44 -50 -69t-88 -25zM196 64q50 0 65 44q7 21 7 152t-7 151q-15 45 -65 45t-65 -45q-7 -25 -7 -151t7 -152q15 -44 65 -44zM293 643h-194
q-10 0 -10 10v43q0 10 10 10h194q10 0 10 -10v-43q0 -10 -10 -10z" />
    <glyph glyph-name="obreve.sc" horiz-adv-x="392" 
d="M196 -9q-52 0 -88 25t-50 69q-11 33 -11 175t11 175q14 44 50 68.5t88 24.5t88 -24.5t50 -68.5q11 -33 11 -175t-11 -175q-14 -44 -50 -69t-88 -25zM196 64q50 0 65 44q7 21 7 152t-7 151q-15 45 -65 45t-65 -45q-7 -25 -7 -151t7 -152q15 -44 65 -44zM196 603
q-51 0 -80 30.5t-34 80.5q-2 10 9 10h32q8 0 11 -10q14 -53 62 -53t62 53q3 10 10 10h33q11 0 9 -10q-5 -50 -34 -80.5t-80 -30.5z" />
    <glyph glyph-name="ohungarumlaut.sc" horiz-adv-x="392" 
d="M268 597h-34q-11 0 -6 10l61 123q4 10 16 10h49q11 0 5 -10l-73 -123q-6 -10 -18 -10zM145 597h-35q-11 0 -6 10l61 123q4 10 16 10h49q11 0 5 -10l-73 -123q-6 -10 -17 -10zM196 -9q-52 0 -88 25t-50 69q-11 33 -11 175t11 175q14 44 50 68.5t88 24.5t88 -24.5t50 -68.5
q11 -33 11 -175t-11 -175q-14 -44 -50 -69t-88 -25zM196 64q50 0 65 44q7 21 7 152t-7 151q-15 45 -65 45t-65 -45q-7 -25 -7 -151t7 -152q15 -44 65 -44z" />
    <glyph glyph-name="oslash.sc" horiz-adv-x="392" 
d="M69 -30h-21q-11 0 -6 10l33 68q-12 18 -17 37q-11 33 -11 175t11 175q14 44 50 68.5t88 24.5q56 0 94 -30l20 41q6 10 14 10h20q10 0 7 -10l-34 -69q11 -16 17 -35q11 -33 11 -175t-11 -175q-14 -44 -50 -69t-88 -25q-57 0 -95 29l-19 -40q-6 -10 -13 -10zM124 260
q0 -87 1 -108l129 274q-16 30 -58 30q-50 0 -65 -45q-7 -25 -7 -151zM196 64q50 0 65 44q7 21 7 152q0 86 -1 107l-130 -274q17 -29 59 -29z" />
    <glyph glyph-name="oslashacute.sc" horiz-adv-x="392" 
d="M207 597h-40q-10 0 -5 10l69 123q6 10 16 10h59q11 0 5 -10l-87 -123q-7 -10 -17 -10zM69 -30h-21q-11 0 -6 10l33 68q-12 18 -17 37q-11 33 -11 175t11 175q14 44 50 68.5t88 24.5q56 0 94 -30l20 41q6 10 14 10h20q10 0 7 -10l-34 -69q11 -16 17 -35q11 -33 11 -175
t-11 -175q-14 -44 -50 -69t-88 -25q-57 0 -95 29l-19 -40q-6 -10 -13 -10zM124 260q0 -87 1 -108l129 274q-16 30 -58 30q-50 0 -65 -45q-7 -25 -7 -151zM196 64q50 0 65 44q7 21 7 152q0 86 -1 107l-130 -274q17 -29 59 -29z" />
    <glyph glyph-name="oe.sc" horiz-adv-x="553" 
d="M514 0h-236q-10 0 -10 10v21h-1q-22 -40 -86 -40q-96 0 -123 89q-11 33 -11 180q0 146 11 179q27 89 123 89q64 0 86 -40h1v21q0 10 10 10h236q10 0 10 -10v-52q0 -10 -10 -10h-163q-6 0 -6 -6v-137q0 -6 6 -6h141q10 0 10 -10v-52q0 -10 -10 -10h-141q-6 0 -6 -6v-142
q0 -6 6 -6h163q10 0 10 -10v-52q0 -10 -10 -10zM196 64q50 0 65 44q7 21 7 152t-7 151q-15 45 -65 45t-65 -45q-7 -25 -7 -151t7 -152q15 -44 65 -44z" />
    <glyph glyph-name="racute.sc" horiz-adv-x="395" 
d="M196 597h-40q-10 0 -5 10l69 123q6 10 16 10h59q11 0 5 -10l-87 -123q-7 -10 -17 -10zM352 0h-60q-10 0 -13 9l-73 203h-16h-48q-6 0 -6 -6v-196q0 -10 -10 -10h-57q-10 0 -10 10v499q0 10 10 10h121q77 0 117.5 -38.5t40.5 -114.5q0 -100 -72 -136l83 -220q3 -10 -7 -10
zM183 283q47 0 67.5 19.5t20.5 63.5t-20.5 63t-67.5 19h-41q-6 0 -6 -6v-153q0 -6 6 -6h41z" />
    <glyph glyph-name="rcaron.sc" horiz-adv-x="395" 
d="M201 596h-36q-11 0 -17 10l-82 123q-7 10 5 10h42q10 0 17 -10l52 -71h2l52 71q7 10 17 10h42q12 0 5 -10l-82 -123q-6 -10 -17 -10zM352 0h-60q-10 0 -13 9l-73 203h-16h-48q-6 0 -6 -6v-196q0 -10 -10 -10h-57q-10 0 -10 10v499q0 10 10 10h121q77 0 117.5 -38.5
t40.5 -114.5q0 -100 -72 -136l83 -220q3 -10 -7 -10zM183 283q47 0 67.5 19.5t20.5 63.5t-20.5 63t-67.5 19h-41q-6 0 -6 -6v-153q0 -6 6 -6h41z" />
    <glyph glyph-name="rcommaaccent.sc" horiz-adv-x="395" 
d="M173 -208q-8 0 -8 10v135q0 10 10 10h53q10 0 10 -10v-49q0 -12 -7 -22l-46 -66q-4 -8 -12 -8zM352 0h-60q-10 0 -13 9l-73 203h-16h-48q-6 0 -6 -6v-196q0 -10 -10 -10h-57q-10 0 -10 10v499q0 10 10 10h121q77 0 117.5 -38.5t40.5 -114.5q0 -100 -72 -136l83 -220
q3 -10 -7 -10zM183 283q47 0 67.5 19.5t20.5 63.5t-20.5 63t-67.5 19h-41q-6 0 -6 -6v-153q0 -6 6 -6h41z" />
    <glyph glyph-name="sacute.sc" horiz-adv-x="363" 
d="M190 597h-40q-10 0 -5 10l69 123q6 10 16 10h59q11 0 5 -10l-87 -123q-7 -10 -17 -10zM186 -9q-139 0 -150 136q0 10 8 11l55 9q9 2 11 -8q9 -78 74 -78q35 0 52 19t17 63q0 35 -14.5 53.5t-51.5 31.5l-37 12q-59 19 -82.5 51t-23.5 94q0 67 37 105t101 38
q130 0 143 -127q2 -11 -7 -12l-53 -8q-11 -2 -11 9q-8 68 -69 68q-65 0 -65 -72q0 -31 13 -48.5t49 -29.5l37 -12q61 -19 85.5 -52.5t24.5 -99.5q0 -74 -36 -113.5t-107 -39.5z" />
    <glyph glyph-name="scircumflex.sc" horiz-adv-x="363" 
d="M186 -9q-139 0 -150 136q0 10 8 11l55 9q9 2 11 -8q9 -78 74 -78q35 0 52 19t17 63q0 35 -14.5 53.5t-51.5 31.5l-37 12q-59 19 -82.5 51t-23.5 94q0 67 37 105t101 38q130 0 143 -127q2 -11 -7 -12l-53 -8q-11 -2 -11 9q-8 68 -69 68q-65 0 -65 -72q0 -31 13 -48.5
t49 -29.5l37 -12q61 -19 85.5 -52.5t24.5 -99.5q0 -74 -36 -113.5t-107 -39.5zM294 597h-42q-10 0 -17 10l-52 71h-2l-52 -71q-7 -10 -17 -10h-42q-12 0 -5 10l82 123q6 10 17 10h36q11 0 17 -10l82 -123q7 -10 -5 -10z" />
    <glyph glyph-name="scaron.sc" horiz-adv-x="363" 
d="M200 596h-36q-11 0 -17 10l-82 123q-7 10 5 10h42q10 0 17 -10l52 -71h2l52 71q7 10 17 10h42q12 0 5 -10l-82 -123q-6 -10 -17 -10zM186 -9q-139 0 -150 136q0 10 8 11l55 9q9 2 11 -8q9 -78 74 -78q35 0 52 19t17 63q0 35 -14.5 53.5t-51.5 31.5l-37 12
q-59 19 -82.5 51t-23.5 94q0 67 37 105t101 38q130 0 143 -127q2 -11 -7 -12l-53 -8q-11 -2 -11 9q-8 68 -69 68q-65 0 -65 -72q0 -31 13 -48.5t49 -29.5l37 -12q61 -19 85.5 -52.5t24.5 -99.5q0 -74 -36 -113.5t-107 -39.5z" />
    <glyph glyph-name="scedilla.sc" horiz-adv-x="363" 
d="M105 -152q-10 0 -7 10l54 136q-107 15 -116 133q0 10 8 11l55 9q9 2 11 -8q9 -78 74 -78q35 0 52 19t17 63q0 35 -14.5 53.5t-51.5 31.5l-37 12q-59 19 -82.5 51t-23.5 94q0 67 37 105t101 38q130 0 143 -127q2 -11 -7 -12l-53 -8q-9 -2 -11 9q-9 68 -69 68
q-65 0 -65 -72q0 -31 13 -48.5t49 -29.5l37 -12q61 -19 85.5 -52.5t24.5 -99.5q0 -137 -115 -151l-45 -135q-4 -10 -16 -10h-48z" />
    <glyph glyph-name="scommaaccent.sc" horiz-adv-x="363" 
d="M154 -208q-8 0 -8 10v135q0 10 10 10h53q10 0 10 -10v-49q0 -12 -7 -22l-46 -66q-4 -8 -12 -8zM186 -9q-139 0 -150 136q0 10 8 11l55 9q9 2 11 -8q9 -78 74 -78q35 0 52 19t17 63q0 35 -14.5 53.5t-51.5 31.5l-37 12q-59 19 -82.5 51t-23.5 94q0 67 37 105t101 38
q130 0 143 -127q2 -11 -7 -12l-53 -8q-11 -2 -11 9q-8 68 -69 68q-65 0 -65 -72q0 -31 13 -48.5t49 -29.5l37 -12q61 -19 85.5 -52.5t24.5 -99.5q0 -74 -36 -113.5t-107 -39.5z" />
    <glyph glyph-name="tcaron.sc" horiz-adv-x="345" 
d="M201 0h-57q-10 0 -10 10v431q0 6 -6 6h-101q-10 0 -10 10v52q0 10 10 10h291q10 0 10 -10v-52q0 -10 -10 -10h-101q-6 0 -6 -6v-431q0 -10 -10 -10zM191 596h-36q-11 0 -17 10l-82 123q-7 10 5 10h42q10 0 17 -10l52 -71h2l52 71q7 10 17 10h42q12 0 5 -10l-82 -123
q-6 -10 -17 -10z" />
    <glyph glyph-name="tcommaaccent.sc" horiz-adv-x="345" 
d="M201 0h-57q-10 0 -10 10v431q0 6 -6 6h-101q-10 0 -10 10v52q0 10 10 10h291q10 0 10 -10v-52q0 -10 -10 -10h-101q-6 0 -6 -6v-431q0 -10 -10 -10zM144 -208q-8 0 -8 10v135q0 10 10 10h53q10 0 10 -10v-49q0 -12 -7 -22l-46 -66q-4 -8 -12 -8z" />
    <glyph glyph-name="tbar.sc" horiz-adv-x="345" 
d="M201 0h-57q-10 0 -10 10v277q0 6 -6 6h-43q-10 0 -10 10v42q0 10 10 10h43q6 0 6 6v80q0 6 -6 6h-101q-10 0 -10 10v52q0 10 10 10h291q10 0 10 -10v-52q0 -10 -10 -10h-101q-6 0 -6 -6v-80q0 -6 6 -6h43q10 0 10 -10v-42q0 -10 -10 -10h-43q-6 0 -6 -6v-277
q0 -10 -10 -10z" />
    <glyph glyph-name="thorn.sc" horiz-adv-x="379" 
d="M142 429h49q158 0 158 -157q0 -158 -158 -158h-49q-6 0 -6 -6v-98q0 -10 -10 -10h-57q-10 0 -10 10v499q0 10 10 10h57q10 0 10 -10v-74q0 -6 6 -6zM184 185q47 0 67.5 19.5t20.5 67.5q0 47 -20.5 66.5t-67.5 19.5h-42q-6 0 -6 -6v-161q0 -6 6 -6h42z" />
    <glyph glyph-name="ugrave.sc" horiz-adv-x="409" 
d="M229 597h-40q-9 0 -17 10l-87 123q-6 10 5 10h59q10 0 16 -10l69 -123q5 -10 -5 -10zM205 -9q-68 0 -107.5 40t-39.5 113v365q0 10 10 10h57q10 0 10 -10v-364q0 -81 70 -81q69 0 69 81v364q0 10 10 10h57q10 0 10 -10v-365q0 -73 -39 -113t-107 -40z" />
    <glyph glyph-name="uacute.sc" horiz-adv-x="409" 
d="M219 597h-40q-10 0 -5 10l69 123q6 10 16 10h59q11 0 5 -10l-87 -123q-7 -10 -17 -10zM205 -9q-68 0 -107.5 40t-39.5 113v365q0 10 10 10h57q10 0 10 -10v-364q0 -81 70 -81q69 0 69 81v364q0 10 10 10h57q10 0 10 -10v-365q0 -73 -39 -113t-107 -40z" />
    <glyph glyph-name="ucircumflex.sc" horiz-adv-x="409" 
d="M205 -9q-68 0 -107.5 40t-39.5 113v365q0 10 10 10h57q10 0 10 -10v-364q0 -81 70 -81q69 0 69 81v364q0 10 10 10h57q10 0 10 -10v-365q0 -73 -39 -113t-107 -40zM316 597h-42q-10 0 -17 10l-52 71h-2l-52 -71q-7 -10 -17 -10h-42q-12 0 -5 10l82 123q6 10 17 10h36
q11 0 17 -10l82 -123q7 -10 -5 -10z" />
    <glyph glyph-name="utilde.sc" horiz-adv-x="409" 
d="M246 621q-23 0 -49 19q-22 16 -35 16q-20 0 -44 -27q-2 -3 -5 -3.5t-5 1.5t-2 5v47q0 8 9 18q21 23 48 23q22 0 48 -19q22 -16 36 -16q20 0 44 27q2 3 4.5 3.5t4.5 -1.5t2 -5v-47q0 -9 -8 -18q-21 -23 -48 -23zM205 -9q-68 0 -107.5 40t-39.5 113v365q0 10 10 10h57
q10 0 10 -10v-364q0 -81 70 -81q69 0 69 81v364q0 10 10 10h57q10 0 10 -10v-365q0 -73 -39 -113t-107 -40z" />
    <glyph glyph-name="udieresis.sc" horiz-adv-x="409" 
d="M302 628h-51q-10 0 -10 10v72q0 10 10 10h51q10 0 10 -10v-72q0 -10 -10 -10zM157 628h-51q-10 0 -10 10v72q0 10 10 10h51q10 0 10 -10v-72q0 -10 -10 -10zM205 -9q-68 0 -107.5 40t-39.5 113v365q0 10 10 10h57q10 0 10 -10v-364q0 -81 70 -81q69 0 69 81v364
q0 10 10 10h57q10 0 10 -10v-365q0 -73 -39 -113t-107 -40z" />
    <glyph glyph-name="umacron.sc" horiz-adv-x="409" 
d="M301 643h-194q-10 0 -10 10v43q0 10 10 10h194q10 0 10 -10v-43q0 -10 -10 -10zM205 -9q-68 0 -107.5 40t-39.5 113v365q0 10 10 10h57q10 0 10 -10v-364q0 -81 70 -81q69 0 69 81v364q0 10 10 10h57q10 0 10 -10v-365q0 -73 -39 -113t-107 -40z" />
    <glyph glyph-name="ubreve.sc" horiz-adv-x="409" 
d="M204 603q-51 0 -80 30.5t-34 80.5q-2 10 9 10h32q8 0 11 -10q14 -53 62 -53t62 53q3 10 10 10h33q11 0 9 -10q-5 -50 -34 -80.5t-80 -30.5zM205 -9q-68 0 -107.5 40t-39.5 113v365q0 10 10 10h57q10 0 10 -10v-364q0 -81 70 -81q69 0 69 81v364q0 10 10 10h57
q10 0 10 -10v-365q0 -73 -39 -113t-107 -40z" />
    <glyph glyph-name="uring.sc" horiz-adv-x="409" 
d="M204 586q-37 0 -61.5 24.5t-24.5 61.5q0 38 24.5 62.5t61.5 24.5t61.5 -25t24.5 -62t-24.5 -61.5t-61.5 -24.5zM204 623q21 0 34 14t13 35q0 22 -13 36t-34 14t-34.5 -14t-13.5 -36q0 -21 13.5 -35t34.5 -14zM205 -9q-68 0 -107.5 40t-39.5 113v365q0 10 10 10h57
q10 0 10 -10v-364q0 -81 70 -81q69 0 69 81v364q0 10 10 10h57q10 0 10 -10v-365q0 -73 -39 -113t-107 -40z" />
    <glyph glyph-name="uhungarumlaut.sc" horiz-adv-x="409" 
d="M277 597h-34q-11 0 -6 10l61 123q4 10 16 10h49q11 0 5 -10l-73 -123q-6 -10 -18 -10zM154 597h-35q-11 0 -6 10l61 123q4 10 16 10h49q11 0 5 -10l-73 -123q-6 -10 -17 -10zM205 -9q-68 0 -107.5 40t-39.5 113v365q0 10 10 10h57q10 0 10 -10v-364q0 -81 70 -81
q69 0 69 81v364q0 10 10 10h57q10 0 10 -10v-365q0 -73 -39 -113t-107 -40z" />
    <glyph glyph-name="uogonek.sc" horiz-adv-x="409" 
d="M206 -181q-34 0 -55 19t-21 54q0 42 45 103q-54 8 -85.5 46.5t-31.5 102.5v365q0 10 10 10h57q10 0 10 -10v-364q0 -81 70 -81q69 0 69 81v364q0 10 10 10h57q10 0 10 -10v-365q0 -62 -29 -100t-81 -49q-47 -59 -47 -91q0 -26 22 -26q11 0 20 6q8 5 13 -3l14 -34
q5 -8 -4 -13q-22 -15 -53 -15z" />
    <glyph glyph-name="wacute.sc" horiz-adv-x="527" 
d="M397 0h-49q-8 0 -10 10l-72 355h-2l-74 -355q-2 -10 -10 -10h-50q-8 0 -10 10l-97 499q-2 10 8 10h56q10 0 11 -10l60 -359h1l73 359q1 10 11 10h42q10 0 11 -10l73 -359h2l59 359q1 10 11 10h56q10 0 8 -10l-98 -499q-2 -10 -10 -10zM283 597h-40q-10 0 -5 10l69 123
q6 10 16 10h59q11 0 5 -10l-87 -123q-8 -10 -17 -10z" />
    <glyph glyph-name="wcircumflex.sc" horiz-adv-x="527" 
d="M397 0h-49q-8 0 -10 10l-72 355h-2l-74 -355q-2 -10 -10 -10h-50q-8 0 -10 10l-97 499q-2 10 8 10h56q10 0 11 -10l60 -359h1l73 359q1 10 11 10h42q10 0 11 -10l73 -359h2l59 359q1 10 11 10h56q10 0 8 -10l-98 -499q-2 -10 -10 -10zM375 597h-42q-10 0 -17 10l-52 71
h-2l-52 -71q-7 -10 -17 -10h-42q-12 0 -5 10l82 123q6 10 17 10h36q11 0 17 -10l82 -123q7 -10 -5 -10z" />
    <glyph glyph-name="wdieresis.sc" horiz-adv-x="527" 
d="M397 0h-49q-8 0 -10 10l-72 355h-2l-74 -355q-2 -10 -10 -10h-50q-8 0 -10 10l-97 499q-2 10 8 10h56q10 0 11 -10l60 -359h1l73 359q1 10 11 10h42q10 0 11 -10l73 -359h2l59 359q1 10 11 10h56q10 0 8 -10l-98 -499q-2 -10 -10 -10zM361 628h-51q-10 0 -10 10v72
q0 10 10 10h51q10 0 10 -10v-72q0 -10 -10 -10zM216 628h-51q-10 0 -10 10v72q0 10 10 10h51q10 0 10 -10v-72q0 -10 -10 -10z" />
    <glyph glyph-name="wgrave.sc" horiz-adv-x="527" 
d="M397 0h-49q-8 0 -10 10l-72 355h-2l-74 -355q-2 -10 -10 -10h-50q-8 0 -10 10l-97 499q-2 10 8 10h56q10 0 11 -10l60 -359h1l73 359q1 10 11 10h42q10 0 11 -10l73 -359h2l59 359q1 10 11 10h56q10 0 8 -10l-98 -499q-2 -10 -10 -10zM285 597h-40q-9 0 -17 10l-87 123
q-6 10 5 10h59q10 0 16 -10l69 -123q5 -10 -5 -10z" />
    <glyph glyph-name="yacute.sc" horiz-adv-x="343" 
d="M200 0h-57q-10 0 -10 10v205l-119 294q-3 10 7 10h60q8 0 11 -10l79 -208h3l77 208q3 10 12 10h58q10 0 7 -10l-118 -294v-205q0 -10 -10 -10zM190 597h-40q-10 0 -5 10l69 123q6 10 16 10h59q11 0 5 -10l-87 -123q-7 -10 -17 -10z" />
    <glyph glyph-name="ycircumflex.sc" horiz-adv-x="343" 
d="M200 0h-57q-10 0 -10 10v205l-119 294q-3 10 7 10h60q8 0 11 -10l79 -208h3l77 208q3 10 12 10h58q10 0 7 -10l-118 -294v-205q0 -10 -10 -10zM284 597h-42q-10 0 -17 10l-52 71h-2l-52 -71q-7 -10 -17 -10h-42q-12 0 -5 10l82 123q6 10 17 10h36q11 0 17 -10l82 -123
q7 -10 -5 -10z" />
    </font>
</defs>
</svg>
